<ttFont>
    <TTGlyph name=".notdef" xMin="0" yMin="0" xMax="500" yMax="700">
      <contour>
        <pt x="500" y="0" on="1"/>
        <pt x="0" y="0" on="1"/>
        <pt x="0" y="700" on="1"/>
        <pt x="500" y="700" on="1"/>
      </contour>
      <contour>
        <pt x="450" y="50" on="1"/>
        <pt x="450" y="650" on="1"/>
        <pt x="50" y="650" on="1"/>
        <pt x="50" y="50" on="1"/>
      </contour>
      <contour>
        <pt x="425" y="133" on="1"/>
        <pt x="386" y="101" on="1"/>
        <pt x="250" y="305" on="1"/>
        <pt x="113" y="100" on="1"/>
        <pt x="73" y="129" on="1"/>
        <pt x="220" y="350" on="1"/>
        <pt x="73" y="571" on="1"/>
        <pt x="113" y="600" on="1"/>
        <pt x="250" y="395" on="1"/>
        <pt x="386" y="599" on="1"/>
        <pt x="425" y="567" on="1"/>
        <pt x="280" y="350" on="1"/>
      </contour>
    </TTGlyph>
    <TTGlyph name="A" xMin="15" yMin="0" xMax="517" yMax="700">
      <contour>
        <pt x="517" y="0" on="1"/>
        <pt x="436" y="0" on="1"/>
        <pt x="367" y="226" on="1"/>
        <pt x="159" y="226" on="1"/>
        <pt x="93" y="0" on="1"/>
        <pt x="15" y="0" on="1"/>
        <pt x="221" y="700" on="1"/>
        <pt x="304" y="700" on="1"/>
      </contour>
      <contour>
        <pt x="349" y="300" on="1"/>
        <pt x="262" y="584" on="1"/>
        <pt x="178" y="300" on="1"/>
      </contour>
    </TTGlyph>
    <TTGlyph name="AE" xMin="78" yMin="0" xMax="779" yMax="700">
      <contour>
        <pt x="777" y="0" on="1"/>
        <pt x="444" y="0" on="1"/>
        <pt x="445" y="230" on="1"/>
        <pt x="278" y="230" on="1"/>
        <pt x="158" y="0" on="1"/>
        <pt x="78" y="0" on="1"/>
        <pt x="444" y="700" on="1"/>
        <pt x="779" y="700" on="1"/>
        <pt x="779" y="631" on="1"/>
        <pt x="517" y="631" on="1"/>
        <pt x="517" y="413" on="1"/>
        <pt x="696" y="413" on="1"/>
        <pt x="673" y="343" on="1"/>
        <pt x="517" y="343" on="1"/>
        <pt x="517" y="65" on="1"/>
        <pt x="777" y="65" on="1"/>
      </contour>
      <contour>
        <pt x="445" y="300" on="1"/>
        <pt x="445" y="552" on="1"/>
        <pt x="314" y="300" on="1"/>
      </contour>
    </TTGlyph>
    <TTGlyph name="Aacute" xMin="15" yMin="0" xMax="517" yMax="872">
      <contour>
        <pt x="517" y="0" on="1"/>
        <pt x="436" y="0" on="1"/>
        <pt x="367" y="226" on="1"/>
        <pt x="159" y="226" on="1"/>
        <pt x="93" y="0" on="1"/>
        <pt x="15" y="0" on="1"/>
        <pt x="221" y="700" on="1"/>
        <pt x="304" y="700" on="1"/>
      </contour>
      <contour>
        <pt x="349" y="300" on="1"/>
        <pt x="262" y="584" on="1"/>
        <pt x="178" y="300" on="1"/>
      </contour>
      <contour>
        <pt x="291" y="731" on="1"/>
        <pt x="238" y="731" on="1"/>
        <pt x="287" y="846" on="1"/>
        <pt x="299" y="872" on="0"/>
        <pt x="326" y="872" on="1"/>
        <pt x="333" y="872" on="0"/>
        <pt x="339" y="870" on="1"/>
        <pt x="362" y="861" on="0"/>
        <pt x="362" y="836" on="1"/>
        <pt x="362" y="825" on="0"/>
        <pt x="354" y="814" on="1"/>
      </contour>
    </TTGlyph>
    <TTGlyph name="Abreve" xMin="15" yMin="0" xMax="517" yMax="848">
      <contour>
        <pt x="517" y="0" on="1"/>
        <pt x="436" y="0" on="1"/>
        <pt x="367" y="226" on="1"/>
        <pt x="159" y="226" on="1"/>
        <pt x="93" y="0" on="1"/>
        <pt x="15" y="0" on="1"/>
        <pt x="221" y="700" on="1"/>
        <pt x="304" y="700" on="1"/>
      </contour>
      <contour>
        <pt x="349" y="300" on="1"/>
        <pt x="262" y="584" on="1"/>
        <pt x="178" y="300" on="1"/>
      </contour>
      <contour>
        <pt x="378" y="848" on="1"/>
        <pt x="378" y="843" on="1"/>
        <pt x="378" y="796" on="0"/>
        <pt x="312" y="730" on="0"/>
        <pt x="218" y="730" on="0"/>
        <pt x="152" y="796" on="0"/>
        <pt x="152" y="843" on="1"/>
        <pt x="152" y="848" on="1"/>
        <pt x="208" y="848" on="1"/>
        <pt x="208" y="843" on="1"/>
        <pt x="208" y="818" on="0"/>
        <pt x="241" y="785" on="0"/>
        <pt x="289" y="785" on="0"/>
        <pt x="322" y="818" on="0"/>
        <pt x="322" y="843" on="1"/>
        <pt x="322" y="848" on="1"/>
      </contour>
    </TTGlyph>
    <TTGlyph name="Acircumflex" xMin="15" yMin="0" xMax="517" yMax="912">
      <contour>
        <pt x="517" y="0" on="1"/>
        <pt x="436" y="0" on="1"/>
        <pt x="367" y="226" on="1"/>
        <pt x="159" y="226" on="1"/>
        <pt x="93" y="0" on="1"/>
        <pt x="15" y="0" on="1"/>
        <pt x="221" y="700" on="1"/>
        <pt x="304" y="700" on="1"/>
      </contour>
      <contour>
        <pt x="349" y="300" on="1"/>
        <pt x="262" y="584" on="1"/>
        <pt x="178" y="300" on="1"/>
      </contour>
      <contour>
        <pt x="409" y="771" on="1"/>
        <pt x="362" y="732" on="1"/>
        <pt x="266" y="830" on="1"/>
        <pt x="165" y="732" on="1"/>
        <pt x="119" y="771" on="1"/>
        <pt x="267" y="912" on="1"/>
      </contour>
    </TTGlyph>
    <TTGlyph name="Adieresis" xMin="15" yMin="0" xMax="517" yMax="804">
      <contour>
        <pt x="517" y="0" on="1"/>
        <pt x="436" y="0" on="1"/>
        <pt x="367" y="226" on="1"/>
        <pt x="159" y="226" on="1"/>
        <pt x="93" y="0" on="1"/>
        <pt x="15" y="0" on="1"/>
        <pt x="221" y="700" on="1"/>
        <pt x="304" y="700" on="1"/>
      </contour>
      <contour>
        <pt x="349" y="300" on="1"/>
        <pt x="262" y="584" on="1"/>
        <pt x="178" y="300" on="1"/>
      </contour>
      <contour>
        <pt x="224" y="782" on="0"/>
        <pt x="224" y="752" on="0"/>
        <pt x="202" y="731" on="0"/>
        <pt x="172" y="731" on="0"/>
        <pt x="151" y="752" on="0"/>
        <pt x="151" y="782" on="0"/>
        <pt x="172" y="804" on="0"/>
        <pt x="202" y="804" on="0"/>
      </contour>
      <contour>
        <pt x="351" y="731" on="0"/>
        <pt x="321" y="731" on="0"/>
        <pt x="300" y="752" on="0"/>
        <pt x="300" y="783" on="0"/>
        <pt x="321" y="804" on="0"/>
        <pt x="351" y="804" on="0"/>
        <pt x="373" y="783" on="0"/>
        <pt x="373" y="752" on="0"/>
      </contour>
    </TTGlyph>
    <TTGlyph name="Agrave" xMin="15" yMin="0" xMax="517" yMax="874">
      <contour>
        <pt x="517" y="0" on="1"/>
        <pt x="436" y="0" on="1"/>
        <pt x="367" y="226" on="1"/>
        <pt x="159" y="226" on="1"/>
        <pt x="93" y="0" on="1"/>
        <pt x="15" y="0" on="1"/>
        <pt x="221" y="700" on="1"/>
        <pt x="304" y="700" on="1"/>
      </contour>
      <contour>
        <pt x="349" y="300" on="1"/>
        <pt x="262" y="584" on="1"/>
        <pt x="178" y="300" on="1"/>
      </contour>
      <contour>
        <pt x="278" y="733" on="1"/>
        <pt x="225" y="733" on="1"/>
        <pt x="162" y="816" on="1"/>
        <pt x="154" y="827" on="0"/>
        <pt x="154" y="835" on="1"/>
        <pt x="154" y="863" on="0"/>
        <pt x="177" y="872" on="1"/>
        <pt x="183" y="874" on="0"/>
        <pt x="191" y="874" on="1"/>
        <pt x="217" y="874" on="0"/>
        <pt x="228" y="848" on="1"/>
      </contour>
    </TTGlyph>
    <TTGlyph name="Alpha" xMin="15" yMin="0" xMax="517" yMax="700">
      <contour>
        <pt x="517" y="0" on="1"/>
        <pt x="436" y="0" on="1"/>
        <pt x="367" y="226" on="1"/>
        <pt x="159" y="226" on="1"/>
        <pt x="93" y="0" on="1"/>
        <pt x="15" y="0" on="1"/>
        <pt x="221" y="700" on="1"/>
        <pt x="304" y="700" on="1"/>
      </contour>
      <contour>
        <pt x="349" y="300" on="1"/>
        <pt x="262" y="584" on="1"/>
        <pt x="178" y="300" on="1"/>
      </contour>
    </TTGlyph>
    <TTGlyph name="Alphatonos" xMin="82" yMin="0" xMax="584" yMax="709">
      <contour>
        <pt x="584" y="0" on="1"/>
        <pt x="503" y="0" on="1"/>
        <pt x="434" y="226" on="1"/>
        <pt x="226" y="226" on="1"/>
        <pt x="160" y="0" on="1"/>
        <pt x="82" y="0" on="1"/>
        <pt x="288" y="700" on="1"/>
        <pt x="371" y="700" on="1"/>
      </contour>
      <contour>
        <pt x="416" y="300" on="1"/>
        <pt x="329" y="584" on="1"/>
        <pt x="245" y="300" on="1"/>
      </contour>
      <contour>
        <pt x="135" y="568" on="1"/>
        <pt x="82" y="568" on="1"/>
        <pt x="131" y="683" on="1"/>
        <pt x="143" y="709" on="0"/>
        <pt x="170" y="709" on="1"/>
        <pt x="177" y="709" on="0"/>
        <pt x="183" y="707" on="1"/>
        <pt x="206" y="698" on="0"/>
        <pt x="206" y="673" on="1"/>
        <pt x="206" y="662" on="0"/>
        <pt x="198" y="651" on="1"/>
      </contour>
    </TTGlyph>
    <TTGlyph name="Amacron" xMin="15" yMin="0" xMax="517" yMax="798">
      <contour>
        <pt x="517" y="0" on="1"/>
        <pt x="436" y="0" on="1"/>
        <pt x="367" y="226" on="1"/>
        <pt x="159" y="226" on="1"/>
        <pt x="93" y="0" on="1"/>
        <pt x="15" y="0" on="1"/>
        <pt x="221" y="700" on="1"/>
        <pt x="304" y="700" on="1"/>
      </contour>
      <contour>
        <pt x="349" y="300" on="1"/>
        <pt x="262" y="584" on="1"/>
        <pt x="178" y="300" on="1"/>
      </contour>
      <contour>
        <pt x="368" y="730" on="1"/>
        <pt x="151" y="730" on="1"/>
        <pt x="151" y="798" on="1"/>
        <pt x="368" y="798" on="1"/>
      </contour>
    </TTGlyph>
    <TTGlyph name="Aogonek" xMin="78" yMin="-213" xMax="614" yMax="700">
      <contour>
        <pt x="573" y="-121" on="1"/>
        <pt x="614" y="-163" on="1"/>
        <pt x="582" y="-213" on="0"/>
        <pt x="513" y="-213" on="1"/>
        <pt x="483" y="-213" on="0"/>
        <pt x="422" y="-174" on="0"/>
        <pt x="423" y="-127" on="1"/>
        <pt x="423" y="-61" on="0"/>
        <pt x="518" y="0" on="1"/>
        <pt x="499" y="0" on="1"/>
        <pt x="430" y="226" on="1"/>
        <pt x="222" y="226" on="1"/>
        <pt x="156" y="0" on="1"/>
        <pt x="78" y="0" on="1"/>
        <pt x="284" y="700" on="1"/>
        <pt x="367" y="700" on="1"/>
        <pt x="580" y="0" on="1"/>
        <pt x="579" y="0" on="1"/>
        <pt x="480" y="-82" on="0"/>
        <pt x="479" y="-121" on="1"/>
        <pt x="478" y="-139" on="0"/>
        <pt x="499" y="-160" on="0"/>
        <pt x="516" y="-160" on="1"/>
        <pt x="551" y="-160" on="0"/>
      </contour>
      <contour>
        <pt x="412" y="300" on="1"/>
        <pt x="325" y="584" on="1"/>
        <pt x="241" y="300" on="1"/>
      </contour>
    </TTGlyph>
    <TTGlyph name="Aring" xMin="15" yMin="0" xMax="517" yMax="881">
      <contour>
        <pt x="517" y="0" on="1"/>
        <pt x="436" y="0" on="1"/>
        <pt x="367" y="226" on="1"/>
        <pt x="159" y="226" on="1"/>
        <pt x="93" y="0" on="1"/>
        <pt x="15" y="0" on="1"/>
        <pt x="212" y="671" on="1"/>
        <pt x="185" y="685" on="0"/>
        <pt x="152" y="738" on="0"/>
        <pt x="152" y="816" on="0"/>
        <pt x="217" y="881" on="0"/>
        <pt x="309" y="881" on="0"/>
        <pt x="374" y="816" on="0"/>
        <pt x="374" y="777" on="1"/>
        <pt x="374" y="703" on="0"/>
        <pt x="313" y="671" on="1"/>
      </contour>
      <contour>
        <pt x="349" y="300" on="1"/>
        <pt x="262" y="584" on="1"/>
        <pt x="178" y="300" on="1"/>
      </contour>
      <contour>
        <pt x="239" y="713" on="0"/>
        <pt x="287" y="713" on="0"/>
        <pt x="319" y="746" on="0"/>
        <pt x="319" y="794" on="0"/>
        <pt x="287" y="826" on="0"/>
        <pt x="239" y="826" on="0"/>
        <pt x="206" y="794" on="0"/>
        <pt x="206" y="746" on="0"/>
      </contour>
    </TTGlyph>
    <TTGlyph name="Atilde" xMin="15" yMin="0" xMax="517" yMax="834">
      <contour>
        <pt x="517" y="0" on="1"/>
        <pt x="436" y="0" on="1"/>
        <pt x="367" y="226" on="1"/>
        <pt x="159" y="226" on="1"/>
        <pt x="93" y="0" on="1"/>
        <pt x="15" y="0" on="1"/>
        <pt x="221" y="700" on="1"/>
        <pt x="304" y="700" on="1"/>
      </contour>
      <contour>
        <pt x="349" y="300" on="1"/>
        <pt x="262" y="584" on="1"/>
        <pt x="178" y="300" on="1"/>
      </contour>
      <contour>
        <pt x="335" y="793" on="1"/>
        <pt x="374" y="793" on="0"/>
        <pt x="405" y="828" on="1"/>
        <pt x="435" y="781" on="1"/>
        <pt x="390" y="728" on="0"/>
        <pt x="339" y="728" on="1"/>
        <pt x="321" y="728" on="0"/>
        <pt x="276" y="747" on="0"/>
        <pt x="226" y="770" on="0"/>
        <pt x="201" y="770" on="1"/>
        <pt x="159" y="770" on="0"/>
        <pt x="125" y="734" on="1"/>
        <pt x="96" y="781" on="1"/>
        <pt x="143" y="834" on="0"/>
        <pt x="196" y="834" on="1"/>
        <pt x="214" y="834" on="0"/>
        <pt x="259" y="816" on="0"/>
        <pt x="310" y="793" on="0"/>
      </contour>
    </TTGlyph>
    <TTGlyph name="B" xMin="78" yMin="0" xMax="511" yMax="700">
      <contour>
        <pt x="305" y="0" on="1"/>
        <pt x="78" y="0" on="1"/>
        <pt x="78" y="700" on="1"/>
        <pt x="294" y="700" on="1"/>
        <pt x="376" y="700" on="0"/>
        <pt x="475" y="614" on="0"/>
        <pt x="475" y="436" on="0"/>
        <pt x="409" y="391" on="1"/>
        <pt x="408" y="390" on="0"/>
        <pt x="408" y="389" on="1"/>
        <pt x="408" y="388" on="1"/>
        <pt x="452" y="368" on="0"/>
        <pt x="511" y="279" on="0"/>
        <pt x="511" y="208" on="1"/>
        <pt x="511" y="145" on="0"/>
        <pt x="484" y="94" on="1"/>
        <pt x="436" y="0" on="0"/>
      </contour>
      <contour>
        <pt x="150" y="413" on="1"/>
        <pt x="279" y="413" on="1"/>
        <pt x="396" y="413" on="0"/>
        <pt x="396" y="523" on="1"/>
        <pt x="396" y="630" on="0"/>
        <pt x="277" y="630" on="1"/>
        <pt x="150" y="630" on="1"/>
      </contour>
      <contour>
        <pt x="150" y="67" on="1"/>
        <pt x="289" y="67" on="1"/>
        <pt x="356" y="67" on="0"/>
        <pt x="431" y="129" on="0"/>
        <pt x="431" y="277" on="0"/>
        <pt x="356" y="343" on="0"/>
        <pt x="303" y="343" on="1"/>
        <pt x="150" y="343" on="1"/>
      </contour>
    </TTGlyph>
    <TTGlyph name="Beta" xMin="78" yMin="0" xMax="511" yMax="700">
      <contour>
        <pt x="305" y="0" on="1"/>
        <pt x="78" y="0" on="1"/>
        <pt x="78" y="700" on="1"/>
        <pt x="294" y="700" on="1"/>
        <pt x="376" y="700" on="0"/>
        <pt x="475" y="614" on="0"/>
        <pt x="475" y="436" on="0"/>
        <pt x="409" y="391" on="1"/>
        <pt x="408" y="390" on="0"/>
        <pt x="408" y="389" on="1"/>
        <pt x="408" y="388" on="1"/>
        <pt x="452" y="368" on="0"/>
        <pt x="511" y="279" on="0"/>
        <pt x="511" y="208" on="1"/>
        <pt x="511" y="145" on="0"/>
        <pt x="484" y="94" on="1"/>
        <pt x="436" y="0" on="0"/>
      </contour>
      <contour>
        <pt x="150" y="413" on="1"/>
        <pt x="279" y="413" on="1"/>
        <pt x="396" y="413" on="0"/>
        <pt x="396" y="523" on="1"/>
        <pt x="396" y="630" on="0"/>
        <pt x="277" y="630" on="1"/>
        <pt x="150" y="630" on="1"/>
      </contour>
      <contour>
        <pt x="150" y="67" on="1"/>
        <pt x="289" y="67" on="1"/>
        <pt x="356" y="67" on="0"/>
        <pt x="431" y="129" on="0"/>
        <pt x="431" y="277" on="0"/>
        <pt x="356" y="343" on="0"/>
        <pt x="303" y="343" on="1"/>
        <pt x="150" y="343" on="1"/>
      </contour>
    </TTGlyph>
    <TTGlyph name="C" xMin="66" yMin="-10" xMax="427" yMax="710">
      <contour>
        <pt x="138" y="185" on="1"/>
        <pt x="138" y="60" on="0"/>
        <pt x="275" y="60" on="1"/>
        <pt x="334" y="60" on="0"/>
        <pt x="413" y="87" on="1"/>
        <pt x="427" y="23" on="1"/>
        <pt x="342" y="-10" on="0"/>
        <pt x="265" y="-10" on="1"/>
        <pt x="249" y="-10" on="0"/>
        <pt x="184" y="-4" on="0"/>
        <pt x="111" y="35" on="0"/>
        <pt x="66" y="120" on="0"/>
        <pt x="66" y="183" on="1"/>
        <pt x="66" y="504" on="1"/>
        <pt x="66" y="580" on="0"/>
        <pt x="109" y="658" on="0"/>
        <pt x="153" y="685" on="1"/>
        <pt x="198" y="710" on="0"/>
        <pt x="260" y="710" on="1"/>
        <pt x="337" y="710" on="0"/>
        <pt x="402" y="677" on="1"/>
        <pt x="381" y="620" on="1"/>
        <pt x="327" y="640" on="0"/>
        <pt x="243" y="640" on="0"/>
        <pt x="186" y="623" on="0"/>
        <pt x="138" y="562" on="0"/>
        <pt x="138" y="513" on="1"/>
      </contour>
    </TTGlyph>
    <TTGlyph name="Cacute" xMin="66" yMin="-10" xMax="427" yMax="875">
      <contour>
        <pt x="138" y="185" on="1"/>
        <pt x="138" y="60" on="0"/>
        <pt x="275" y="60" on="1"/>
        <pt x="334" y="60" on="0"/>
        <pt x="413" y="87" on="1"/>
        <pt x="427" y="23" on="1"/>
        <pt x="342" y="-10" on="0"/>
        <pt x="265" y="-10" on="1"/>
        <pt x="249" y="-10" on="0"/>
        <pt x="184" y="-4" on="0"/>
        <pt x="111" y="35" on="0"/>
        <pt x="66" y="120" on="0"/>
        <pt x="66" y="183" on="1"/>
        <pt x="66" y="504" on="1"/>
        <pt x="66" y="580" on="0"/>
        <pt x="109" y="658" on="0"/>
        <pt x="153" y="685" on="1"/>
        <pt x="198" y="710" on="0"/>
        <pt x="260" y="710" on="1"/>
        <pt x="337" y="710" on="0"/>
        <pt x="402" y="677" on="1"/>
        <pt x="381" y="620" on="1"/>
        <pt x="327" y="640" on="0"/>
        <pt x="243" y="640" on="0"/>
        <pt x="186" y="623" on="0"/>
        <pt x="138" y="562" on="0"/>
        <pt x="138" y="513" on="1"/>
      </contour>
      <contour>
        <pt x="284" y="734" on="1"/>
        <pt x="231" y="734" on="1"/>
        <pt x="280" y="849" on="1"/>
        <pt x="292" y="875" on="0"/>
        <pt x="319" y="875" on="1"/>
        <pt x="326" y="875" on="0"/>
        <pt x="332" y="873" on="1"/>
        <pt x="355" y="864" on="0"/>
        <pt x="355" y="839" on="1"/>
        <pt x="355" y="828" on="0"/>
        <pt x="347" y="817" on="1"/>
      </contour>
    </TTGlyph>
    <TTGlyph name="Ccaron" xMin="66" yMin="-10" xMax="427" yMax="913">
      <contour>
        <pt x="138" y="185" on="1"/>
        <pt x="138" y="60" on="0"/>
        <pt x="275" y="60" on="1"/>
        <pt x="334" y="60" on="0"/>
        <pt x="413" y="87" on="1"/>
        <pt x="427" y="23" on="1"/>
        <pt x="342" y="-10" on="0"/>
        <pt x="265" y="-10" on="1"/>
        <pt x="249" y="-10" on="0"/>
        <pt x="184" y="-4" on="0"/>
        <pt x="111" y="35" on="0"/>
        <pt x="66" y="120" on="0"/>
        <pt x="66" y="183" on="1"/>
        <pt x="66" y="504" on="1"/>
        <pt x="66" y="580" on="0"/>
        <pt x="109" y="658" on="0"/>
        <pt x="153" y="685" on="1"/>
        <pt x="198" y="710" on="0"/>
        <pt x="260" y="710" on="1"/>
        <pt x="337" y="710" on="0"/>
        <pt x="402" y="677" on="1"/>
        <pt x="381" y="620" on="1"/>
        <pt x="327" y="640" on="0"/>
        <pt x="243" y="640" on="0"/>
        <pt x="186" y="623" on="0"/>
        <pt x="138" y="562" on="0"/>
        <pt x="138" y="513" on="1"/>
      </contour>
      <contour>
        <pt x="398" y="874" on="1"/>
        <pt x="256" y="733" on="1"/>
        <pt x="108" y="874" on="1"/>
        <pt x="154" y="913" on="1"/>
        <pt x="255" y="816" on="1"/>
        <pt x="351" y="913" on="1"/>
      </contour>
    </TTGlyph>
    <TTGlyph name="Ccedilla" xMin="66" yMin="-217" xMax="427" yMax="710">
      <contour>
        <pt x="138" y="185" on="1"/>
        <pt x="138" y="60" on="0"/>
        <pt x="275" y="60" on="1"/>
        <pt x="334" y="60" on="0"/>
        <pt x="413" y="87" on="1"/>
        <pt x="427" y="23" on="1"/>
        <pt x="345" y="-9" on="0"/>
        <pt x="266" y="-10" on="1"/>
        <pt x="238" y="-49" on="1"/>
        <pt x="252" y="-42" on="0"/>
        <pt x="308" y="-42" on="0"/>
        <pt x="356" y="-84" on="0"/>
        <pt x="356" y="-172" on="0"/>
        <pt x="278" y="-217" on="0"/>
        <pt x="187" y="-217" on="0"/>
        <pt x="132" y="-197" on="1"/>
        <pt x="159" y="-138" on="1"/>
        <pt x="196" y="-163" on="0"/>
        <pt x="228" y="-163" on="1"/>
        <pt x="299" y="-163" on="0"/>
        <pt x="299" y="-122" on="1"/>
        <pt x="299" y="-100" on="0"/>
        <pt x="278" y="-91" on="1"/>
        <pt x="270" y="-87" on="0"/>
        <pt x="244" y="-87" on="0"/>
        <pt x="222" y="-96" on="1"/>
        <pt x="185" y="-113" on="1"/>
        <pt x="163" y="-78" on="1"/>
        <pt x="218" y="-7" on="1"/>
        <pt x="148" y="3" on="0"/>
        <pt x="66" y="95" on="0"/>
        <pt x="66" y="183" on="1"/>
        <pt x="66" y="504" on="1"/>
        <pt x="66" y="580" on="0"/>
        <pt x="109" y="658" on="0"/>
        <pt x="153" y="685" on="1"/>
        <pt x="198" y="710" on="0"/>
        <pt x="260" y="710" on="1"/>
        <pt x="337" y="710" on="0"/>
        <pt x="402" y="677" on="1"/>
        <pt x="381" y="620" on="1"/>
        <pt x="327" y="640" on="0"/>
        <pt x="243" y="640" on="0"/>
        <pt x="186" y="623" on="0"/>
        <pt x="138" y="562" on="0"/>
        <pt x="138" y="513" on="1"/>
      </contour>
    </TTGlyph>
    <TTGlyph name="Ccircumflex" xMin="66" yMin="-10" xMax="427" yMax="912">
      <contour>
        <pt x="412" y="771" on="1"/>
        <pt x="365" y="732" on="1"/>
        <pt x="269" y="830" on="1"/>
        <pt x="168" y="732" on="1"/>
        <pt x="122" y="771" on="1"/>
        <pt x="270" y="912" on="1"/>
      </contour>
      <contour>
        <pt x="138" y="185" on="1"/>
        <pt x="138" y="60" on="0"/>
        <pt x="275" y="60" on="1"/>
        <pt x="334" y="60" on="0"/>
        <pt x="413" y="87" on="1"/>
        <pt x="427" y="23" on="1"/>
        <pt x="342" y="-10" on="0"/>
        <pt x="265" y="-10" on="1"/>
        <pt x="249" y="-10" on="0"/>
        <pt x="184" y="-4" on="0"/>
        <pt x="111" y="35" on="0"/>
        <pt x="66" y="120" on="0"/>
        <pt x="66" y="183" on="1"/>
        <pt x="66" y="504" on="1"/>
        <pt x="66" y="580" on="0"/>
        <pt x="109" y="658" on="0"/>
        <pt x="153" y="685" on="1"/>
        <pt x="198" y="710" on="0"/>
        <pt x="260" y="710" on="1"/>
        <pt x="337" y="710" on="0"/>
        <pt x="402" y="677" on="1"/>
        <pt x="381" y="620" on="1"/>
        <pt x="327" y="640" on="0"/>
        <pt x="243" y="640" on="0"/>
        <pt x="186" y="623" on="0"/>
        <pt x="138" y="562" on="0"/>
        <pt x="138" y="513" on="1"/>
      </contour>
    </TTGlyph>
    <TTGlyph name="Cdotaccent" xMin="66" yMin="-10" xMax="427" yMax="812">
      <contour>
        <pt x="138" y="185" on="1"/>
        <pt x="138" y="60" on="0"/>
        <pt x="275" y="60" on="1"/>
        <pt x="334" y="60" on="0"/>
        <pt x="413" y="87" on="1"/>
        <pt x="427" y="23" on="1"/>
        <pt x="342" y="-10" on="0"/>
        <pt x="265" y="-10" on="1"/>
        <pt x="249" y="-10" on="0"/>
        <pt x="184" y="-4" on="0"/>
        <pt x="111" y="35" on="0"/>
        <pt x="66" y="120" on="0"/>
        <pt x="66" y="183" on="1"/>
        <pt x="66" y="504" on="1"/>
        <pt x="66" y="580" on="0"/>
        <pt x="109" y="658" on="0"/>
        <pt x="153" y="685" on="1"/>
        <pt x="198" y="710" on="0"/>
        <pt x="260" y="710" on="1"/>
        <pt x="337" y="710" on="0"/>
        <pt x="402" y="677" on="1"/>
        <pt x="381" y="620" on="1"/>
        <pt x="327" y="640" on="0"/>
        <pt x="243" y="640" on="0"/>
        <pt x="186" y="623" on="0"/>
        <pt x="138" y="562" on="0"/>
        <pt x="138" y="513" on="1"/>
      </contour>
      <contour>
        <pt x="282" y="730" on="0"/>
        <pt x="250" y="730" on="0"/>
        <pt x="224" y="756" on="0"/>
        <pt x="224" y="788" on="0"/>
        <pt x="249" y="812" on="0"/>
        <pt x="282" y="812" on="0"/>
        <pt x="306" y="788" on="0"/>
        <pt x="306" y="755" on="0"/>
      </contour>
    </TTGlyph>
    <TTGlyph name="Chi" xMin="78" yMin="0" xMax="606" yMax="700">
      <contour>
        <pt x="606" y="0" on="1"/>
        <pt x="515" y="0" on="1"/>
        <pt x="341" y="279" on="1"/>
        <pt x="167" y="0" on="1"/>
        <pt x="78" y="0" on="1"/>
        <pt x="298" y="351" on="1"/>
        <pt x="95" y="700" on="1"/>
        <pt x="178" y="700" on="1"/>
        <pt x="342" y="425" on="1"/>
        <pt x="506" y="700" on="1"/>
        <pt x="590" y="700" on="1"/>
        <pt x="386" y="354" on="1"/>
      </contour>
    </TTGlyph>
    <TTGlyph name="D" xMin="78" yMin="0" xMax="498" yMax="701">
      <contour>
        <pt x="286" y="0" on="1"/>
        <pt x="78" y="0" on="1"/>
        <pt x="78" y="701" on="1"/>
        <pt x="266" y="701" on="1"/>
        <pt x="379" y="701" on="0"/>
        <pt x="498" y="577" on="0"/>
        <pt x="498" y="474" on="1"/>
        <pt x="498" y="200" on="1"/>
        <pt x="498" y="0" on="0"/>
      </contour>
      <contour>
        <pt x="426" y="190" on="1"/>
        <pt x="426" y="484" on="1"/>
        <pt x="426" y="559" on="0"/>
        <pt x="339" y="632" on="0"/>
        <pt x="276" y="632" on="1"/>
        <pt x="150" y="632" on="1"/>
        <pt x="150" y="65" on="1"/>
        <pt x="270" y="65" on="1"/>
        <pt x="381" y="65" on="0"/>
        <pt x="412" y="124" on="1"/>
        <pt x="426" y="150" on="0"/>
      </contour>
    </TTGlyph>
    <TTGlyph name="Dcaron" xMin="78" yMin="0" xMax="498" yMax="914">
      <contour>
        <pt x="286" y="0" on="1"/>
        <pt x="78" y="0" on="1"/>
        <pt x="78" y="701" on="1"/>
        <pt x="266" y="701" on="1"/>
        <pt x="379" y="701" on="0"/>
        <pt x="498" y="577" on="0"/>
        <pt x="498" y="474" on="1"/>
        <pt x="498" y="200" on="1"/>
        <pt x="498" y="0" on="0"/>
      </contour>
      <contour>
        <pt x="426" y="190" on="1"/>
        <pt x="426" y="484" on="1"/>
        <pt x="426" y="559" on="0"/>
        <pt x="339" y="632" on="0"/>
        <pt x="276" y="632" on="1"/>
        <pt x="150" y="632" on="1"/>
        <pt x="150" y="65" on="1"/>
        <pt x="270" y="65" on="1"/>
        <pt x="381" y="65" on="0"/>
        <pt x="412" y="124" on="1"/>
        <pt x="426" y="150" on="0"/>
      </contour>
      <contour>
        <pt x="416" y="875" on="1"/>
        <pt x="274" y="734" on="1"/>
        <pt x="126" y="875" on="1"/>
        <pt x="172" y="914" on="1"/>
        <pt x="273" y="817" on="1"/>
        <pt x="369" y="914" on="1"/>
      </contour>
    </TTGlyph>
    <TTGlyph name="Dcroat" xMin="78" yMin="0" xMax="498" yMax="798">
      <contour>
        <pt x="286" y="0" on="1"/>
        <pt x="78" y="0" on="1"/>
        <pt x="78" y="701" on="1"/>
        <pt x="266" y="701" on="1"/>
        <pt x="379" y="701" on="0"/>
        <pt x="498" y="577" on="0"/>
        <pt x="498" y="474" on="1"/>
        <pt x="498" y="200" on="1"/>
        <pt x="498" y="0" on="0"/>
      </contour>
      <contour>
        <pt x="426" y="190" on="1"/>
        <pt x="426" y="484" on="1"/>
        <pt x="426" y="559" on="0"/>
        <pt x="339" y="632" on="0"/>
        <pt x="276" y="632" on="1"/>
        <pt x="150" y="632" on="1"/>
        <pt x="150" y="65" on="1"/>
        <pt x="270" y="65" on="1"/>
        <pt x="381" y="65" on="0"/>
        <pt x="412" y="124" on="1"/>
        <pt x="426" y="150" on="0"/>
      </contour>
      <contour>
        <pt x="392" y="730" on="1"/>
        <pt x="175" y="730" on="1"/>
        <pt x="175" y="798" on="1"/>
        <pt x="392" y="798" on="1"/>
      </contour>
    </TTGlyph>
    <TTGlyph name="Delta" xMin="78" yMin="0" xMax="583" yMax="700">
      <contour>
        <pt x="583" y="0" on="1"/>
        <pt x="78" y="0" on="1"/>
        <pt x="292" y="700" on="1"/>
        <pt x="362" y="700" on="1"/>
      </contour>
      <contour>
        <pt x="485" y="65" on="1"/>
        <pt x="328" y="574" on="1"/>
        <pt x="174" y="65" on="1"/>
      </contour>
    </TTGlyph>
    <TTGlyph name="E" xMin="78" yMin="0" xMax="412" yMax="700">
      <contour>
        <pt x="410" y="0" on="1"/>
        <pt x="78" y="0" on="1"/>
        <pt x="78" y="700" on="1"/>
        <pt x="412" y="700" on="1"/>
        <pt x="412" y="631" on="1"/>
        <pt x="150" y="631" on="1"/>
        <pt x="150" y="413" on="1"/>
        <pt x="325" y="413" on="1"/>
        <pt x="302" y="343" on="1"/>
        <pt x="150" y="343" on="1"/>
        <pt x="150" y="65" on="1"/>
        <pt x="410" y="65" on="1"/>
      </contour>
    </TTGlyph>
    <TTGlyph name="Eacute" xMin="78" yMin="0" xMax="412" yMax="871">
      <contour>
        <pt x="410" y="0" on="1"/>
        <pt x="78" y="0" on="1"/>
        <pt x="78" y="700" on="1"/>
        <pt x="412" y="700" on="1"/>
        <pt x="412" y="631" on="1"/>
        <pt x="150" y="631" on="1"/>
        <pt x="150" y="413" on="1"/>
        <pt x="325" y="413" on="1"/>
        <pt x="302" y="343" on="1"/>
        <pt x="150" y="343" on="1"/>
        <pt x="150" y="65" on="1"/>
        <pt x="410" y="65" on="1"/>
      </contour>
      <contour>
        <pt x="290" y="730" on="1"/>
        <pt x="237" y="730" on="1"/>
        <pt x="286" y="845" on="1"/>
        <pt x="298" y="871" on="0"/>
        <pt x="325" y="871" on="1"/>
        <pt x="332" y="871" on="0"/>
        <pt x="338" y="869" on="1"/>
        <pt x="361" y="860" on="0"/>
        <pt x="361" y="835" on="1"/>
        <pt x="361" y="824" on="0"/>
        <pt x="353" y="813" on="1"/>
      </contour>
    </TTGlyph>
    <TTGlyph name="Ecaron" xMin="78" yMin="0" xMax="412" yMax="914">
      <contour>
        <pt x="410" y="0" on="1"/>
        <pt x="78" y="0" on="1"/>
        <pt x="78" y="700" on="1"/>
        <pt x="412" y="700" on="1"/>
        <pt x="412" y="631" on="1"/>
        <pt x="150" y="631" on="1"/>
        <pt x="150" y="413" on="1"/>
        <pt x="325" y="413" on="1"/>
        <pt x="302" y="343" on="1"/>
        <pt x="150" y="343" on="1"/>
        <pt x="150" y="65" on="1"/>
        <pt x="410" y="65" on="1"/>
      </contour>
      <contour>
        <pt x="392" y="875" on="1"/>
        <pt x="250" y="734" on="1"/>
        <pt x="102" y="875" on="1"/>
        <pt x="148" y="914" on="1"/>
        <pt x="249" y="817" on="1"/>
        <pt x="345" y="914" on="1"/>
      </contour>
    </TTGlyph>
    <TTGlyph name="Ecircumflex" xMin="78" yMin="0" xMax="412" yMax="912">
      <contour>
        <pt x="410" y="0" on="1"/>
        <pt x="78" y="0" on="1"/>
        <pt x="78" y="700" on="1"/>
        <pt x="412" y="700" on="1"/>
        <pt x="412" y="631" on="1"/>
        <pt x="150" y="631" on="1"/>
        <pt x="150" y="413" on="1"/>
        <pt x="325" y="413" on="1"/>
        <pt x="302" y="343" on="1"/>
        <pt x="150" y="343" on="1"/>
        <pt x="150" y="65" on="1"/>
        <pt x="410" y="65" on="1"/>
      </contour>
      <contour>
        <pt x="391" y="771" on="1"/>
        <pt x="344" y="732" on="1"/>
        <pt x="248" y="830" on="1"/>
        <pt x="147" y="732" on="1"/>
        <pt x="101" y="771" on="1"/>
        <pt x="249" y="912" on="1"/>
      </contour>
    </TTGlyph>
    <TTGlyph name="Edieresis" xMin="78" yMin="0" xMax="412" yMax="804">
      <contour>
        <pt x="410" y="0" on="1"/>
        <pt x="78" y="0" on="1"/>
        <pt x="78" y="700" on="1"/>
        <pt x="412" y="700" on="1"/>
        <pt x="412" y="631" on="1"/>
        <pt x="150" y="631" on="1"/>
        <pt x="150" y="413" on="1"/>
        <pt x="325" y="413" on="1"/>
        <pt x="302" y="343" on="1"/>
        <pt x="150" y="343" on="1"/>
        <pt x="150" y="65" on="1"/>
        <pt x="410" y="65" on="1"/>
      </contour>
      <contour>
        <pt x="204" y="782" on="0"/>
        <pt x="204" y="752" on="0"/>
        <pt x="182" y="731" on="0"/>
        <pt x="152" y="731" on="0"/>
        <pt x="131" y="752" on="0"/>
        <pt x="131" y="782" on="0"/>
        <pt x="152" y="804" on="0"/>
        <pt x="182" y="804" on="0"/>
      </contour>
      <contour>
        <pt x="331" y="731" on="0"/>
        <pt x="301" y="731" on="0"/>
        <pt x="280" y="752" on="0"/>
        <pt x="280" y="783" on="0"/>
        <pt x="301" y="804" on="0"/>
        <pt x="331" y="804" on="0"/>
        <pt x="353" y="783" on="0"/>
        <pt x="353" y="752" on="0"/>
      </contour>
    </TTGlyph>
    <TTGlyph name="Edotaccent" xMin="78" yMin="0" xMax="412" yMax="812">
      <contour>
        <pt x="410" y="0" on="1"/>
        <pt x="78" y="0" on="1"/>
        <pt x="78" y="700" on="1"/>
        <pt x="412" y="700" on="1"/>
        <pt x="412" y="631" on="1"/>
        <pt x="150" y="631" on="1"/>
        <pt x="150" y="413" on="1"/>
        <pt x="325" y="413" on="1"/>
        <pt x="302" y="343" on="1"/>
        <pt x="150" y="343" on="1"/>
        <pt x="150" y="65" on="1"/>
        <pt x="410" y="65" on="1"/>
      </contour>
      <contour>
        <pt x="272" y="730" on="0"/>
        <pt x="240" y="730" on="0"/>
        <pt x="214" y="756" on="0"/>
        <pt x="214" y="788" on="0"/>
        <pt x="239" y="812" on="0"/>
        <pt x="272" y="812" on="0"/>
        <pt x="296" y="788" on="0"/>
        <pt x="296" y="755" on="0"/>
      </contour>
    </TTGlyph>
    <TTGlyph name="Egrave" xMin="78" yMin="0" xMax="412" yMax="873">
      <contour>
        <pt x="410" y="0" on="1"/>
        <pt x="78" y="0" on="1"/>
        <pt x="78" y="700" on="1"/>
        <pt x="412" y="700" on="1"/>
        <pt x="412" y="631" on="1"/>
        <pt x="150" y="631" on="1"/>
        <pt x="150" y="413" on="1"/>
        <pt x="325" y="413" on="1"/>
        <pt x="302" y="343" on="1"/>
        <pt x="150" y="343" on="1"/>
        <pt x="150" y="65" on="1"/>
        <pt x="410" y="65" on="1"/>
      </contour>
      <contour>
        <pt x="272" y="732" on="1"/>
        <pt x="219" y="732" on="1"/>
        <pt x="156" y="815" on="1"/>
        <pt x="148" y="826" on="0"/>
        <pt x="148" y="834" on="1"/>
        <pt x="148" y="862" on="0"/>
        <pt x="171" y="871" on="1"/>
        <pt x="177" y="873" on="0"/>
        <pt x="185" y="873" on="1"/>
        <pt x="211" y="873" on="0"/>
        <pt x="222" y="847" on="1"/>
      </contour>
    </TTGlyph>
    <TTGlyph name="Emacron" xMin="78" yMin="0" xMax="412" yMax="798">
      <contour>
        <pt x="410" y="0" on="1"/>
        <pt x="78" y="0" on="1"/>
        <pt x="78" y="700" on="1"/>
        <pt x="412" y="700" on="1"/>
        <pt x="412" y="631" on="1"/>
        <pt x="150" y="631" on="1"/>
        <pt x="150" y="413" on="1"/>
        <pt x="325" y="413" on="1"/>
        <pt x="302" y="343" on="1"/>
        <pt x="150" y="343" on="1"/>
        <pt x="150" y="65" on="1"/>
        <pt x="410" y="65" on="1"/>
      </contour>
      <contour>
        <pt x="352" y="730" on="1"/>
        <pt x="135" y="730" on="1"/>
        <pt x="135" y="798" on="1"/>
        <pt x="352" y="798" on="1"/>
      </contour>
    </TTGlyph>
    <TTGlyph name="Eng" xMin="78" yMin="-37" xMax="571" yMax="700">
      <contour>
        <pt x="471" y="44" on="1"/>
        <pt x="150" y="560" on="1"/>
        <pt x="150" y="0" on="1"/>
        <pt x="78" y="0" on="1"/>
        <pt x="78" y="700" on="1"/>
        <pt x="150" y="700" on="1"/>
        <pt x="432" y="259" on="0"/>
        <pt x="497" y="142" on="1"/>
        <pt x="497" y="632" on="1"/>
        <pt x="433" y="634" on="1"/>
        <pt x="433" y="700" on="1"/>
        <pt x="571" y="700" on="1"/>
        <pt x="571" y="131" on="1"/>
        <pt x="571" y="49" on="0"/>
        <pt x="492" y="-37" on="0"/>
        <pt x="429" y="-37" on="1"/>
        <pt x="423" y="-19" on="0"/>
        <pt x="409" y="17" on="1"/>
        <pt x="448" y="17" on="0"/>
      </contour>
    </TTGlyph>
    <TTGlyph name="Eogonek" xMin="78" yMin="-213" xMax="444" yMax="700">
      <contour>
        <pt x="403" y="-121" on="1"/>
        <pt x="444" y="-163" on="1"/>
        <pt x="412" y="-213" on="0"/>
        <pt x="343" y="-213" on="1"/>
        <pt x="313" y="-213" on="0"/>
        <pt x="252" y="-174" on="0"/>
        <pt x="253" y="-127" on="1"/>
        <pt x="253" y="-61" on="0"/>
        <pt x="348" y="0" on="1"/>
        <pt x="78" y="0" on="1"/>
        <pt x="78" y="700" on="1"/>
        <pt x="412" y="700" on="1"/>
        <pt x="412" y="631" on="1"/>
        <pt x="150" y="631" on="1"/>
        <pt x="150" y="413" on="1"/>
        <pt x="325" y="413" on="1"/>
        <pt x="302" y="343" on="1"/>
        <pt x="150" y="343" on="1"/>
        <pt x="150" y="65" on="1"/>
        <pt x="410" y="65" on="1"/>
        <pt x="410" y="0" on="1"/>
        <pt x="409" y="0" on="1"/>
        <pt x="310" y="-82" on="0"/>
        <pt x="309" y="-121" on="1"/>
        <pt x="308" y="-139" on="0"/>
        <pt x="329" y="-160" on="0"/>
        <pt x="346" y="-160" on="1"/>
        <pt x="381" y="-160" on="0"/>
      </contour>
    </TTGlyph>
    <TTGlyph name="Epsilon" xMin="78" yMin="0" xMax="412" yMax="700">
      <contour>
        <pt x="410" y="0" on="1"/>
        <pt x="78" y="0" on="1"/>
        <pt x="78" y="700" on="1"/>
        <pt x="412" y="700" on="1"/>
        <pt x="412" y="631" on="1"/>
        <pt x="150" y="631" on="1"/>
        <pt x="150" y="413" on="1"/>
        <pt x="325" y="413" on="1"/>
        <pt x="302" y="343" on="1"/>
        <pt x="150" y="343" on="1"/>
        <pt x="150" y="65" on="1"/>
        <pt x="410" y="65" on="1"/>
      </contour>
    </TTGlyph>
    <TTGlyph name="Epsilontonos" xMin="78" yMin="0" xMax="579" yMax="709">
      <contour>
        <pt x="131" y="568" on="1"/>
        <pt x="78" y="568" on="1"/>
        <pt x="127" y="683" on="1"/>
        <pt x="139" y="709" on="0"/>
        <pt x="166" y="709" on="1"/>
        <pt x="173" y="709" on="0"/>
        <pt x="179" y="707" on="1"/>
        <pt x="202" y="698" on="0"/>
        <pt x="202" y="673" on="1"/>
        <pt x="202" y="662" on="0"/>
        <pt x="194" y="651" on="1"/>
      </contour>
      <contour>
        <pt x="577" y="0" on="1"/>
        <pt x="245" y="0" on="1"/>
        <pt x="245" y="700" on="1"/>
        <pt x="579" y="700" on="1"/>
        <pt x="579" y="631" on="1"/>
        <pt x="317" y="631" on="1"/>
        <pt x="317" y="413" on="1"/>
        <pt x="492" y="413" on="1"/>
        <pt x="469" y="343" on="1"/>
        <pt x="317" y="343" on="1"/>
        <pt x="317" y="65" on="1"/>
        <pt x="577" y="65" on="1"/>
      </contour>
    </TTGlyph>
    <TTGlyph name="Eta" xMin="80" yMin="0" xMax="510" yMax="700">
      <contour>
        <pt x="510" y="0" on="1"/>
        <pt x="438" y="0" on="1"/>
        <pt x="438" y="343" on="1"/>
        <pt x="152" y="343" on="1"/>
        <pt x="152" y="0" on="1"/>
        <pt x="80" y="0" on="1"/>
        <pt x="80" y="700" on="1"/>
        <pt x="152" y="700" on="1"/>
        <pt x="152" y="413" on="1"/>
        <pt x="438" y="413" on="1"/>
        <pt x="438" y="700" on="1"/>
        <pt x="510" y="700" on="1"/>
      </contour>
    </TTGlyph>
    <TTGlyph name="Etatonos" xMin="78" yMin="0" xMax="677" yMax="709">
      <contour>
        <pt x="131" y="568" on="1"/>
        <pt x="78" y="568" on="1"/>
        <pt x="127" y="683" on="1"/>
        <pt x="139" y="709" on="0"/>
        <pt x="166" y="709" on="1"/>
        <pt x="173" y="709" on="0"/>
        <pt x="179" y="707" on="1"/>
        <pt x="202" y="698" on="0"/>
        <pt x="202" y="673" on="1"/>
        <pt x="202" y="662" on="0"/>
        <pt x="194" y="651" on="1"/>
      </contour>
      <contour>
        <pt x="677" y="0" on="1"/>
        <pt x="605" y="0" on="1"/>
        <pt x="605" y="343" on="1"/>
        <pt x="319" y="343" on="1"/>
        <pt x="319" y="0" on="1"/>
        <pt x="247" y="0" on="1"/>
        <pt x="247" y="700" on="1"/>
        <pt x="319" y="700" on="1"/>
        <pt x="319" y="413" on="1"/>
        <pt x="605" y="413" on="1"/>
        <pt x="605" y="700" on="1"/>
        <pt x="677" y="700" on="1"/>
      </contour>
    </TTGlyph>
    <TTGlyph name="Eth" xMin="78" yMin="0" xMax="605" yMax="701">
      <contour>
        <pt x="335" y="0" on="1"/>
        <pt x="127" y="0" on="1"/>
        <pt x="127" y="457" on="1"/>
        <pt x="78" y="457" on="1"/>
        <pt x="78" y="527" on="1"/>
        <pt x="127" y="527" on="1"/>
        <pt x="127" y="701" on="1"/>
        <pt x="315" y="701" on="1"/>
        <pt x="412" y="701" on="0"/>
        <pt x="528" y="607" on="0"/>
        <pt x="542" y="527" on="1"/>
        <pt x="605" y="527" on="1"/>
        <pt x="605" y="457" on="1"/>
        <pt x="547" y="457" on="1"/>
        <pt x="547" y="200" on="1"/>
        <pt x="547" y="0" on="0"/>
      </contour>
      <contour>
        <pt x="475" y="190" on="1"/>
        <pt x="475" y="457" on="1"/>
        <pt x="199" y="457" on="1"/>
        <pt x="199" y="65" on="1"/>
        <pt x="319" y="65" on="1"/>
        <pt x="430" y="65" on="0"/>
        <pt x="461" y="124" on="1"/>
        <pt x="475" y="150" on="0"/>
      </contour>
      <contour>
        <pt x="325" y="632" on="1"/>
        <pt x="199" y="632" on="1"/>
        <pt x="199" y="527" on="1"/>
        <pt x="470" y="527" on="1"/>
        <pt x="457" y="580" on="0"/>
        <pt x="377" y="632" on="0"/>
      </contour>
    </TTGlyph>
    <TTGlyph name="Euro" xMin="78" yMin="-12" xMax="496" yMax="708">
      <contour>
        <pt x="207" y="183" on="1"/>
        <pt x="207" y="58" on="0"/>
        <pt x="344" y="58" on="1"/>
        <pt x="403" y="58" on="0"/>
        <pt x="482" y="85" on="1"/>
        <pt x="496" y="21" on="1"/>
        <pt x="411" y="-12" on="0"/>
        <pt x="334" y="-12" on="1"/>
        <pt x="318" y="-12" on="0"/>
        <pt x="253" y="-6" on="0"/>
        <pt x="180" y="33" on="0"/>
        <pt x="135" y="118" on="0"/>
        <pt x="135" y="181" on="1"/>
        <pt x="135" y="236" on="1"/>
        <pt x="78" y="236" on="1"/>
        <pt x="78" y="306" on="1"/>
        <pt x="135" y="306" on="1"/>
        <pt x="135" y="356" on="1"/>
        <pt x="78" y="356" on="1"/>
        <pt x="78" y="426" on="1"/>
        <pt x="135" y="426" on="1"/>
        <pt x="135" y="502" on="1"/>
        <pt x="135" y="578" on="0"/>
        <pt x="178" y="656" on="0"/>
        <pt x="222" y="683" on="1"/>
        <pt x="267" y="708" on="0"/>
        <pt x="329" y="708" on="1"/>
        <pt x="406" y="708" on="0"/>
        <pt x="471" y="675" on="1"/>
        <pt x="450" y="618" on="1"/>
        <pt x="396" y="638" on="0"/>
        <pt x="312" y="638" on="0"/>
        <pt x="255" y="621" on="0"/>
        <pt x="207" y="560" on="0"/>
        <pt x="207" y="511" on="1"/>
        <pt x="207" y="426" on="1"/>
        <pt x="398" y="426" on="1"/>
        <pt x="398" y="356" on="1"/>
        <pt x="207" y="356" on="1"/>
        <pt x="207" y="306" on="1"/>
        <pt x="398" y="306" on="1"/>
        <pt x="398" y="236" on="1"/>
        <pt x="207" y="236" on="1"/>
      </contour>
    </TTGlyph>
    <TTGlyph name="F" xMin="78" yMin="0" xMax="412" yMax="700">
      <contour>
        <pt x="150" y="0" on="1"/>
        <pt x="78" y="0" on="1"/>
        <pt x="78" y="700" on="1"/>
        <pt x="412" y="700" on="1"/>
        <pt x="412" y="630" on="1"/>
        <pt x="150" y="630" on="1"/>
        <pt x="150" y="413" on="1"/>
        <pt x="312" y="413" on="1"/>
        <pt x="285" y="343" on="1"/>
        <pt x="150" y="343" on="1"/>
      </contour>
    </TTGlyph>
    <TTGlyph name="G" xMin="65" yMin="-10" xMax="476" yMax="709">
      <contour>
        <pt x="476" y="0" on="1"/>
        <pt x="416" y="0" on="1"/>
        <pt x="404" y="31" on="1"/>
        <pt x="356" y="-10" on="0"/>
        <pt x="188" y="-10" on="0"/>
        <pt x="65" y="90" on="0"/>
        <pt x="65" y="189" on="1"/>
        <pt x="65" y="503" on="1"/>
        <pt x="65" y="631" on="0"/>
        <pt x="152" y="684" on="1"/>
        <pt x="197" y="709" on="0"/>
        <pt x="259" y="709" on="1"/>
        <pt x="336" y="709" on="0"/>
        <pt x="401" y="676" on="1"/>
        <pt x="380" y="620" on="1"/>
        <pt x="326" y="640" on="0"/>
        <pt x="277" y="640" on="1"/>
        <pt x="137" y="640" on="0"/>
        <pt x="137" y="512" on="1"/>
        <pt x="137" y="187" on="1"/>
        <pt x="137" y="126" on="0"/>
        <pt x="213" y="61" on="0"/>
        <pt x="333" y="61" on="0"/>
        <pt x="406" y="127" on="0"/>
        <pt x="406" y="186" on="1"/>
        <pt x="406" y="230" on="1"/>
        <pt x="343" y="230" on="1"/>
        <pt x="319" y="300" on="1"/>
        <pt x="476" y="300" on="1"/>
      </contour>
    </TTGlyph>
    <TTGlyph name="Gamma" xMin="78" yMin="0" xMax="412" yMax="700">
      <contour>
        <pt x="150" y="0" on="1"/>
        <pt x="78" y="0" on="1"/>
        <pt x="78" y="700" on="1"/>
        <pt x="412" y="700" on="1"/>
        <pt x="412" y="630" on="1"/>
        <pt x="150" y="630" on="1"/>
      </contour>
    </TTGlyph>
    <TTGlyph name="Gbreve" xMin="65" yMin="-10" xMax="476" yMax="846">
      <contour>
        <pt x="476" y="0" on="1"/>
        <pt x="416" y="0" on="1"/>
        <pt x="404" y="31" on="1"/>
        <pt x="356" y="-10" on="0"/>
        <pt x="188" y="-10" on="0"/>
        <pt x="65" y="90" on="0"/>
        <pt x="65" y="189" on="1"/>
        <pt x="65" y="503" on="1"/>
        <pt x="65" y="631" on="0"/>
        <pt x="152" y="684" on="1"/>
        <pt x="197" y="709" on="0"/>
        <pt x="259" y="709" on="1"/>
        <pt x="336" y="709" on="0"/>
        <pt x="401" y="676" on="1"/>
        <pt x="380" y="620" on="1"/>
        <pt x="326" y="640" on="0"/>
        <pt x="277" y="640" on="1"/>
        <pt x="137" y="640" on="0"/>
        <pt x="137" y="512" on="1"/>
        <pt x="137" y="187" on="1"/>
        <pt x="137" y="126" on="0"/>
        <pt x="213" y="61" on="0"/>
        <pt x="333" y="61" on="0"/>
        <pt x="406" y="127" on="0"/>
        <pt x="406" y="186" on="1"/>
        <pt x="406" y="230" on="1"/>
        <pt x="343" y="230" on="1"/>
        <pt x="319" y="300" on="1"/>
        <pt x="476" y="300" on="1"/>
      </contour>
      <contour>
        <pt x="389" y="846" on="1"/>
        <pt x="389" y="841" on="1"/>
        <pt x="389" y="794" on="0"/>
        <pt x="322" y="728" on="0"/>
        <pt x="230" y="728" on="0"/>
        <pt x="163" y="794" on="0"/>
        <pt x="163" y="841" on="1"/>
        <pt x="163" y="846" on="1"/>
        <pt x="219" y="846" on="1"/>
        <pt x="219" y="841" on="1"/>
        <pt x="219" y="816" on="0"/>
        <pt x="252" y="783" on="0"/>
        <pt x="300" y="783" on="0"/>
        <pt x="333" y="816" on="0"/>
        <pt x="333" y="841" on="1"/>
        <pt x="333" y="846" on="1"/>
      </contour>
    </TTGlyph>
    <TTGlyph name="Gcircumflex" xMin="65" yMin="-10" xMax="476" yMax="912">
      <contour>
        <pt x="476" y="0" on="1"/>
        <pt x="416" y="0" on="1"/>
        <pt x="404" y="31" on="1"/>
        <pt x="356" y="-10" on="0"/>
        <pt x="188" y="-10" on="0"/>
        <pt x="65" y="90" on="0"/>
        <pt x="65" y="189" on="1"/>
        <pt x="65" y="503" on="1"/>
        <pt x="65" y="631" on="0"/>
        <pt x="152" y="684" on="1"/>
        <pt x="197" y="709" on="0"/>
        <pt x="259" y="709" on="1"/>
        <pt x="336" y="709" on="0"/>
        <pt x="401" y="676" on="1"/>
        <pt x="380" y="620" on="1"/>
        <pt x="326" y="640" on="0"/>
        <pt x="277" y="640" on="1"/>
        <pt x="137" y="640" on="0"/>
        <pt x="137" y="512" on="1"/>
        <pt x="137" y="187" on="1"/>
        <pt x="137" y="126" on="0"/>
        <pt x="213" y="61" on="0"/>
        <pt x="333" y="61" on="0"/>
        <pt x="406" y="127" on="0"/>
        <pt x="406" y="186" on="1"/>
        <pt x="406" y="230" on="1"/>
        <pt x="343" y="230" on="1"/>
        <pt x="319" y="300" on="1"/>
        <pt x="476" y="300" on="1"/>
      </contour>
      <contour>
        <pt x="426" y="771" on="1"/>
        <pt x="379" y="732" on="1"/>
        <pt x="283" y="830" on="1"/>
        <pt x="182" y="732" on="1"/>
        <pt x="136" y="771" on="1"/>
        <pt x="284" y="912" on="1"/>
      </contour>
    </TTGlyph>
    <TTGlyph name="Gcommaaccent" xMin="65" yMin="-194" xMax="476" yMax="709">
      <contour>
        <pt x="476" y="0" on="1"/>
        <pt x="416" y="0" on="1"/>
        <pt x="404" y="31" on="1"/>
        <pt x="356" y="-10" on="0"/>
        <pt x="188" y="-10" on="0"/>
        <pt x="65" y="90" on="0"/>
        <pt x="65" y="189" on="1"/>
        <pt x="65" y="503" on="1"/>
        <pt x="65" y="631" on="0"/>
        <pt x="152" y="684" on="1"/>
        <pt x="197" y="709" on="0"/>
        <pt x="259" y="709" on="1"/>
        <pt x="336" y="709" on="0"/>
        <pt x="401" y="676" on="1"/>
        <pt x="380" y="620" on="1"/>
        <pt x="326" y="640" on="0"/>
        <pt x="277" y="640" on="1"/>
        <pt x="137" y="640" on="0"/>
        <pt x="137" y="512" on="1"/>
        <pt x="137" y="187" on="1"/>
        <pt x="137" y="126" on="0"/>
        <pt x="213" y="61" on="0"/>
        <pt x="333" y="61" on="0"/>
        <pt x="406" y="127" on="0"/>
        <pt x="406" y="186" on="1"/>
        <pt x="406" y="230" on="1"/>
        <pt x="343" y="230" on="1"/>
        <pt x="319" y="300" on="1"/>
        <pt x="476" y="300" on="1"/>
      </contour>
      <contour>
        <pt x="247" y="-194" on="1"/>
        <pt x="198" y="-166" on="1"/>
        <pt x="241" y="-141" on="0"/>
        <pt x="264" y="-113" on="1"/>
        <pt x="253" y="-110" on="1"/>
        <pt x="231" y="-97" on="0"/>
        <pt x="232" y="-54" on="0"/>
        <pt x="255" y="-34" on="0"/>
        <pt x="263" y="-34" on="1"/>
        <pt x="288" y="-34" on="0"/>
        <pt x="312" y="-63" on="0"/>
        <pt x="312" y="-78" on="1"/>
        <pt x="312" y="-138" on="0"/>
      </contour>
    </TTGlyph>
    <TTGlyph name="Gdotaccent" xMin="85" yMin="-10" xMax="496" yMax="811">
      <contour>
        <pt x="333" y="754" on="0"/>
        <pt x="309" y="729" on="0"/>
        <pt x="276" y="729" on="0"/>
        <pt x="251" y="754" on="0"/>
        <pt x="251" y="787" on="0"/>
        <pt x="276" y="811" on="0"/>
        <pt x="310" y="811" on="0"/>
        <pt x="333" y="788" on="0"/>
      </contour>
      <contour>
        <pt x="496" y="0" on="1"/>
        <pt x="436" y="0" on="1"/>
        <pt x="424" y="31" on="1"/>
        <pt x="376" y="-10" on="0"/>
        <pt x="208" y="-10" on="0"/>
        <pt x="85" y="90" on="0"/>
        <pt x="85" y="189" on="1"/>
        <pt x="85" y="503" on="1"/>
        <pt x="85" y="631" on="0"/>
        <pt x="172" y="684" on="1"/>
        <pt x="217" y="709" on="0"/>
        <pt x="279" y="709" on="1"/>
        <pt x="356" y="709" on="0"/>
        <pt x="421" y="676" on="1"/>
        <pt x="400" y="620" on="1"/>
        <pt x="346" y="640" on="0"/>
        <pt x="297" y="640" on="1"/>
        <pt x="157" y="640" on="0"/>
        <pt x="157" y="512" on="1"/>
        <pt x="157" y="187" on="1"/>
        <pt x="157" y="126" on="0"/>
        <pt x="233" y="61" on="0"/>
        <pt x="353" y="61" on="0"/>
        <pt x="426" y="127" on="0"/>
        <pt x="426" y="186" on="1"/>
        <pt x="426" y="230" on="1"/>
        <pt x="363" y="230" on="1"/>
        <pt x="339" y="300" on="1"/>
        <pt x="496" y="300" on="1"/>
      </contour>
    </TTGlyph>
    <TTGlyph name="H" xMin="78" yMin="0" xMax="508" yMax="700">
      <contour>
        <pt x="508" y="0" on="1"/>
        <pt x="436" y="0" on="1"/>
        <pt x="436" y="343" on="1"/>
        <pt x="150" y="343" on="1"/>
        <pt x="150" y="0" on="1"/>
        <pt x="78" y="0" on="1"/>
        <pt x="78" y="700" on="1"/>
        <pt x="150" y="700" on="1"/>
        <pt x="150" y="413" on="1"/>
        <pt x="436" y="413" on="1"/>
        <pt x="436" y="700" on="1"/>
        <pt x="508" y="700" on="1"/>
      </contour>
    </TTGlyph>
    <TTGlyph name="Hbar" xMin="78" yMin="0" xMax="605" yMax="700">
      <contour>
        <pt x="557" y="0" on="1"/>
        <pt x="485" y="0" on="1"/>
        <pt x="485" y="343" on="1"/>
        <pt x="199" y="343" on="1"/>
        <pt x="199" y="0" on="1"/>
        <pt x="127" y="0" on="1"/>
        <pt x="127" y="480" on="1"/>
        <pt x="78" y="480" on="1"/>
        <pt x="78" y="550" on="1"/>
        <pt x="127" y="550" on="1"/>
        <pt x="127" y="700" on="1"/>
        <pt x="199" y="700" on="1"/>
        <pt x="199" y="550" on="1"/>
        <pt x="485" y="550" on="1"/>
        <pt x="485" y="700" on="1"/>
        <pt x="557" y="700" on="1"/>
        <pt x="557" y="550" on="1"/>
        <pt x="605" y="550" on="1"/>
        <pt x="605" y="480" on="1"/>
        <pt x="557" y="480" on="1"/>
      </contour>
      <contour>
        <pt x="485" y="413" on="1"/>
        <pt x="485" y="480" on="1"/>
        <pt x="199" y="480" on="1"/>
        <pt x="199" y="413" on="1"/>
      </contour>
    </TTGlyph>
    <TTGlyph name="Hcircumflex" xMin="78" yMin="0" xMax="508" yMax="912">
      <contour>
        <pt x="508" y="0" on="1"/>
        <pt x="436" y="0" on="1"/>
        <pt x="436" y="343" on="1"/>
        <pt x="150" y="343" on="1"/>
        <pt x="150" y="0" on="1"/>
        <pt x="78" y="0" on="1"/>
        <pt x="78" y="700" on="1"/>
        <pt x="150" y="700" on="1"/>
        <pt x="150" y="413" on="1"/>
        <pt x="436" y="413" on="1"/>
        <pt x="436" y="700" on="1"/>
        <pt x="508" y="700" on="1"/>
      </contour>
      <contour>
        <pt x="460" y="771" on="1"/>
        <pt x="413" y="732" on="1"/>
        <pt x="317" y="830" on="1"/>
        <pt x="216" y="732" on="1"/>
        <pt x="170" y="771" on="1"/>
        <pt x="318" y="912" on="1"/>
      </contour>
    </TTGlyph>
    <TTGlyph name="I" xMin="64" yMin="0" xMax="202" yMax="700">
      <contour>
        <pt x="202" y="0" on="1"/>
        <pt x="130" y="0" on="1"/>
        <pt x="130" y="632" on="1"/>
        <pt x="64" y="634" on="1"/>
        <pt x="64" y="700" on="1"/>
        <pt x="202" y="700" on="1"/>
      </contour>
    </TTGlyph>
    <TTGlyph name="Iacute" xMin="77" yMin="0" xMax="280" yMax="871">
      <contour>
        <pt x="215" y="0" on="1"/>
        <pt x="143" y="0" on="1"/>
        <pt x="143" y="632" on="1"/>
        <pt x="77" y="634" on="1"/>
        <pt x="77" y="700" on="1"/>
        <pt x="215" y="700" on="1"/>
      </contour>
      <contour>
        <pt x="209" y="730" on="1"/>
        <pt x="156" y="730" on="1"/>
        <pt x="205" y="845" on="1"/>
        <pt x="217" y="871" on="0"/>
        <pt x="244" y="871" on="1"/>
        <pt x="251" y="871" on="0"/>
        <pt x="257" y="869" on="1"/>
        <pt x="280" y="860" on="0"/>
        <pt x="280" y="835" on="1"/>
        <pt x="280" y="824" on="0"/>
        <pt x="272" y="813" on="1"/>
      </contour>
    </TTGlyph>
    <TTGlyph name="Icircumflex" xMin="78" yMin="0" xMax="368" yMax="912">
      <contour>
        <pt x="268" y="0" on="1"/>
        <pt x="196" y="0" on="1"/>
        <pt x="196" y="632" on="1"/>
        <pt x="130" y="634" on="1"/>
        <pt x="130" y="700" on="1"/>
        <pt x="268" y="700" on="1"/>
      </contour>
      <contour>
        <pt x="368" y="771" on="1"/>
        <pt x="321" y="732" on="1"/>
        <pt x="225" y="830" on="1"/>
        <pt x="124" y="732" on="1"/>
        <pt x="78" y="771" on="1"/>
        <pt x="226" y="912" on="1"/>
      </contour>
    </TTGlyph>
    <TTGlyph name="Idieresis" xMin="78" yMin="0" xMax="300" yMax="802">
      <contour>
        <pt x="237" y="0" on="1"/>
        <pt x="165" y="0" on="1"/>
        <pt x="165" y="632" on="1"/>
        <pt x="99" y="634" on="1"/>
        <pt x="99" y="700" on="1"/>
        <pt x="237" y="700" on="1"/>
      </contour>
      <contour>
        <pt x="151" y="780" on="0"/>
        <pt x="151" y="750" on="0"/>
        <pt x="129" y="729" on="0"/>
        <pt x="99" y="729" on="0"/>
        <pt x="78" y="750" on="0"/>
        <pt x="78" y="780" on="0"/>
        <pt x="99" y="802" on="0"/>
        <pt x="129" y="802" on="0"/>
      </contour>
      <contour>
        <pt x="278" y="729" on="0"/>
        <pt x="248" y="729" on="0"/>
        <pt x="227" y="750" on="0"/>
        <pt x="227" y="781" on="0"/>
        <pt x="248" y="802" on="0"/>
        <pt x="278" y="802" on="0"/>
        <pt x="300" y="781" on="0"/>
        <pt x="300" y="750" on="0"/>
      </contour>
    </TTGlyph>
    <TTGlyph name="Idotaccent" xMin="77" yMin="0" xMax="222" yMax="812">
      <contour>
        <pt x="215" y="0" on="1"/>
        <pt x="143" y="0" on="1"/>
        <pt x="143" y="632" on="1"/>
        <pt x="77" y="634" on="1"/>
        <pt x="77" y="700" on="1"/>
        <pt x="215" y="700" on="1"/>
      </contour>
      <contour>
        <pt x="198" y="730" on="0"/>
        <pt x="166" y="730" on="0"/>
        <pt x="140" y="756" on="0"/>
        <pt x="140" y="788" on="0"/>
        <pt x="165" y="812" on="0"/>
        <pt x="198" y="812" on="0"/>
        <pt x="222" y="788" on="0"/>
        <pt x="222" y="755" on="0"/>
      </contour>
    </TTGlyph>
    <TTGlyph name="Igrave" xMin="84" yMin="0" xMax="222" yMax="873">
      <contour>
        <pt x="222" y="0" on="1"/>
        <pt x="150" y="0" on="1"/>
        <pt x="150" y="632" on="1"/>
        <pt x="84" y="634" on="1"/>
        <pt x="84" y="700" on="1"/>
        <pt x="222" y="700" on="1"/>
      </contour>
      <contour>
        <pt x="212" y="732" on="1"/>
        <pt x="159" y="732" on="1"/>
        <pt x="96" y="815" on="1"/>
        <pt x="88" y="826" on="0"/>
        <pt x="88" y="834" on="1"/>
        <pt x="88" y="862" on="0"/>
        <pt x="111" y="871" on="1"/>
        <pt x="117" y="873" on="0"/>
        <pt x="125" y="873" on="1"/>
        <pt x="151" y="873" on="0"/>
        <pt x="162" y="847" on="1"/>
      </contour>
    </TTGlyph>
    <TTGlyph name="Imacron" xMin="78" yMin="0" xMax="294" yMax="798">
      <contour>
        <pt x="247" y="0" on="1"/>
        <pt x="175" y="0" on="1"/>
        <pt x="175" y="632" on="1"/>
        <pt x="109" y="634" on="1"/>
        <pt x="109" y="700" on="1"/>
        <pt x="247" y="700" on="1"/>
      </contour>
      <contour>
        <pt x="294" y="730" on="1"/>
        <pt x="78" y="730" on="1"/>
        <pt x="78" y="798" on="1"/>
        <pt x="294" y="798" on="1"/>
      </contour>
    </TTGlyph>
    <TTGlyph name="Iogonek" xMin="80" yMin="-213" xMax="272" yMax="700">
      <contour>
        <pt x="231" y="-121" on="1"/>
        <pt x="272" y="-163" on="1"/>
        <pt x="240" y="-213" on="0"/>
        <pt x="171" y="-213" on="1"/>
        <pt x="141" y="-213" on="0"/>
        <pt x="80" y="-174" on="0"/>
        <pt x="81" y="-127" on="1"/>
        <pt x="81" y="-61" on="0"/>
        <pt x="176" y="0" on="1"/>
        <pt x="165" y="0" on="1"/>
        <pt x="165" y="632" on="1"/>
        <pt x="99" y="634" on="1"/>
        <pt x="99" y="700" on="1"/>
        <pt x="237" y="700" on="1"/>
        <pt x="237" y="0" on="1"/>
        <pt x="138" y="-82" on="0"/>
        <pt x="137" y="-121" on="1"/>
        <pt x="136" y="-139" on="0"/>
        <pt x="157" y="-160" on="0"/>
        <pt x="174" y="-160" on="1"/>
        <pt x="209" y="-160" on="0"/>
      </contour>
    </TTGlyph>
    <TTGlyph name="Iota" xMin="79" yMin="0" xMax="217" yMax="700">
      <contour>
        <pt x="217" y="0" on="1"/>
        <pt x="145" y="0" on="1"/>
        <pt x="145" y="632" on="1"/>
        <pt x="79" y="634" on="1"/>
        <pt x="79" y="700" on="1"/>
        <pt x="217" y="700" on="1"/>
      </contour>
    </TTGlyph>
    <TTGlyph name="Iotadieresis" xMin="82" yMin="0" xMax="304" yMax="804">
      <contour>
        <pt x="155" y="782" on="0"/>
        <pt x="155" y="752" on="0"/>
        <pt x="133" y="731" on="0"/>
        <pt x="103" y="731" on="0"/>
        <pt x="82" y="752" on="0"/>
        <pt x="82" y="782" on="0"/>
        <pt x="103" y="804" on="0"/>
        <pt x="133" y="804" on="0"/>
      </contour>
      <contour>
        <pt x="282" y="731" on="0"/>
        <pt x="252" y="731" on="0"/>
        <pt x="231" y="752" on="0"/>
        <pt x="231" y="783" on="0"/>
        <pt x="252" y="804" on="0"/>
        <pt x="282" y="804" on="0"/>
        <pt x="304" y="783" on="0"/>
        <pt x="304" y="752" on="0"/>
      </contour>
      <contour>
        <pt x="229" y="0" on="1"/>
        <pt x="157" y="0" on="1"/>
        <pt x="157" y="632" on="1"/>
        <pt x="91" y="634" on="1"/>
        <pt x="91" y="700" on="1"/>
        <pt x="229" y="700" on="1"/>
      </contour>
    </TTGlyph>
    <TTGlyph name="Iotatonos" xMin="78" yMin="0" xMax="372" yMax="709">
      <contour>
        <pt x="372" y="0" on="1"/>
        <pt x="300" y="0" on="1"/>
        <pt x="300" y="632" on="1"/>
        <pt x="234" y="634" on="1"/>
        <pt x="234" y="700" on="1"/>
        <pt x="372" y="700" on="1"/>
      </contour>
      <contour>
        <pt x="131" y="568" on="1"/>
        <pt x="78" y="568" on="1"/>
        <pt x="127" y="683" on="1"/>
        <pt x="139" y="709" on="0"/>
        <pt x="166" y="709" on="1"/>
        <pt x="173" y="709" on="0"/>
        <pt x="179" y="707" on="1"/>
        <pt x="202" y="698" on="0"/>
        <pt x="202" y="673" on="1"/>
        <pt x="202" y="662" on="0"/>
        <pt x="194" y="651" on="1"/>
      </contour>
    </TTGlyph>
    <TTGlyph name="Itilde" xMin="78" yMin="0" xMax="417" yMax="827">
      <contour>
        <pt x="295" y="0" on="1"/>
        <pt x="223" y="0" on="1"/>
        <pt x="223" y="632" on="1"/>
        <pt x="157" y="634" on="1"/>
        <pt x="157" y="700" on="1"/>
        <pt x="295" y="700" on="1"/>
      </contour>
      <contour>
        <pt x="317" y="786" on="1"/>
        <pt x="356" y="786" on="0"/>
        <pt x="387" y="821" on="1"/>
        <pt x="417" y="774" on="1"/>
        <pt x="372" y="721" on="0"/>
        <pt x="321" y="721" on="1"/>
        <pt x="303" y="721" on="0"/>
        <pt x="258" y="740" on="0"/>
        <pt x="208" y="763" on="0"/>
        <pt x="183" y="763" on="1"/>
        <pt x="141" y="763" on="0"/>
        <pt x="107" y="727" on="1"/>
        <pt x="78" y="774" on="1"/>
        <pt x="125" y="827" on="0"/>
        <pt x="178" y="827" on="1"/>
        <pt x="196" y="827" on="0"/>
        <pt x="241" y="809" on="0"/>
        <pt x="292" y="786" on="0"/>
      </contour>
    </TTGlyph>
    <TTGlyph name="J" xMin="5" yMin="-37" xMax="166" yMax="700">
      <contour>
        <pt x="25" y="-37" on="1"/>
        <pt x="5" y="17" on="1"/>
        <pt x="40" y="17" on="0"/>
        <pt x="94" y="66" on="0"/>
        <pt x="94" y="127" on="1"/>
        <pt x="94" y="632" on="1"/>
        <pt x="29" y="634" on="1"/>
        <pt x="29" y="700" on="1"/>
        <pt x="166" y="700" on="1"/>
        <pt x="166" y="124" on="1"/>
        <pt x="166" y="-36" on="0"/>
      </contour>
    </TTGlyph>
    <TTGlyph name="Jcircumflex" xMin="-2" yMin="-37" xMax="228" yMax="846">
      <contour>
        <pt x="18" y="-37" on="1"/>
        <pt x="-2" y="17" on="1"/>
        <pt x="33" y="17" on="0"/>
        <pt x="87" y="66" on="0"/>
        <pt x="87" y="127" on="1"/>
        <pt x="87" y="632" on="1"/>
        <pt x="22" y="634" on="1"/>
        <pt x="22" y="700" on="1"/>
        <pt x="159" y="700" on="1"/>
        <pt x="159" y="124" on="1"/>
        <pt x="159" y="-36" on="0"/>
      </contour>
      <contour>
        <pt x="228" y="846" on="1"/>
        <pt x="228" y="841" on="1"/>
        <pt x="228" y="794" on="0"/>
        <pt x="162" y="728" on="0"/>
        <pt x="68" y="728" on="0"/>
        <pt x="2" y="794" on="0"/>
        <pt x="2" y="841" on="1"/>
        <pt x="2" y="846" on="1"/>
        <pt x="58" y="846" on="1"/>
        <pt x="58" y="841" on="1"/>
        <pt x="58" y="816" on="0"/>
        <pt x="91" y="783" on="0"/>
        <pt x="139" y="783" on="0"/>
        <pt x="172" y="816" on="0"/>
        <pt x="172" y="841" on="1"/>
        <pt x="172" y="846" on="1"/>
      </contour>
    </TTGlyph>
    <TTGlyph name="K" xMin="79" yMin="0" xMax="492" yMax="701">
      <contour>
        <pt x="492" y="0" on="1"/>
        <pt x="404" y="0" on="1"/>
        <pt x="189" y="325" on="1"/>
        <pt x="154" y="269" on="1"/>
        <pt x="154" y="0" on="1"/>
        <pt x="79" y="0" on="1"/>
        <pt x="79" y="701" on="1"/>
        <pt x="154" y="701" on="1"/>
        <pt x="154" y="395" on="1"/>
        <pt x="359" y="701" on="1"/>
        <pt x="444" y="701" on="1"/>
        <pt x="234" y="391" on="1"/>
      </contour>
    </TTGlyph>
    <TTGlyph name="Kappa" xMin="78" yMin="0" xMax="491" yMax="701">
      <contour>
        <pt x="491" y="0" on="1"/>
        <pt x="403" y="0" on="1"/>
        <pt x="188" y="325" on="1"/>
        <pt x="153" y="269" on="1"/>
        <pt x="153" y="0" on="1"/>
        <pt x="78" y="0" on="1"/>
        <pt x="78" y="701" on="1"/>
        <pt x="153" y="701" on="1"/>
        <pt x="153" y="395" on="1"/>
        <pt x="358" y="701" on="1"/>
        <pt x="443" y="701" on="1"/>
        <pt x="233" y="391" on="1"/>
      </contour>
    </TTGlyph>
    <TTGlyph name="Kcommaaccent" xMin="79" yMin="-194" xMax="492" yMax="701">
      <contour>
        <pt x="492" y="0" on="1"/>
        <pt x="404" y="0" on="1"/>
        <pt x="189" y="325" on="1"/>
        <pt x="154" y="269" on="1"/>
        <pt x="154" y="0" on="1"/>
        <pt x="79" y="0" on="1"/>
        <pt x="79" y="701" on="1"/>
        <pt x="154" y="701" on="1"/>
        <pt x="154" y="395" on="1"/>
        <pt x="359" y="701" on="1"/>
        <pt x="444" y="701" on="1"/>
        <pt x="234" y="391" on="1"/>
      </contour>
      <contour>
        <pt x="238" y="-194" on="1"/>
        <pt x="189" y="-166" on="1"/>
        <pt x="232" y="-141" on="0"/>
        <pt x="255" y="-113" on="1"/>
        <pt x="244" y="-110" on="1"/>
        <pt x="222" y="-97" on="0"/>
        <pt x="223" y="-54" on="0"/>
        <pt x="246" y="-34" on="0"/>
        <pt x="254" y="-34" on="1"/>
        <pt x="279" y="-34" on="0"/>
        <pt x="303" y="-63" on="0"/>
        <pt x="303" y="-78" on="1"/>
        <pt x="303" y="-138" on="0"/>
      </contour>
    </TTGlyph>
    <TTGlyph name="L" xMin="78" yMin="0" xMax="439" yMax="700">
      <contour>
        <pt x="439" y="0" on="1"/>
        <pt x="78" y="0" on="1"/>
        <pt x="78" y="700" on="1"/>
        <pt x="150" y="700" on="1"/>
        <pt x="150" y="65" on="1"/>
        <pt x="439" y="65" on="1"/>
      </contour>
    </TTGlyph>
    <TTGlyph name="Lacute" xMin="78" yMin="0" xMax="439" yMax="871">
      <contour>
        <pt x="439" y="0" on="1"/>
        <pt x="78" y="0" on="1"/>
        <pt x="78" y="700" on="1"/>
        <pt x="150" y="700" on="1"/>
        <pt x="150" y="65" on="1"/>
        <pt x="439" y="65" on="1"/>
      </contour>
      <contour>
        <pt x="183" y="730" on="1"/>
        <pt x="130" y="730" on="1"/>
        <pt x="179" y="845" on="1"/>
        <pt x="191" y="871" on="0"/>
        <pt x="218" y="871" on="1"/>
        <pt x="225" y="871" on="0"/>
        <pt x="231" y="869" on="1"/>
        <pt x="254" y="860" on="0"/>
        <pt x="254" y="835" on="1"/>
        <pt x="254" y="824" on="0"/>
        <pt x="246" y="813" on="1"/>
      </contour>
    </TTGlyph>
    <TTGlyph name="Lambda" xMin="15" yMin="0" xMax="520" yMax="700">
      <contour>
        <pt x="520" y="0" on="1"/>
        <pt x="440" y="0" on="1"/>
        <pt x="265" y="565" on="1"/>
        <pt x="93" y="0" on="1"/>
        <pt x="15" y="0" on="1"/>
        <pt x="231" y="700" on="1"/>
        <pt x="299" y="700" on="1"/>
      </contour>
    </TTGlyph>
    <TTGlyph name="Lcaron" xMin="78" yMin="0" xMax="547" yMax="914">
      <contour>
        <pt x="547" y="0" on="1"/>
        <pt x="186" y="0" on="1"/>
        <pt x="186" y="700" on="1"/>
        <pt x="258" y="700" on="1"/>
        <pt x="258" y="65" on="1"/>
        <pt x="547" y="65" on="1"/>
      </contour>
      <contour>
        <pt x="368" y="875" on="1"/>
        <pt x="226" y="734" on="1"/>
        <pt x="78" y="875" on="1"/>
        <pt x="124" y="914" on="1"/>
        <pt x="225" y="817" on="1"/>
        <pt x="321" y="914" on="1"/>
      </contour>
    </TTGlyph>
    <TTGlyph name="Lcommaaccent" xMin="78" yMin="-195" xMax="439" yMax="700">
      <contour>
        <pt x="439" y="0" on="1"/>
        <pt x="78" y="0" on="1"/>
        <pt x="78" y="700" on="1"/>
        <pt x="150" y="700" on="1"/>
        <pt x="150" y="65" on="1"/>
        <pt x="439" y="65" on="1"/>
      </contour>
      <contour>
        <pt x="244" y="-195" on="1"/>
        <pt x="195" y="-167" on="1"/>
        <pt x="238" y="-142" on="0"/>
        <pt x="261" y="-114" on="1"/>
        <pt x="250" y="-111" on="1"/>
        <pt x="228" y="-98" on="0"/>
        <pt x="229" y="-55" on="0"/>
        <pt x="252" y="-35" on="0"/>
        <pt x="260" y="-35" on="1"/>
        <pt x="285" y="-35" on="0"/>
        <pt x="309" y="-64" on="0"/>
        <pt x="309" y="-79" on="1"/>
        <pt x="309" y="-139" on="0"/>
      </contour>
    </TTGlyph>
    <TTGlyph name="Lslash" xMin="78" yMin="0" xMax="557" yMax="700">
      <contour>
        <pt x="557" y="0" on="1"/>
        <pt x="196" y="0" on="1"/>
        <pt x="196" y="340" on="1"/>
        <pt x="104" y="299" on="1"/>
        <pt x="78" y="358" on="1"/>
        <pt x="196" y="411" on="1"/>
        <pt x="196" y="700" on="1"/>
        <pt x="268" y="700" on="1"/>
        <pt x="268" y="443" on="1"/>
        <pt x="369" y="489" on="1"/>
        <pt x="396" y="430" on="1"/>
        <pt x="268" y="372" on="1"/>
        <pt x="268" y="65" on="1"/>
        <pt x="557" y="65" on="1"/>
      </contour>
    </TTGlyph>
    <TTGlyph name="M" xMin="78" yMin="0" xMax="614" yMax="700">
      <contour>
        <pt x="614" y="0" on="1"/>
        <pt x="542" y="0" on="1"/>
        <pt x="542" y="485" on="1"/>
        <pt x="379" y="0" on="1"/>
        <pt x="311" y="0" on="1"/>
        <pt x="150" y="485" on="1"/>
        <pt x="150" y="0" on="1"/>
        <pt x="78" y="0" on="1"/>
        <pt x="78" y="700" on="1"/>
        <pt x="150" y="700" on="1"/>
        <pt x="345" y="131" on="1"/>
        <pt x="542" y="700" on="1"/>
        <pt x="614" y="700" on="1"/>
      </contour>
    </TTGlyph>
    <TTGlyph name="Mu" xMin="80" yMin="0" xMax="616" yMax="700">
      <contour>
        <pt x="616" y="0" on="1"/>
        <pt x="544" y="0" on="1"/>
        <pt x="544" y="485" on="1"/>
        <pt x="381" y="0" on="1"/>
        <pt x="313" y="0" on="1"/>
        <pt x="152" y="485" on="1"/>
        <pt x="152" y="0" on="1"/>
        <pt x="80" y="0" on="1"/>
        <pt x="80" y="700" on="1"/>
        <pt x="152" y="700" on="1"/>
        <pt x="347" y="131" on="1"/>
        <pt x="544" y="700" on="1"/>
        <pt x="616" y="700" on="1"/>
      </contour>
    </TTGlyph>
    <TTGlyph name="N" xMin="78" yMin="0" xMax="570" yMax="700">
      <contour>
        <pt x="570" y="0" on="1"/>
        <pt x="497" y="0" on="1"/>
        <pt x="150" y="560" on="1"/>
        <pt x="150" y="0" on="1"/>
        <pt x="78" y="0" on="1"/>
        <pt x="78" y="700" on="1"/>
        <pt x="150" y="700" on="1"/>
        <pt x="497" y="141" on="1"/>
        <pt x="497" y="700" on="1"/>
        <pt x="570" y="700" on="1"/>
      </contour>
    </TTGlyph>
    <TTGlyph name="Nacute" xMin="78" yMin="0" xMax="570" yMax="871">
      <contour>
        <pt x="570" y="0" on="1"/>
        <pt x="497" y="0" on="1"/>
        <pt x="150" y="560" on="1"/>
        <pt x="150" y="0" on="1"/>
        <pt x="78" y="0" on="1"/>
        <pt x="78" y="700" on="1"/>
        <pt x="150" y="700" on="1"/>
        <pt x="497" y="141" on="1"/>
        <pt x="497" y="700" on="1"/>
        <pt x="570" y="700" on="1"/>
      </contour>
      <contour>
        <pt x="331" y="730" on="1"/>
        <pt x="278" y="730" on="1"/>
        <pt x="327" y="845" on="1"/>
        <pt x="339" y="871" on="0"/>
        <pt x="366" y="871" on="1"/>
        <pt x="373" y="871" on="0"/>
        <pt x="379" y="869" on="1"/>
        <pt x="402" y="860" on="0"/>
        <pt x="402" y="835" on="1"/>
        <pt x="402" y="824" on="0"/>
        <pt x="394" y="813" on="1"/>
      </contour>
    </TTGlyph>
    <TTGlyph name="Ncaron" xMin="78" yMin="0" xMax="570" yMax="914">
      <contour>
        <pt x="570" y="0" on="1"/>
        <pt x="497" y="0" on="1"/>
        <pt x="150" y="560" on="1"/>
        <pt x="150" y="0" on="1"/>
        <pt x="78" y="0" on="1"/>
        <pt x="78" y="700" on="1"/>
        <pt x="150" y="700" on="1"/>
        <pt x="497" y="141" on="1"/>
        <pt x="497" y="700" on="1"/>
        <pt x="570" y="700" on="1"/>
      </contour>
      <contour>
        <pt x="474" y="875" on="1"/>
        <pt x="332" y="734" on="1"/>
        <pt x="184" y="875" on="1"/>
        <pt x="230" y="914" on="1"/>
        <pt x="331" y="817" on="1"/>
        <pt x="427" y="914" on="1"/>
      </contour>
    </TTGlyph>
    <TTGlyph name="Ncommaaccent" xMin="78" yMin="-193" xMax="570" yMax="700">
      <contour>
        <pt x="570" y="0" on="1"/>
        <pt x="497" y="0" on="1"/>
        <pt x="150" y="560" on="1"/>
        <pt x="150" y="0" on="1"/>
        <pt x="78" y="0" on="1"/>
        <pt x="78" y="700" on="1"/>
        <pt x="150" y="700" on="1"/>
        <pt x="497" y="141" on="1"/>
        <pt x="497" y="700" on="1"/>
        <pt x="570" y="700" on="1"/>
      </contour>
      <contour>
        <pt x="314" y="-193" on="1"/>
        <pt x="265" y="-165" on="1"/>
        <pt x="308" y="-140" on="0"/>
        <pt x="331" y="-112" on="1"/>
        <pt x="320" y="-109" on="1"/>
        <pt x="298" y="-96" on="0"/>
        <pt x="299" y="-53" on="0"/>
        <pt x="322" y="-33" on="0"/>
        <pt x="330" y="-33" on="1"/>
        <pt x="355" y="-33" on="0"/>
        <pt x="379" y="-62" on="0"/>
        <pt x="379" y="-77" on="1"/>
        <pt x="379" y="-137" on="0"/>
      </contour>
    </TTGlyph>
    <TTGlyph name="Ntilde" xMin="78" yMin="0" xMax="570" yMax="833">
      <contour>
        <pt x="570" y="0" on="1"/>
        <pt x="497" y="0" on="1"/>
        <pt x="150" y="560" on="1"/>
        <pt x="150" y="0" on="1"/>
        <pt x="78" y="0" on="1"/>
        <pt x="78" y="700" on="1"/>
        <pt x="150" y="700" on="1"/>
        <pt x="497" y="141" on="1"/>
        <pt x="497" y="700" on="1"/>
        <pt x="570" y="700" on="1"/>
      </contour>
      <contour>
        <pt x="397" y="792" on="1"/>
        <pt x="436" y="792" on="0"/>
        <pt x="467" y="827" on="1"/>
        <pt x="497" y="780" on="1"/>
        <pt x="452" y="727" on="0"/>
        <pt x="401" y="727" on="1"/>
        <pt x="383" y="727" on="0"/>
        <pt x="338" y="746" on="0"/>
        <pt x="288" y="769" on="0"/>
        <pt x="263" y="769" on="1"/>
        <pt x="221" y="769" on="0"/>
        <pt x="187" y="733" on="1"/>
        <pt x="158" y="780" on="1"/>
        <pt x="205" y="833" on="0"/>
        <pt x="258" y="833" on="1"/>
        <pt x="276" y="833" on="0"/>
        <pt x="321" y="815" on="0"/>
        <pt x="372" y="792" on="0"/>
      </contour>
    </TTGlyph>
    <TTGlyph name="Nu" xMin="80" yMin="0" xMax="572" yMax="700">
      <contour>
        <pt x="572" y="0" on="1"/>
        <pt x="499" y="0" on="1"/>
        <pt x="152" y="560" on="1"/>
        <pt x="152" y="0" on="1"/>
        <pt x="80" y="0" on="1"/>
        <pt x="80" y="700" on="1"/>
        <pt x="152" y="700" on="1"/>
        <pt x="499" y="141" on="1"/>
        <pt x="499" y="700" on="1"/>
        <pt x="572" y="700" on="1"/>
      </contour>
    </TTGlyph>
    <TTGlyph name="O" xMin="63" yMin="-11" xMax="483" yMax="716">
      <contour>
        <pt x="483" y="506" on="1"/>
        <pt x="483" y="185" on="1"/>
        <pt x="483" y="84" on="0"/>
        <pt x="360" y="-11" on="0"/>
        <pt x="188" y="-11" on="0"/>
        <pt x="63" y="84" on="0"/>
        <pt x="63" y="185" on="1"/>
        <pt x="63" y="507" on="1"/>
        <pt x="63" y="610" on="0"/>
        <pt x="176" y="716" on="0"/>
        <pt x="374" y="716" on="0"/>
        <pt x="483" y="604" on="0"/>
      </contour>
      <contour>
        <pt x="411" y="193" on="1"/>
        <pt x="411" y="502" on="1"/>
        <pt x="411" y="571" on="0"/>
        <pt x="340" y="643" on="0"/>
        <pt x="273" y="643" on="1"/>
        <pt x="135" y="643" on="0"/>
        <pt x="135" y="502" on="1"/>
        <pt x="135" y="191" on="1"/>
        <pt x="135" y="127" on="0"/>
        <pt x="211" y="60" on="0"/>
        <pt x="335" y="60" on="0"/>
        <pt x="411" y="127" on="0"/>
      </contour>
    </TTGlyph>
    <TTGlyph name="OE" xMin="78" yMin="-11" xMax="759" yMax="716">
      <contour>
        <pt x="498" y="185" on="1"/>
        <pt x="497" y="163" on="1"/>
        <pt x="497" y="65" on="1"/>
        <pt x="757" y="65" on="1"/>
        <pt x="757" y="0" on="1"/>
        <pt x="425" y="0" on="1"/>
        <pt x="425" y="28" on="1"/>
        <pt x="371" y="-11" on="0"/>
        <pt x="203" y="-11" on="0"/>
        <pt x="78" y="84" on="0"/>
        <pt x="78" y="185" on="1"/>
        <pt x="78" y="507" on="1"/>
        <pt x="78" y="610" on="0"/>
        <pt x="191" y="716" on="0"/>
        <pt x="371" y="716" on="0"/>
        <pt x="425" y="676" on="1"/>
        <pt x="425" y="700" on="1"/>
        <pt x="759" y="700" on="1"/>
        <pt x="759" y="631" on="1"/>
        <pt x="497" y="631" on="1"/>
        <pt x="497" y="534" on="1"/>
        <pt x="498" y="525" on="0"/>
        <pt x="498" y="506" on="1"/>
        <pt x="498" y="413" on="1"/>
        <pt x="672" y="413" on="1"/>
        <pt x="649" y="343" on="1"/>
        <pt x="498" y="343" on="1"/>
      </contour>
      <contour>
        <pt x="425" y="173" on="1"/>
        <pt x="425" y="522" on="1"/>
        <pt x="414" y="643" on="0"/>
        <pt x="288" y="643" on="1"/>
        <pt x="150" y="643" on="0"/>
        <pt x="150" y="502" on="1"/>
        <pt x="150" y="191" on="1"/>
        <pt x="150" y="127" on="0"/>
        <pt x="226" y="60" on="0"/>
        <pt x="345" y="60" on="0"/>
        <pt x="419" y="117" on="0"/>
      </contour>
    </TTGlyph>
    <TTGlyph name="Oacute" xMin="63" yMin="-11" xMax="483" yMax="871">
      <contour>
        <pt x="483" y="506" on="1"/>
        <pt x="483" y="185" on="1"/>
        <pt x="483" y="84" on="0"/>
        <pt x="360" y="-11" on="0"/>
        <pt x="188" y="-11" on="0"/>
        <pt x="63" y="84" on="0"/>
        <pt x="63" y="185" on="1"/>
        <pt x="63" y="507" on="1"/>
        <pt x="63" y="610" on="0"/>
        <pt x="176" y="716" on="0"/>
        <pt x="374" y="716" on="0"/>
        <pt x="483" y="604" on="0"/>
      </contour>
      <contour>
        <pt x="411" y="193" on="1"/>
        <pt x="411" y="502" on="1"/>
        <pt x="411" y="571" on="0"/>
        <pt x="340" y="643" on="0"/>
        <pt x="273" y="643" on="1"/>
        <pt x="135" y="643" on="0"/>
        <pt x="135" y="502" on="1"/>
        <pt x="135" y="191" on="1"/>
        <pt x="135" y="127" on="0"/>
        <pt x="211" y="60" on="0"/>
        <pt x="335" y="60" on="0"/>
        <pt x="411" y="127" on="0"/>
      </contour>
      <contour>
        <pt x="310" y="730" on="1"/>
        <pt x="257" y="730" on="1"/>
        <pt x="306" y="845" on="1"/>
        <pt x="318" y="871" on="0"/>
        <pt x="345" y="871" on="1"/>
        <pt x="352" y="871" on="0"/>
        <pt x="358" y="869" on="1"/>
        <pt x="381" y="860" on="0"/>
        <pt x="381" y="835" on="1"/>
        <pt x="381" y="824" on="0"/>
        <pt x="373" y="813" on="1"/>
      </contour>
    </TTGlyph>
    <TTGlyph name="Ocircumflex" xMin="63" yMin="-11" xMax="483" yMax="912">
      <contour>
        <pt x="483" y="506" on="1"/>
        <pt x="483" y="185" on="1"/>
        <pt x="483" y="84" on="0"/>
        <pt x="360" y="-11" on="0"/>
        <pt x="188" y="-11" on="0"/>
        <pt x="63" y="84" on="0"/>
        <pt x="63" y="185" on="1"/>
        <pt x="63" y="507" on="1"/>
        <pt x="63" y="610" on="0"/>
        <pt x="176" y="716" on="0"/>
        <pt x="374" y="716" on="0"/>
        <pt x="483" y="604" on="0"/>
      </contour>
      <contour>
        <pt x="411" y="193" on="1"/>
        <pt x="411" y="502" on="1"/>
        <pt x="411" y="571" on="0"/>
        <pt x="340" y="643" on="0"/>
        <pt x="273" y="643" on="1"/>
        <pt x="135" y="643" on="0"/>
        <pt x="135" y="502" on="1"/>
        <pt x="135" y="191" on="1"/>
        <pt x="135" y="127" on="0"/>
        <pt x="211" y="60" on="0"/>
        <pt x="335" y="60" on="0"/>
        <pt x="411" y="127" on="0"/>
      </contour>
      <contour>
        <pt x="421" y="771" on="1"/>
        <pt x="374" y="732" on="1"/>
        <pt x="278" y="830" on="1"/>
        <pt x="177" y="732" on="1"/>
        <pt x="131" y="771" on="1"/>
        <pt x="279" y="912" on="1"/>
      </contour>
    </TTGlyph>
    <TTGlyph name="Odieresis" xMin="63" yMin="-11" xMax="483" yMax="804">
      <contour>
        <pt x="483" y="506" on="1"/>
        <pt x="483" y="185" on="1"/>
        <pt x="483" y="84" on="0"/>
        <pt x="360" y="-11" on="0"/>
        <pt x="188" y="-11" on="0"/>
        <pt x="63" y="84" on="0"/>
        <pt x="63" y="185" on="1"/>
        <pt x="63" y="507" on="1"/>
        <pt x="63" y="610" on="0"/>
        <pt x="176" y="716" on="0"/>
        <pt x="374" y="716" on="0"/>
        <pt x="483" y="604" on="0"/>
      </contour>
      <contour>
        <pt x="411" y="193" on="1"/>
        <pt x="411" y="502" on="1"/>
        <pt x="411" y="571" on="0"/>
        <pt x="340" y="643" on="0"/>
        <pt x="273" y="643" on="1"/>
        <pt x="135" y="643" on="0"/>
        <pt x="135" y="502" on="1"/>
        <pt x="135" y="191" on="1"/>
        <pt x="135" y="127" on="0"/>
        <pt x="211" y="60" on="0"/>
        <pt x="335" y="60" on="0"/>
        <pt x="411" y="127" on="0"/>
      </contour>
      <contour>
        <pt x="233" y="782" on="0"/>
        <pt x="233" y="752" on="0"/>
        <pt x="211" y="731" on="0"/>
        <pt x="181" y="731" on="0"/>
        <pt x="160" y="752" on="0"/>
        <pt x="160" y="782" on="0"/>
        <pt x="181" y="804" on="0"/>
        <pt x="211" y="804" on="0"/>
      </contour>
      <contour>
        <pt x="360" y="731" on="0"/>
        <pt x="330" y="731" on="0"/>
        <pt x="309" y="752" on="0"/>
        <pt x="309" y="783" on="0"/>
        <pt x="330" y="804" on="0"/>
        <pt x="360" y="804" on="0"/>
        <pt x="382" y="783" on="0"/>
        <pt x="382" y="752" on="0"/>
      </contour>
    </TTGlyph>
    <TTGlyph name="Ograve" xMin="63" yMin="-11" xMax="483" yMax="873">
      <contour>
        <pt x="483" y="506" on="1"/>
        <pt x="483" y="185" on="1"/>
        <pt x="483" y="84" on="0"/>
        <pt x="360" y="-11" on="0"/>
        <pt x="188" y="-11" on="0"/>
        <pt x="63" y="84" on="0"/>
        <pt x="63" y="185" on="1"/>
        <pt x="63" y="507" on="1"/>
        <pt x="63" y="610" on="0"/>
        <pt x="176" y="716" on="0"/>
        <pt x="374" y="716" on="0"/>
        <pt x="483" y="604" on="0"/>
      </contour>
      <contour>
        <pt x="411" y="193" on="1"/>
        <pt x="411" y="502" on="1"/>
        <pt x="411" y="571" on="0"/>
        <pt x="340" y="643" on="0"/>
        <pt x="273" y="643" on="1"/>
        <pt x="135" y="643" on="0"/>
        <pt x="135" y="502" on="1"/>
        <pt x="135" y="191" on="1"/>
        <pt x="135" y="127" on="0"/>
        <pt x="211" y="60" on="0"/>
        <pt x="335" y="60" on="0"/>
        <pt x="411" y="127" on="0"/>
      </contour>
      <contour>
        <pt x="294" y="732" on="1"/>
        <pt x="241" y="732" on="1"/>
        <pt x="178" y="815" on="1"/>
        <pt x="170" y="826" on="0"/>
        <pt x="170" y="834" on="1"/>
        <pt x="170" y="862" on="0"/>
        <pt x="193" y="871" on="1"/>
        <pt x="199" y="873" on="0"/>
        <pt x="207" y="873" on="1"/>
        <pt x="233" y="873" on="0"/>
        <pt x="244" y="847" on="1"/>
      </contour>
    </TTGlyph>
    <TTGlyph name="Ohungarumlaut" xMin="63" yMin="-11" xMax="483" yMax="873">
      <contour>
        <pt x="483" y="506" on="1"/>
        <pt x="483" y="185" on="1"/>
        <pt x="483" y="84" on="0"/>
        <pt x="360" y="-11" on="0"/>
        <pt x="188" y="-11" on="0"/>
        <pt x="63" y="84" on="0"/>
        <pt x="63" y="185" on="1"/>
        <pt x="63" y="507" on="1"/>
        <pt x="63" y="610" on="0"/>
        <pt x="176" y="716" on="0"/>
        <pt x="374" y="716" on="0"/>
        <pt x="483" y="604" on="0"/>
      </contour>
      <contour>
        <pt x="411" y="193" on="1"/>
        <pt x="411" y="502" on="1"/>
        <pt x="411" y="571" on="0"/>
        <pt x="340" y="643" on="0"/>
        <pt x="273" y="643" on="1"/>
        <pt x="135" y="643" on="0"/>
        <pt x="135" y="502" on="1"/>
        <pt x="135" y="191" on="1"/>
        <pt x="135" y="127" on="0"/>
        <pt x="211" y="60" on="0"/>
        <pt x="335" y="60" on="0"/>
        <pt x="411" y="127" on="0"/>
      </contour>
      <contour>
        <pt x="349" y="732" on="1"/>
        <pt x="296" y="732" on="1"/>
        <pt x="345" y="847" on="1"/>
        <pt x="357" y="873" on="0"/>
        <pt x="384" y="873" on="1"/>
        <pt x="391" y="873" on="0"/>
        <pt x="397" y="871" on="1"/>
        <pt x="420" y="862" on="0"/>
        <pt x="420" y="837" on="1"/>
        <pt x="420" y="826" on="0"/>
        <pt x="412" y="815" on="1"/>
      </contour>
      <contour>
        <pt x="229" y="732" on="1"/>
        <pt x="176" y="732" on="1"/>
        <pt x="225" y="847" on="1"/>
        <pt x="237" y="873" on="0"/>
        <pt x="264" y="873" on="1"/>
        <pt x="271" y="873" on="0"/>
        <pt x="277" y="871" on="1"/>
        <pt x="300" y="862" on="0"/>
        <pt x="300" y="837" on="1"/>
        <pt x="300" y="826" on="0"/>
        <pt x="292" y="815" on="1"/>
      </contour>
    </TTGlyph>
    <TTGlyph name="Omacron" xMin="63" yMin="-11" xMax="483" yMax="798">
      <contour>
        <pt x="483" y="506" on="1"/>
        <pt x="483" y="185" on="1"/>
        <pt x="483" y="84" on="0"/>
        <pt x="360" y="-11" on="0"/>
        <pt x="188" y="-11" on="0"/>
        <pt x="63" y="84" on="0"/>
        <pt x="63" y="185" on="1"/>
        <pt x="63" y="507" on="1"/>
        <pt x="63" y="610" on="0"/>
        <pt x="176" y="716" on="0"/>
        <pt x="374" y="716" on="0"/>
        <pt x="483" y="604" on="0"/>
      </contour>
      <contour>
        <pt x="411" y="193" on="1"/>
        <pt x="411" y="502" on="1"/>
        <pt x="411" y="571" on="0"/>
        <pt x="340" y="643" on="0"/>
        <pt x="273" y="643" on="1"/>
        <pt x="135" y="643" on="0"/>
        <pt x="135" y="502" on="1"/>
        <pt x="135" y="191" on="1"/>
        <pt x="135" y="127" on="0"/>
        <pt x="211" y="60" on="0"/>
        <pt x="335" y="60" on="0"/>
        <pt x="411" y="127" on="0"/>
      </contour>
      <contour>
        <pt x="377" y="730" on="1"/>
        <pt x="160" y="730" on="1"/>
        <pt x="160" y="798" on="1"/>
        <pt x="377" y="798" on="1"/>
      </contour>
    </TTGlyph>
    <TTGlyph name="Omega" xMin="78" yMin="0" xMax="592" yMax="707">
      <contour>
        <pt x="592" y="0" on="1"/>
        <pt x="364" y="0" on="1"/>
        <pt x="364" y="66" on="1"/>
        <pt x="382" y="66" on="0"/>
        <pt x="409" y="74" on="0"/>
        <pt x="440" y="81" on="0"/>
        <pt x="453" y="89" on="0"/>
        <pt x="477" y="103" on="0"/>
        <pt x="488" y="121" on="0"/>
        <pt x="495" y="133" on="1"/>
        <pt x="507" y="154" on="0"/>
        <pt x="507" y="196" on="1"/>
        <pt x="507" y="500" on="1"/>
        <pt x="507" y="564" on="0"/>
        <pt x="441" y="636" on="0"/>
        <pt x="386" y="636" on="1"/>
        <pt x="285" y="636" on="1"/>
        <pt x="228" y="636" on="0"/>
        <pt x="163" y="567" on="0"/>
        <pt x="163" y="500" on="1"/>
        <pt x="163" y="196" on="1"/>
        <pt x="163" y="154" on="0"/>
        <pt x="182" y="121" on="0"/>
        <pt x="193" y="103" on="0"/>
        <pt x="217" y="89" on="0"/>
        <pt x="230" y="81" on="0"/>
        <pt x="261" y="74" on="0"/>
        <pt x="266" y="72" on="1"/>
        <pt x="288" y="66" on="0"/>
        <pt x="306" y="66" on="1"/>
        <pt x="306" y="0" on="1"/>
        <pt x="78" y="0" on="1"/>
        <pt x="95" y="66" on="1"/>
        <pt x="146" y="66" on="1"/>
        <pt x="91" y="106" on="0"/>
        <pt x="91" y="196" on="1"/>
        <pt x="91" y="503" on="1"/>
        <pt x="91" y="595" on="0"/>
        <pt x="185" y="707" on="0"/>
        <pt x="279" y="707" on="1"/>
        <pt x="391" y="707" on="1"/>
        <pt x="485" y="707" on="0"/>
        <pt x="579" y="595" on="0"/>
        <pt x="579" y="503" on="1"/>
        <pt x="579" y="196" on="1"/>
        <pt x="579" y="144" on="0"/>
        <pt x="548" y="87" on="0"/>
        <pt x="521" y="66" on="1"/>
        <pt x="575" y="66" on="1"/>
      </contour>
    </TTGlyph>
    <TTGlyph name="Omegatonos" xMin="78" yMin="0" xMax="686" yMax="709">
      <contour>
        <pt x="686" y="0" on="1"/>
        <pt x="458" y="0" on="1"/>
        <pt x="458" y="66" on="1"/>
        <pt x="476" y="66" on="0"/>
        <pt x="503" y="74" on="0"/>
        <pt x="534" y="81" on="0"/>
        <pt x="547" y="89" on="0"/>
        <pt x="571" y="103" on="0"/>
        <pt x="582" y="121" on="0"/>
        <pt x="589" y="133" on="1"/>
        <pt x="601" y="154" on="0"/>
        <pt x="601" y="196" on="1"/>
        <pt x="601" y="500" on="1"/>
        <pt x="601" y="564" on="0"/>
        <pt x="535" y="636" on="0"/>
        <pt x="480" y="636" on="1"/>
        <pt x="379" y="636" on="1"/>
        <pt x="322" y="636" on="0"/>
        <pt x="257" y="567" on="0"/>
        <pt x="257" y="500" on="1"/>
        <pt x="257" y="196" on="1"/>
        <pt x="257" y="154" on="0"/>
        <pt x="276" y="121" on="0"/>
        <pt x="287" y="103" on="0"/>
        <pt x="311" y="89" on="0"/>
        <pt x="324" y="81" on="0"/>
        <pt x="355" y="74" on="0"/>
        <pt x="360" y="72" on="1"/>
        <pt x="382" y="66" on="0"/>
        <pt x="400" y="66" on="1"/>
        <pt x="400" y="0" on="1"/>
        <pt x="172" y="0" on="1"/>
        <pt x="189" y="66" on="1"/>
        <pt x="240" y="66" on="1"/>
        <pt x="185" y="106" on="0"/>
        <pt x="185" y="196" on="1"/>
        <pt x="185" y="503" on="1"/>
        <pt x="185" y="595" on="0"/>
        <pt x="279" y="707" on="0"/>
        <pt x="373" y="707" on="1"/>
        <pt x="485" y="707" on="1"/>
        <pt x="579" y="707" on="0"/>
        <pt x="673" y="595" on="0"/>
        <pt x="673" y="503" on="1"/>
        <pt x="673" y="196" on="1"/>
        <pt x="673" y="144" on="0"/>
        <pt x="642" y="87" on="0"/>
        <pt x="615" y="66" on="1"/>
        <pt x="669" y="66" on="1"/>
      </contour>
      <contour>
        <pt x="131" y="568" on="1"/>
        <pt x="78" y="568" on="1"/>
        <pt x="127" y="683" on="1"/>
        <pt x="139" y="709" on="0"/>
        <pt x="166" y="709" on="1"/>
        <pt x="173" y="709" on="0"/>
        <pt x="179" y="707" on="1"/>
        <pt x="202" y="698" on="0"/>
        <pt x="202" y="673" on="1"/>
        <pt x="202" y="662" on="0"/>
        <pt x="194" y="651" on="1"/>
      </contour>
    </TTGlyph>
    <TTGlyph name="Omicron" xMin="62" yMin="-11" xMax="482" yMax="716">
      <contour>
        <pt x="482" y="506" on="1"/>
        <pt x="482" y="185" on="1"/>
        <pt x="482" y="84" on="0"/>
        <pt x="359" y="-11" on="0"/>
        <pt x="187" y="-11" on="0"/>
        <pt x="62" y="84" on="0"/>
        <pt x="62" y="185" on="1"/>
        <pt x="62" y="507" on="1"/>
        <pt x="62" y="610" on="0"/>
        <pt x="175" y="716" on="0"/>
        <pt x="373" y="716" on="0"/>
        <pt x="482" y="604" on="0"/>
      </contour>
      <contour>
        <pt x="410" y="193" on="1"/>
        <pt x="410" y="502" on="1"/>
        <pt x="410" y="571" on="0"/>
        <pt x="339" y="643" on="0"/>
        <pt x="272" y="643" on="1"/>
        <pt x="134" y="643" on="0"/>
        <pt x="134" y="502" on="1"/>
        <pt x="134" y="191" on="1"/>
        <pt x="134" y="127" on="0"/>
        <pt x="210" y="60" on="0"/>
        <pt x="334" y="60" on="0"/>
        <pt x="410" y="127" on="0"/>
      </contour>
    </TTGlyph>
    <TTGlyph name="Omicrontonos" xMin="78" yMin="-11" xMax="615" yMax="716">
      <contour>
        <pt x="615" y="506" on="1"/>
        <pt x="615" y="185" on="1"/>
        <pt x="615" y="84" on="0"/>
        <pt x="492" y="-11" on="0"/>
        <pt x="320" y="-11" on="0"/>
        <pt x="195" y="84" on="0"/>
        <pt x="195" y="185" on="1"/>
        <pt x="195" y="507" on="1"/>
        <pt x="195" y="610" on="0"/>
        <pt x="308" y="716" on="0"/>
        <pt x="506" y="716" on="0"/>
        <pt x="615" y="604" on="0"/>
      </contour>
      <contour>
        <pt x="543" y="193" on="1"/>
        <pt x="543" y="502" on="1"/>
        <pt x="543" y="571" on="0"/>
        <pt x="472" y="643" on="0"/>
        <pt x="405" y="643" on="1"/>
        <pt x="267" y="643" on="0"/>
        <pt x="267" y="502" on="1"/>
        <pt x="267" y="191" on="1"/>
        <pt x="267" y="127" on="0"/>
        <pt x="343" y="60" on="0"/>
        <pt x="467" y="60" on="0"/>
        <pt x="543" y="127" on="0"/>
      </contour>
      <contour>
        <pt x="131" y="568" on="1"/>
        <pt x="78" y="568" on="1"/>
        <pt x="127" y="683" on="1"/>
        <pt x="139" y="709" on="0"/>
        <pt x="166" y="709" on="1"/>
        <pt x="173" y="709" on="0"/>
        <pt x="179" y="707" on="1"/>
        <pt x="202" y="698" on="0"/>
        <pt x="202" y="673" on="1"/>
        <pt x="202" y="662" on="0"/>
        <pt x="194" y="651" on="1"/>
      </contour>
    </TTGlyph>
    <TTGlyph name="Oslash" xMin="80" yMin="-114" xMax="500" yMax="817">
      <contour>
        <pt x="171" y="-114" on="1"/>
        <pt x="94" y="-114" on="1"/>
        <pt x="145" y="34" on="1"/>
        <pt x="80" y="86" on="0"/>
        <pt x="80" y="185" on="1"/>
        <pt x="80" y="507" on="1"/>
        <pt x="80" y="610" on="0"/>
        <pt x="193" y="716" on="0"/>
        <pt x="292" y="716" on="1"/>
        <pt x="339" y="716" on="0"/>
        <pt x="378" y="702" on="1"/>
        <pt x="418" y="817" on="1"/>
        <pt x="494" y="817" on="1"/>
        <pt x="441" y="664" on="1"/>
        <pt x="500" y="608" on="0"/>
        <pt x="500" y="506" on="1"/>
        <pt x="500" y="185" on="1"/>
        <pt x="500" y="84" on="0"/>
        <pt x="377" y="-11" on="0"/>
        <pt x="291" y="-11" on="1"/>
        <pt x="251" y="-11" on="0"/>
        <pt x="210" y="0" on="1"/>
      </contour>
      <contour>
        <pt x="173" y="113" on="1"/>
        <pt x="353" y="632" on="1"/>
        <pt x="325" y="643" on="0"/>
        <pt x="290" y="643" on="1"/>
        <pt x="152" y="643" on="0"/>
        <pt x="152" y="502" on="1"/>
        <pt x="152" y="191" on="1"/>
        <pt x="152" y="143" on="0"/>
      </contour>
      <contour>
        <pt x="428" y="193" on="1"/>
        <pt x="428" y="502" on="1"/>
        <pt x="428" y="546" on="0"/>
        <pt x="412" y="580" on="1"/>
        <pt x="234" y="68" on="1"/>
        <pt x="261" y="60" on="0"/>
        <pt x="290" y="60" on="1"/>
        <pt x="352" y="60" on="0"/>
        <pt x="428" y="127" on="0"/>
      </contour>
    </TTGlyph>
    <TTGlyph name="Otilde" xMin="63" yMin="-11" xMax="483" yMax="834">
      <contour>
        <pt x="483" y="506" on="1"/>
        <pt x="483" y="185" on="1"/>
        <pt x="483" y="84" on="0"/>
        <pt x="360" y="-11" on="0"/>
        <pt x="188" y="-11" on="0"/>
        <pt x="63" y="84" on="0"/>
        <pt x="63" y="185" on="1"/>
        <pt x="63" y="507" on="1"/>
        <pt x="63" y="610" on="0"/>
        <pt x="176" y="716" on="0"/>
        <pt x="374" y="716" on="0"/>
        <pt x="483" y="604" on="0"/>
      </contour>
      <contour>
        <pt x="411" y="193" on="1"/>
        <pt x="411" y="502" on="1"/>
        <pt x="411" y="571" on="0"/>
        <pt x="340" y="643" on="0"/>
        <pt x="273" y="643" on="1"/>
        <pt x="135" y="643" on="0"/>
        <pt x="135" y="502" on="1"/>
        <pt x="135" y="191" on="1"/>
        <pt x="135" y="127" on="0"/>
        <pt x="211" y="60" on="0"/>
        <pt x="335" y="60" on="0"/>
        <pt x="411" y="127" on="0"/>
      </contour>
      <contour>
        <pt x="350" y="793" on="1"/>
        <pt x="389" y="793" on="0"/>
        <pt x="420" y="828" on="1"/>
        <pt x="450" y="781" on="1"/>
        <pt x="405" y="728" on="0"/>
        <pt x="354" y="728" on="1"/>
        <pt x="336" y="728" on="0"/>
        <pt x="291" y="747" on="0"/>
        <pt x="241" y="770" on="0"/>
        <pt x="216" y="770" on="1"/>
        <pt x="174" y="770" on="0"/>
        <pt x="140" y="734" on="1"/>
        <pt x="111" y="781" on="1"/>
        <pt x="158" y="834" on="0"/>
        <pt x="211" y="834" on="1"/>
        <pt x="229" y="834" on="0"/>
        <pt x="274" y="816" on="0"/>
        <pt x="325" y="793" on="0"/>
      </contour>
    </TTGlyph>
    <TTGlyph name="P" xMin="78" yMin="0" xMax="512" yMax="700">
      <contour>
        <pt x="150" y="300" on="1"/>
        <pt x="317" y="300" on="1"/>
        <pt x="353" y="300" on="0"/>
        <pt x="403" y="328" on="0"/>
        <pt x="426" y="360" on="0"/>
        <pt x="439" y="420" on="0"/>
        <pt x="440" y="450" on="0"/>
        <pt x="440" y="478" on="1"/>
        <pt x="440" y="630" on="0"/>
        <pt x="313" y="630" on="1"/>
        <pt x="150" y="630" on="1"/>
      </contour>
      <contour>
        <pt x="150" y="0" on="1"/>
        <pt x="78" y="0" on="1"/>
        <pt x="78" y="700" on="1"/>
        <pt x="319" y="700" on="1"/>
        <pt x="417" y="700" on="0"/>
        <pt x="512" y="578" on="0"/>
        <pt x="512" y="479" on="1"/>
        <pt x="512" y="444" on="0"/>
        <pt x="508" y="393" on="0"/>
        <pt x="487" y="316" on="0"/>
        <pt x="451" y="267" on="0"/>
        <pt x="377" y="230" on="0"/>
        <pt x="326" y="230" on="1"/>
        <pt x="150" y="230" on="1"/>
      </contour>
    </TTGlyph>
    <TTGlyph name="Phi" xMin="78" yMin="-35" xMax="605" yMax="711">
      <contour>
        <pt x="376" y="-35" on="1"/>
        <pt x="302" y="-22" on="1"/>
        <pt x="302" y="26" on="1"/>
        <pt x="266" y="26" on="1"/>
        <pt x="78" y="26" on="0"/>
        <pt x="78" y="225" on="1"/>
        <pt x="78" y="517" on="1"/>
        <pt x="78" y="669" on="0"/>
        <pt x="194" y="706" on="1"/>
        <pt x="232" y="649" on="1"/>
        <pt x="192" y="638" on="0"/>
        <pt x="150" y="577" on="0"/>
        <pt x="150" y="517" on="1"/>
        <pt x="150" y="226" on="1"/>
        <pt x="150" y="87" on="0"/>
        <pt x="266" y="87" on="1"/>
        <pt x="302" y="87" on="1"/>
        <pt x="302" y="605" on="1"/>
        <pt x="305" y="655" on="0"/>
        <pt x="370" y="711" on="0"/>
        <pt x="418" y="711" on="1"/>
        <pt x="505" y="711" on="0"/>
        <pt x="605" y="602" on="0"/>
        <pt x="605" y="511" on="1"/>
        <pt x="605" y="225" on="1"/>
        <pt x="605" y="26" on="0"/>
        <pt x="417" y="26" on="1"/>
        <pt x="376" y="26" on="1"/>
      </contour>
      <contour>
        <pt x="532" y="226" on="1"/>
        <pt x="532" y="501" on="1"/>
        <pt x="532" y="571" on="0"/>
        <pt x="472" y="641" on="0"/>
        <pt x="430" y="641" on="1"/>
        <pt x="376" y="641" on="0"/>
        <pt x="376" y="581" on="1"/>
        <pt x="376" y="87" on="1"/>
        <pt x="417" y="87" on="1"/>
        <pt x="532" y="87" on="0"/>
      </contour>
    </TTGlyph>
    <TTGlyph name="Pi" xMin="80" yMin="0" xMax="510" yMax="700">
      <contour>
        <pt x="510" y="0" on="1"/>
        <pt x="438" y="0" on="1"/>
        <pt x="438" y="628" on="1"/>
        <pt x="152" y="628" on="1"/>
        <pt x="152" y="0" on="1"/>
        <pt x="80" y="0" on="1"/>
        <pt x="80" y="700" on="1"/>
        <pt x="510" y="700" on="1"/>
      </contour>
    </TTGlyph>
    <TTGlyph name="Psi" xMin="59" yMin="0" xMax="586" yMax="709">
      <contour>
        <pt x="357" y="0" on="1"/>
        <pt x="284" y="0" on="1"/>
        <pt x="283" y="212" on="1"/>
        <pt x="247" y="212" on="1"/>
        <pt x="152" y="212" on="0"/>
        <pt x="59" y="315" on="0"/>
        <pt x="59" y="406" on="1"/>
        <pt x="59" y="700" on="1"/>
        <pt x="131" y="700" on="1"/>
        <pt x="131" y="409" on="1"/>
        <pt x="131" y="276" on="0"/>
        <pt x="247" y="276" on="1"/>
        <pt x="283" y="276" on="1"/>
        <pt x="283" y="700" on="1"/>
        <pt x="357" y="700" on="1"/>
        <pt x="357" y="276" on="1"/>
        <pt x="398" y="276" on="1"/>
        <pt x="514" y="276" on="0"/>
        <pt x="514" y="410" on="1"/>
        <pt x="514" y="564" on="1"/>
        <pt x="514" y="604" on="0"/>
        <pt x="499" y="655" on="0"/>
        <pt x="487" y="667" on="0"/>
        <pt x="468" y="685" on="1"/>
        <pt x="530" y="709" on="1"/>
        <pt x="557" y="692" on="0"/>
        <pt x="583" y="633" on="0"/>
        <pt x="586" y="591" on="0"/>
        <pt x="586" y="549" on="1"/>
        <pt x="586" y="406" on="1"/>
        <pt x="586" y="315" on="0"/>
        <pt x="493" y="212" on="0"/>
        <pt x="398" y="212" on="1"/>
        <pt x="357" y="212" on="1"/>
      </contour>
    </TTGlyph>
    <TTGlyph name="Q" xMin="63" yMin="-101" xMax="483" yMax="716">
      <contour>
        <pt x="429" y="-35" on="1"/>
        <pt x="425" y="-101" on="1"/>
        <pt x="424" y="-101" on="0"/>
        <pt x="422" y="-101" on="1"/>
        <pt x="299" y="-101" on="0"/>
        <pt x="257" y="-10" on="1"/>
        <pt x="181" y="-6" on="0"/>
        <pt x="127" y="35" on="1"/>
        <pt x="98" y="57" on="0"/>
        <pt x="63" y="134" on="0"/>
        <pt x="63" y="185" on="1"/>
        <pt x="63" y="507" on="1"/>
        <pt x="63" y="610" on="0"/>
        <pt x="176" y="716" on="0"/>
        <pt x="374" y="716" on="0"/>
        <pt x="483" y="604" on="0"/>
        <pt x="483" y="506" on="1"/>
        <pt x="483" y="185" on="1"/>
        <pt x="483" y="99" on="0"/>
        <pt x="395" y="6" on="0"/>
        <pt x="330" y="-5" on="1"/>
        <pt x="355" y="-35" on="0"/>
      </contour>
      <contour>
        <pt x="411" y="187" on="1"/>
        <pt x="411" y="513" on="1"/>
        <pt x="411" y="574" on="0"/>
        <pt x="339" y="644" on="0"/>
        <pt x="207" y="644" on="0"/>
        <pt x="135" y="576" on="0"/>
        <pt x="135" y="513" on="1"/>
        <pt x="135" y="186" on="1"/>
        <pt x="135" y="135" on="0"/>
        <pt x="192" y="64" on="0"/>
        <pt x="239" y="60" on="1"/>
        <pt x="236" y="78" on="0"/>
        <pt x="236" y="117" on="1"/>
        <pt x="236" y="174" on="1"/>
        <pt x="308" y="174" on="1"/>
        <pt x="308" y="118" on="1"/>
        <pt x="308" y="78" on="0"/>
        <pt x="310" y="61" on="1"/>
        <pt x="357" y="66" on="0"/>
        <pt x="411" y="134" on="0"/>
      </contour>
    </TTGlyph>
    <TTGlyph name="R" xMin="78" yMin="0" xMax="513" yMax="700">
      <contour>
        <pt x="513" y="0" on="1"/>
        <pt x="439" y="0" on="1"/>
        <pt x="360" y="232" on="1"/>
        <pt x="342" y="230" on="0"/>
        <pt x="328" y="230" on="1"/>
        <pt x="150" y="230" on="1"/>
        <pt x="150" y="0" on="1"/>
        <pt x="78" y="0" on="1"/>
        <pt x="78" y="700" on="1"/>
        <pt x="321" y="700" on="1"/>
        <pt x="417" y="700" on="0"/>
        <pt x="512" y="578" on="0"/>
        <pt x="512" y="479" on="1"/>
        <pt x="512" y="356" on="0"/>
        <pt x="474" y="300" on="1"/>
        <pt x="456" y="273" on="0"/>
        <pt x="427" y="255" on="1"/>
      </contour>
      <contour>
        <pt x="150" y="300" on="1"/>
        <pt x="319" y="300" on="1"/>
        <pt x="378" y="300" on="0"/>
        <pt x="404" y="334" on="1"/>
        <pt x="416" y="351" on="0"/>
        <pt x="431" y="381" on="0"/>
        <pt x="434" y="406" on="1"/>
        <pt x="438" y="439" on="0"/>
        <pt x="438" y="479" on="1"/>
        <pt x="438" y="630" on="0"/>
        <pt x="310" y="630" on="1"/>
        <pt x="150" y="630" on="1"/>
      </contour>
    </TTGlyph>
    <TTGlyph name="Racute" xMin="78" yMin="0" xMax="513" yMax="871">
      <contour>
        <pt x="513" y="0" on="1"/>
        <pt x="439" y="0" on="1"/>
        <pt x="360" y="232" on="1"/>
        <pt x="342" y="230" on="0"/>
        <pt x="328" y="230" on="1"/>
        <pt x="150" y="230" on="1"/>
        <pt x="150" y="0" on="1"/>
        <pt x="78" y="0" on="1"/>
        <pt x="78" y="700" on="1"/>
        <pt x="321" y="700" on="1"/>
        <pt x="417" y="700" on="0"/>
        <pt x="512" y="578" on="0"/>
        <pt x="512" y="479" on="1"/>
        <pt x="512" y="356" on="0"/>
        <pt x="474" y="300" on="1"/>
        <pt x="456" y="273" on="0"/>
        <pt x="427" y="255" on="1"/>
      </contour>
      <contour>
        <pt x="150" y="300" on="1"/>
        <pt x="319" y="300" on="1"/>
        <pt x="378" y="300" on="0"/>
        <pt x="404" y="334" on="1"/>
        <pt x="416" y="351" on="0"/>
        <pt x="431" y="381" on="0"/>
        <pt x="434" y="406" on="1"/>
        <pt x="438" y="439" on="0"/>
        <pt x="438" y="479" on="1"/>
        <pt x="438" y="630" on="0"/>
        <pt x="310" y="630" on="1"/>
        <pt x="150" y="630" on="1"/>
      </contour>
      <contour>
        <pt x="280" y="730" on="1"/>
        <pt x="227" y="730" on="1"/>
        <pt x="276" y="845" on="1"/>
        <pt x="288" y="871" on="0"/>
        <pt x="315" y="871" on="1"/>
        <pt x="322" y="871" on="0"/>
        <pt x="328" y="869" on="1"/>
        <pt x="351" y="860" on="0"/>
        <pt x="351" y="835" on="1"/>
        <pt x="351" y="824" on="0"/>
        <pt x="343" y="813" on="1"/>
      </contour>
    </TTGlyph>
    <TTGlyph name="Rcaron" xMin="78" yMin="0" xMax="513" yMax="914">
      <contour>
        <pt x="513" y="0" on="1"/>
        <pt x="439" y="0" on="1"/>
        <pt x="360" y="232" on="1"/>
        <pt x="342" y="230" on="0"/>
        <pt x="328" y="230" on="1"/>
        <pt x="150" y="230" on="1"/>
        <pt x="150" y="0" on="1"/>
        <pt x="78" y="0" on="1"/>
        <pt x="78" y="700" on="1"/>
        <pt x="321" y="700" on="1"/>
        <pt x="417" y="700" on="0"/>
        <pt x="512" y="578" on="0"/>
        <pt x="512" y="479" on="1"/>
        <pt x="512" y="356" on="0"/>
        <pt x="474" y="300" on="1"/>
        <pt x="456" y="273" on="0"/>
        <pt x="427" y="255" on="1"/>
      </contour>
      <contour>
        <pt x="150" y="300" on="1"/>
        <pt x="319" y="300" on="1"/>
        <pt x="378" y="300" on="0"/>
        <pt x="404" y="334" on="1"/>
        <pt x="416" y="351" on="0"/>
        <pt x="431" y="381" on="0"/>
        <pt x="434" y="406" on="1"/>
        <pt x="438" y="439" on="0"/>
        <pt x="438" y="479" on="1"/>
        <pt x="438" y="630" on="0"/>
        <pt x="310" y="630" on="1"/>
        <pt x="150" y="630" on="1"/>
      </contour>
      <contour>
        <pt x="427" y="875" on="1"/>
        <pt x="285" y="734" on="1"/>
        <pt x="137" y="875" on="1"/>
        <pt x="183" y="914" on="1"/>
        <pt x="284" y="817" on="1"/>
        <pt x="380" y="914" on="1"/>
      </contour>
    </TTGlyph>
    <TTGlyph name="Rcommaaccent" xMin="78" yMin="-195" xMax="513" yMax="700">
      <contour>
        <pt x="513" y="0" on="1"/>
        <pt x="439" y="0" on="1"/>
        <pt x="360" y="232" on="1"/>
        <pt x="342" y="230" on="0"/>
        <pt x="328" y="230" on="1"/>
        <pt x="150" y="230" on="1"/>
        <pt x="150" y="0" on="1"/>
        <pt x="78" y="0" on="1"/>
        <pt x="78" y="700" on="1"/>
        <pt x="321" y="700" on="1"/>
        <pt x="417" y="700" on="0"/>
        <pt x="512" y="578" on="0"/>
        <pt x="512" y="479" on="1"/>
        <pt x="512" y="356" on="0"/>
        <pt x="474" y="300" on="1"/>
        <pt x="456" y="273" on="0"/>
        <pt x="427" y="255" on="1"/>
      </contour>
      <contour>
        <pt x="150" y="300" on="1"/>
        <pt x="319" y="300" on="1"/>
        <pt x="378" y="300" on="0"/>
        <pt x="404" y="334" on="1"/>
        <pt x="416" y="351" on="0"/>
        <pt x="431" y="381" on="0"/>
        <pt x="434" y="406" on="1"/>
        <pt x="438" y="439" on="0"/>
        <pt x="438" y="479" on="1"/>
        <pt x="438" y="630" on="0"/>
        <pt x="310" y="630" on="1"/>
        <pt x="150" y="630" on="1"/>
      </contour>
      <contour>
        <pt x="257" y="-195" on="1"/>
        <pt x="208" y="-167" on="1"/>
        <pt x="251" y="-142" on="0"/>
        <pt x="274" y="-114" on="1"/>
        <pt x="263" y="-111" on="1"/>
        <pt x="241" y="-98" on="0"/>
        <pt x="242" y="-55" on="0"/>
        <pt x="265" y="-35" on="0"/>
        <pt x="273" y="-35" on="1"/>
        <pt x="298" y="-35" on="0"/>
        <pt x="322" y="-64" on="0"/>
        <pt x="322" y="-79" on="1"/>
        <pt x="322" y="-139" on="0"/>
      </contour>
    </TTGlyph>
    <TTGlyph name="Rho" xMin="78" yMin="0" xMax="512" yMax="700">
      <contour>
        <pt x="150" y="300" on="1"/>
        <pt x="317" y="300" on="1"/>
        <pt x="353" y="300" on="0"/>
        <pt x="403" y="328" on="0"/>
        <pt x="426" y="360" on="0"/>
        <pt x="439" y="420" on="0"/>
        <pt x="440" y="450" on="0"/>
        <pt x="440" y="478" on="1"/>
        <pt x="440" y="630" on="0"/>
        <pt x="313" y="630" on="1"/>
        <pt x="150" y="630" on="1"/>
      </contour>
      <contour>
        <pt x="150" y="0" on="1"/>
        <pt x="78" y="0" on="1"/>
        <pt x="78" y="700" on="1"/>
        <pt x="319" y="700" on="1"/>
        <pt x="417" y="700" on="0"/>
        <pt x="512" y="578" on="0"/>
        <pt x="512" y="479" on="1"/>
        <pt x="512" y="444" on="0"/>
        <pt x="508" y="393" on="0"/>
        <pt x="487" y="316" on="0"/>
        <pt x="451" y="267" on="0"/>
        <pt x="377" y="230" on="0"/>
        <pt x="326" y="230" on="1"/>
        <pt x="150" y="230" on="1"/>
      </contour>
    </TTGlyph>
    <TTGlyph name="S" xMin="37" yMin="-11" xMax="512" yMax="710">
      <contour>
        <pt x="37" y="178" on="1"/>
        <pt x="112" y="183" on="1"/>
        <pt x="117" y="133" on="0"/>
        <pt x="204" y="59" on="0"/>
        <pt x="343" y="59" on="0"/>
        <pt x="434" y="124" on="0"/>
        <pt x="434" y="186" on="1"/>
        <pt x="434" y="232" on="0"/>
        <pt x="378" y="297" on="0"/>
        <pt x="294" y="331" on="0"/>
        <pt x="195" y="371" on="0"/>
        <pt x="111" y="409" on="0"/>
        <pt x="55" y="485" on="0"/>
        <pt x="55" y="538" on="1"/>
        <pt x="55" y="608" on="0"/>
        <pt x="171" y="710" on="0"/>
        <pt x="280" y="710" on="1"/>
        <pt x="363" y="710" on="0"/>
        <pt x="426" y="680" on="1"/>
        <pt x="426" y="678" on="0"/>
        <pt x="404" y="612" on="1"/>
        <pt x="342" y="639" on="0"/>
        <pt x="211" y="639" on="0"/>
        <pt x="131" y="583" on="0"/>
        <pt x="131" y="535" on="1"/>
        <pt x="131" y="477" on="0"/>
        <pt x="208" y="443" on="1"/>
        <pt x="242" y="428" on="0"/>
        <pt x="323" y="399" on="0"/>
        <pt x="403" y="363" on="0"/>
        <pt x="470" y="317" on="0"/>
        <pt x="512" y="242" on="0"/>
        <pt x="512" y="193" on="1"/>
        <pt x="512" y="101" on="0"/>
        <pt x="395" y="-11" on="0"/>
        <pt x="164" y="-11" on="0"/>
        <pt x="39" y="104" on="0"/>
      </contour>
    </TTGlyph>
    <TTGlyph name="Sacute" xMin="37" yMin="-11" xMax="512" yMax="876">
      <contour>
        <pt x="37" y="178" on="1"/>
        <pt x="112" y="183" on="1"/>
        <pt x="117" y="133" on="0"/>
        <pt x="204" y="59" on="0"/>
        <pt x="343" y="59" on="0"/>
        <pt x="434" y="124" on="0"/>
        <pt x="434" y="186" on="1"/>
        <pt x="434" y="232" on="0"/>
        <pt x="378" y="297" on="0"/>
        <pt x="294" y="331" on="0"/>
        <pt x="195" y="371" on="0"/>
        <pt x="111" y="409" on="0"/>
        <pt x="55" y="485" on="0"/>
        <pt x="55" y="538" on="1"/>
        <pt x="55" y="608" on="0"/>
        <pt x="171" y="710" on="0"/>
        <pt x="280" y="710" on="1"/>
        <pt x="363" y="710" on="0"/>
        <pt x="426" y="680" on="1"/>
        <pt x="426" y="678" on="0"/>
        <pt x="404" y="612" on="1"/>
        <pt x="342" y="639" on="0"/>
        <pt x="211" y="639" on="0"/>
        <pt x="131" y="583" on="0"/>
        <pt x="131" y="535" on="1"/>
        <pt x="131" y="477" on="0"/>
        <pt x="208" y="443" on="1"/>
        <pt x="242" y="428" on="0"/>
        <pt x="323" y="399" on="0"/>
        <pt x="403" y="363" on="0"/>
        <pt x="470" y="317" on="0"/>
        <pt x="512" y="242" on="0"/>
        <pt x="512" y="193" on="1"/>
        <pt x="512" y="101" on="0"/>
        <pt x="395" y="-11" on="0"/>
        <pt x="164" y="-11" on="0"/>
        <pt x="39" y="104" on="0"/>
      </contour>
      <contour>
        <pt x="293" y="735" on="1"/>
        <pt x="240" y="735" on="1"/>
        <pt x="289" y="850" on="1"/>
        <pt x="301" y="876" on="0"/>
        <pt x="328" y="876" on="1"/>
        <pt x="335" y="876" on="0"/>
        <pt x="341" y="874" on="1"/>
        <pt x="364" y="865" on="0"/>
        <pt x="364" y="840" on="1"/>
        <pt x="364" y="829" on="0"/>
        <pt x="356" y="818" on="1"/>
      </contour>
    </TTGlyph>
    <TTGlyph name="Scaron" xMin="37" yMin="-11" xMax="512" yMax="963">
      <contour>
        <pt x="37" y="178" on="1"/>
        <pt x="112" y="183" on="1"/>
        <pt x="117" y="133" on="0"/>
        <pt x="204" y="59" on="0"/>
        <pt x="343" y="59" on="0"/>
        <pt x="434" y="124" on="0"/>
        <pt x="434" y="186" on="1"/>
        <pt x="434" y="232" on="0"/>
        <pt x="378" y="297" on="0"/>
        <pt x="294" y="331" on="0"/>
        <pt x="195" y="371" on="0"/>
        <pt x="111" y="409" on="0"/>
        <pt x="55" y="485" on="0"/>
        <pt x="55" y="538" on="1"/>
        <pt x="55" y="608" on="0"/>
        <pt x="171" y="710" on="0"/>
        <pt x="280" y="710" on="1"/>
        <pt x="363" y="710" on="0"/>
        <pt x="426" y="680" on="1"/>
        <pt x="426" y="678" on="0"/>
        <pt x="404" y="612" on="1"/>
        <pt x="342" y="639" on="0"/>
        <pt x="211" y="639" on="0"/>
        <pt x="131" y="583" on="0"/>
        <pt x="131" y="535" on="1"/>
        <pt x="131" y="477" on="0"/>
        <pt x="208" y="443" on="1"/>
        <pt x="242" y="428" on="0"/>
        <pt x="323" y="399" on="0"/>
        <pt x="403" y="363" on="0"/>
        <pt x="470" y="317" on="0"/>
        <pt x="512" y="242" on="0"/>
        <pt x="512" y="193" on="1"/>
        <pt x="512" y="101" on="0"/>
        <pt x="395" y="-11" on="0"/>
        <pt x="164" y="-11" on="0"/>
        <pt x="39" y="104" on="0"/>
      </contour>
      <contour>
        <pt x="444" y="924" on="1"/>
        <pt x="302" y="783" on="1"/>
        <pt x="154" y="924" on="1"/>
        <pt x="200" y="963" on="1"/>
        <pt x="301" y="866" on="1"/>
        <pt x="397" y="963" on="1"/>
      </contour>
    </TTGlyph>
    <TTGlyph name="Scircumflex" xMin="37" yMin="-11" xMax="512" yMax="912">
      <contour>
        <pt x="37" y="178" on="1"/>
        <pt x="112" y="183" on="1"/>
        <pt x="117" y="133" on="0"/>
        <pt x="204" y="59" on="0"/>
        <pt x="343" y="59" on="0"/>
        <pt x="434" y="124" on="0"/>
        <pt x="434" y="186" on="1"/>
        <pt x="434" y="232" on="0"/>
        <pt x="378" y="297" on="0"/>
        <pt x="294" y="331" on="0"/>
        <pt x="195" y="371" on="0"/>
        <pt x="111" y="409" on="0"/>
        <pt x="55" y="485" on="0"/>
        <pt x="55" y="538" on="1"/>
        <pt x="55" y="608" on="0"/>
        <pt x="171" y="710" on="0"/>
        <pt x="280" y="710" on="1"/>
        <pt x="363" y="710" on="0"/>
        <pt x="426" y="680" on="1"/>
        <pt x="426" y="678" on="0"/>
        <pt x="404" y="612" on="1"/>
        <pt x="342" y="639" on="0"/>
        <pt x="211" y="639" on="0"/>
        <pt x="131" y="583" on="0"/>
        <pt x="131" y="535" on="1"/>
        <pt x="131" y="477" on="0"/>
        <pt x="208" y="443" on="1"/>
        <pt x="242" y="428" on="0"/>
        <pt x="323" y="399" on="0"/>
        <pt x="403" y="363" on="0"/>
        <pt x="470" y="317" on="0"/>
        <pt x="512" y="242" on="0"/>
        <pt x="512" y="193" on="1"/>
        <pt x="512" y="101" on="0"/>
        <pt x="395" y="-11" on="0"/>
        <pt x="164" y="-11" on="0"/>
        <pt x="39" y="104" on="0"/>
      </contour>
      <contour>
        <pt x="415" y="771" on="1"/>
        <pt x="368" y="732" on="1"/>
        <pt x="272" y="830" on="1"/>
        <pt x="171" y="732" on="1"/>
        <pt x="125" y="771" on="1"/>
        <pt x="273" y="912" on="1"/>
      </contour>
    </TTGlyph>
    <TTGlyph name="Scommaaccent" xMin="37" yMin="-194" xMax="512" yMax="710">
      <contour>
        <pt x="37" y="178" on="1"/>
        <pt x="112" y="183" on="1"/>
        <pt x="117" y="133" on="0"/>
        <pt x="204" y="59" on="0"/>
        <pt x="343" y="59" on="0"/>
        <pt x="434" y="124" on="0"/>
        <pt x="434" y="186" on="1"/>
        <pt x="434" y="232" on="0"/>
        <pt x="378" y="297" on="0"/>
        <pt x="294" y="331" on="0"/>
        <pt x="195" y="371" on="0"/>
        <pt x="111" y="409" on="0"/>
        <pt x="55" y="485" on="0"/>
        <pt x="55" y="538" on="1"/>
        <pt x="55" y="608" on="0"/>
        <pt x="171" y="710" on="0"/>
        <pt x="280" y="710" on="1"/>
        <pt x="363" y="710" on="0"/>
        <pt x="426" y="680" on="1"/>
        <pt x="426" y="678" on="0"/>
        <pt x="404" y="612" on="1"/>
        <pt x="342" y="639" on="0"/>
        <pt x="211" y="639" on="0"/>
        <pt x="131" y="583" on="0"/>
        <pt x="131" y="535" on="1"/>
        <pt x="131" y="477" on="0"/>
        <pt x="208" y="443" on="1"/>
        <pt x="242" y="428" on="0"/>
        <pt x="323" y="399" on="0"/>
        <pt x="403" y="363" on="0"/>
        <pt x="470" y="317" on="0"/>
        <pt x="512" y="242" on="0"/>
        <pt x="512" y="193" on="1"/>
        <pt x="512" y="101" on="0"/>
        <pt x="395" y="-11" on="0"/>
        <pt x="164" y="-11" on="0"/>
        <pt x="39" y="104" on="0"/>
      </contour>
      <contour>
        <pt x="250" y="-194" on="1"/>
        <pt x="201" y="-166" on="1"/>
        <pt x="244" y="-141" on="0"/>
        <pt x="267" y="-113" on="1"/>
        <pt x="256" y="-110" on="1"/>
        <pt x="234" y="-97" on="0"/>
        <pt x="235" y="-54" on="0"/>
        <pt x="258" y="-34" on="0"/>
        <pt x="266" y="-34" on="1"/>
        <pt x="291" y="-34" on="0"/>
        <pt x="315" y="-63" on="0"/>
        <pt x="315" y="-78" on="1"/>
        <pt x="315" y="-138" on="0"/>
      </contour>
    </TTGlyph>
    <TTGlyph name="Sigma" xMin="78" yMin="0" xMax="546" yMax="702">
      <contour>
        <pt x="401" y="0" on="1"/>
        <pt x="78" y="0" on="1"/>
        <pt x="304" y="384" on="1"/>
        <pt x="94" y="702" on="1"/>
        <pt x="522" y="702" on="1"/>
        <pt x="499" y="631" on="1"/>
        <pt x="226" y="631" on="1"/>
        <pt x="390" y="387" on="1"/>
        <pt x="199" y="66" on="1"/>
        <pt x="389" y="66" on="1"/>
        <pt x="466" y="66" on="0"/>
        <pt x="488" y="132" on="1"/>
        <pt x="546" y="106" on="1"/>
        <pt x="530" y="50" on="0"/>
        <pt x="460" y="0" on="0"/>
      </contour>
    </TTGlyph>
    <TTGlyph name="T" xMin="0" yMin="0" xMax="402" yMax="700">
      <contour>
        <pt x="234" y="0" on="1"/>
        <pt x="162" y="0" on="1"/>
        <pt x="162" y="632" on="1"/>
        <pt x="0" y="632" on="1"/>
        <pt x="0" y="700" on="1"/>
        <pt x="402" y="700" on="1"/>
        <pt x="402" y="632" on="1"/>
        <pt x="234" y="632" on="1"/>
      </contour>
    </TTGlyph>
    <TTGlyph name="Tau" xMin="78" yMin="0" xMax="480" yMax="700">
      <contour>
        <pt x="312" y="0" on="1"/>
        <pt x="240" y="0" on="1"/>
        <pt x="240" y="632" on="1"/>
        <pt x="78" y="632" on="1"/>
        <pt x="78" y="700" on="1"/>
        <pt x="480" y="700" on="1"/>
        <pt x="480" y="632" on="1"/>
        <pt x="312" y="632" on="1"/>
      </contour>
    </TTGlyph>
    <TTGlyph name="Tbar" xMin="0" yMin="0" xMax="402" yMax="798">
      <contour>
        <pt x="234" y="0" on="1"/>
        <pt x="162" y="0" on="1"/>
        <pt x="162" y="632" on="1"/>
        <pt x="0" y="632" on="1"/>
        <pt x="0" y="700" on="1"/>
        <pt x="402" y="700" on="1"/>
        <pt x="402" y="632" on="1"/>
        <pt x="234" y="632" on="1"/>
      </contour>
      <contour>
        <pt x="307" y="730" on="1"/>
        <pt x="90" y="730" on="1"/>
        <pt x="90" y="798" on="1"/>
        <pt x="307" y="798" on="1"/>
      </contour>
    </TTGlyph>
    <TTGlyph name="Tcaron" xMin="0" yMin="0" xMax="402" yMax="914">
      <contour>
        <pt x="234" y="0" on="1"/>
        <pt x="162" y="0" on="1"/>
        <pt x="162" y="632" on="1"/>
        <pt x="0" y="632" on="1"/>
        <pt x="0" y="700" on="1"/>
        <pt x="402" y="700" on="1"/>
        <pt x="402" y="632" on="1"/>
        <pt x="234" y="632" on="1"/>
      </contour>
      <contour>
        <pt x="344" y="875" on="1"/>
        <pt x="202" y="734" on="1"/>
        <pt x="54" y="875" on="1"/>
        <pt x="100" y="914" on="1"/>
        <pt x="201" y="817" on="1"/>
        <pt x="297" y="914" on="1"/>
      </contour>
    </TTGlyph>
    <TTGlyph name="Tcommaaccent" xMin="0" yMin="-194" xMax="402" yMax="700">
      <contour>
        <pt x="234" y="0" on="1"/>
        <pt x="162" y="0" on="1"/>
        <pt x="162" y="632" on="1"/>
        <pt x="0" y="632" on="1"/>
        <pt x="0" y="700" on="1"/>
        <pt x="402" y="700" on="1"/>
        <pt x="402" y="632" on="1"/>
        <pt x="234" y="632" on="1"/>
      </contour>
      <contour>
        <pt x="175" y="-194" on="1"/>
        <pt x="126" y="-166" on="1"/>
        <pt x="169" y="-141" on="0"/>
        <pt x="192" y="-113" on="1"/>
        <pt x="181" y="-110" on="1"/>
        <pt x="159" y="-97" on="0"/>
        <pt x="160" y="-54" on="0"/>
        <pt x="183" y="-34" on="0"/>
        <pt x="191" y="-34" on="1"/>
        <pt x="216" y="-34" on="0"/>
        <pt x="240" y="-63" on="0"/>
        <pt x="240" y="-78" on="1"/>
        <pt x="240" y="-138" on="0"/>
      </contour>
    </TTGlyph>
    <TTGlyph name="Theta" xMin="123" yMin="-11" xMax="543" yMax="716">
      <contour>
        <pt x="543" y="506" on="1"/>
        <pt x="543" y="185" on="1"/>
        <pt x="543" y="84" on="0"/>
        <pt x="420" y="-11" on="0"/>
        <pt x="248" y="-11" on="0"/>
        <pt x="123" y="84" on="0"/>
        <pt x="123" y="185" on="1"/>
        <pt x="123" y="507" on="1"/>
        <pt x="123" y="610" on="0"/>
        <pt x="236" y="716" on="0"/>
        <pt x="434" y="716" on="0"/>
        <pt x="543" y="604" on="0"/>
      </contour>
      <contour>
        <pt x="471" y="374" on="1"/>
        <pt x="471" y="502" on="1"/>
        <pt x="471" y="571" on="0"/>
        <pt x="400" y="643" on="0"/>
        <pt x="333" y="643" on="1"/>
        <pt x="195" y="643" on="0"/>
        <pt x="195" y="502" on="1"/>
        <pt x="195" y="374" on="1"/>
      </contour>
      <contour>
        <pt x="471" y="193" on="1"/>
        <pt x="471" y="303" on="1"/>
        <pt x="195" y="303" on="1"/>
        <pt x="195" y="191" on="1"/>
        <pt x="195" y="127" on="0"/>
        <pt x="271" y="60" on="0"/>
        <pt x="395" y="60" on="0"/>
        <pt x="471" y="127" on="0"/>
      </contour>
    </TTGlyph>
    <TTGlyph name="Thorn" xMin="78" yMin="0" xMax="455" yMax="700">
      <contour>
        <pt x="150" y="0" on="1"/>
        <pt x="78" y="0" on="1"/>
        <pt x="78" y="700" on="1"/>
        <pt x="150" y="700" on="1"/>
        <pt x="150" y="466" on="1"/>
        <pt x="196" y="509" on="0"/>
        <pt x="265" y="509" on="1"/>
        <pt x="358" y="509" on="0"/>
        <pt x="455" y="401" on="0"/>
        <pt x="455" y="221" on="0"/>
        <pt x="352" y="116" on="0"/>
        <pt x="269" y="116" on="1"/>
        <pt x="237" y="116" on="0"/>
        <pt x="169" y="144" on="0"/>
        <pt x="150" y="171" on="1"/>
      </contour>
      <contour>
        <pt x="150" y="252" on="0"/>
        <pt x="216" y="185" on="0"/>
        <pt x="317" y="185" on="0"/>
        <pt x="383" y="249" on="0"/>
        <pt x="383" y="378" on="0"/>
        <pt x="317" y="442" on="0"/>
        <pt x="222" y="442" on="0"/>
        <pt x="151" y="382" on="0"/>
      </contour>
    </TTGlyph>
    <TTGlyph name="U" xMin="74" yMin="-7" xMax="495" yMax="701">
      <contour>
        <pt x="423" y="194" on="1"/>
        <pt x="423" y="701" on="1"/>
        <pt x="495" y="701" on="1"/>
        <pt x="495" y="186" on="1"/>
        <pt x="495" y="133" on="0"/>
        <pt x="458" y="55" on="0"/>
        <pt x="395" y="13" on="0"/>
        <pt x="325" y="-7" on="0"/>
        <pt x="245" y="-7" on="0"/>
        <pt x="174" y="13" on="0"/>
        <pt x="111" y="55" on="0"/>
        <pt x="74" y="133" on="0"/>
        <pt x="74" y="186" on="1"/>
        <pt x="74" y="701" on="1"/>
        <pt x="146" y="701" on="1"/>
        <pt x="146" y="194" on="1"/>
        <pt x="146" y="132" on="0"/>
        <pt x="221" y="60" on="0"/>
        <pt x="348" y="60" on="0"/>
        <pt x="423" y="132" on="0"/>
      </contour>
    </TTGlyph>
    <TTGlyph name="Uacute" xMin="74" yMin="-7" xMax="495" yMax="872">
      <contour>
        <pt x="423" y="194" on="1"/>
        <pt x="423" y="701" on="1"/>
        <pt x="495" y="701" on="1"/>
        <pt x="495" y="186" on="1"/>
        <pt x="495" y="133" on="0"/>
        <pt x="458" y="55" on="0"/>
        <pt x="395" y="13" on="0"/>
        <pt x="325" y="-7" on="0"/>
        <pt x="245" y="-7" on="0"/>
        <pt x="174" y="13" on="0"/>
        <pt x="111" y="55" on="0"/>
        <pt x="74" y="133" on="0"/>
        <pt x="74" y="186" on="1"/>
        <pt x="74" y="701" on="1"/>
        <pt x="146" y="701" on="1"/>
        <pt x="146" y="194" on="1"/>
        <pt x="146" y="132" on="0"/>
        <pt x="221" y="60" on="0"/>
        <pt x="348" y="60" on="0"/>
        <pt x="423" y="132" on="0"/>
      </contour>
      <contour>
        <pt x="311" y="731" on="1"/>
        <pt x="258" y="731" on="1"/>
        <pt x="307" y="846" on="1"/>
        <pt x="319" y="872" on="0"/>
        <pt x="346" y="872" on="1"/>
        <pt x="353" y="872" on="0"/>
        <pt x="359" y="870" on="1"/>
        <pt x="382" y="861" on="0"/>
        <pt x="382" y="836" on="1"/>
        <pt x="382" y="825" on="0"/>
        <pt x="374" y="814" on="1"/>
      </contour>
    </TTGlyph>
    <TTGlyph name="Ubreve" xMin="74" yMin="-7" xMax="495" yMax="842">
      <contour>
        <pt x="423" y="194" on="1"/>
        <pt x="423" y="701" on="1"/>
        <pt x="495" y="701" on="1"/>
        <pt x="495" y="186" on="1"/>
        <pt x="495" y="133" on="0"/>
        <pt x="458" y="55" on="0"/>
        <pt x="395" y="13" on="0"/>
        <pt x="325" y="-7" on="0"/>
        <pt x="245" y="-7" on="0"/>
        <pt x="174" y="13" on="0"/>
        <pt x="111" y="55" on="0"/>
        <pt x="74" y="133" on="0"/>
        <pt x="74" y="186" on="1"/>
        <pt x="74" y="701" on="1"/>
        <pt x="146" y="701" on="1"/>
        <pt x="146" y="194" on="1"/>
        <pt x="146" y="132" on="0"/>
        <pt x="221" y="60" on="0"/>
        <pt x="348" y="60" on="0"/>
        <pt x="423" y="132" on="0"/>
      </contour>
      <contour>
        <pt x="397" y="842" on="1"/>
        <pt x="397" y="837" on="1"/>
        <pt x="397" y="790" on="0"/>
        <pt x="330" y="724" on="0"/>
        <pt x="238" y="724" on="0"/>
        <pt x="171" y="790" on="0"/>
        <pt x="171" y="837" on="1"/>
        <pt x="171" y="842" on="1"/>
        <pt x="227" y="842" on="1"/>
        <pt x="227" y="837" on="1"/>
        <pt x="227" y="812" on="0"/>
        <pt x="260" y="779" on="0"/>
        <pt x="308" y="779" on="0"/>
        <pt x="341" y="812" on="0"/>
        <pt x="341" y="837" on="1"/>
        <pt x="341" y="842" on="1"/>
      </contour>
    </TTGlyph>
    <TTGlyph name="Ucircumflex" xMin="74" yMin="-7" xMax="495" yMax="912">
      <contour>
        <pt x="423" y="194" on="1"/>
        <pt x="423" y="701" on="1"/>
        <pt x="495" y="701" on="1"/>
        <pt x="495" y="186" on="1"/>
        <pt x="495" y="133" on="0"/>
        <pt x="458" y="55" on="0"/>
        <pt x="395" y="13" on="0"/>
        <pt x="325" y="-7" on="0"/>
        <pt x="245" y="-7" on="0"/>
        <pt x="174" y="13" on="0"/>
        <pt x="111" y="55" on="0"/>
        <pt x="74" y="133" on="0"/>
        <pt x="74" y="186" on="1"/>
        <pt x="74" y="701" on="1"/>
        <pt x="146" y="701" on="1"/>
        <pt x="146" y="194" on="1"/>
        <pt x="146" y="132" on="0"/>
        <pt x="221" y="60" on="0"/>
        <pt x="348" y="60" on="0"/>
        <pt x="423" y="132" on="0"/>
      </contour>
      <contour>
        <pt x="430" y="771" on="1"/>
        <pt x="383" y="732" on="1"/>
        <pt x="287" y="830" on="1"/>
        <pt x="186" y="732" on="1"/>
        <pt x="140" y="771" on="1"/>
        <pt x="288" y="912" on="1"/>
      </contour>
    </TTGlyph>
    <TTGlyph name="Udieresis" xMin="74" yMin="-7" xMax="495" yMax="804">
      <contour>
        <pt x="423" y="194" on="1"/>
        <pt x="423" y="701" on="1"/>
        <pt x="495" y="701" on="1"/>
        <pt x="495" y="186" on="1"/>
        <pt x="495" y="133" on="0"/>
        <pt x="458" y="55" on="0"/>
        <pt x="395" y="13" on="0"/>
        <pt x="325" y="-7" on="0"/>
        <pt x="245" y="-7" on="0"/>
        <pt x="174" y="13" on="0"/>
        <pt x="111" y="55" on="0"/>
        <pt x="74" y="133" on="0"/>
        <pt x="74" y="186" on="1"/>
        <pt x="74" y="701" on="1"/>
        <pt x="146" y="701" on="1"/>
        <pt x="146" y="194" on="1"/>
        <pt x="146" y="132" on="0"/>
        <pt x="221" y="60" on="0"/>
        <pt x="348" y="60" on="0"/>
        <pt x="423" y="132" on="0"/>
      </contour>
      <contour>
        <pt x="245" y="782" on="0"/>
        <pt x="245" y="752" on="0"/>
        <pt x="223" y="731" on="0"/>
        <pt x="193" y="731" on="0"/>
        <pt x="172" y="752" on="0"/>
        <pt x="172" y="782" on="0"/>
        <pt x="193" y="804" on="0"/>
        <pt x="223" y="804" on="0"/>
      </contour>
      <contour>
        <pt x="372" y="731" on="0"/>
        <pt x="342" y="731" on="0"/>
        <pt x="321" y="752" on="0"/>
        <pt x="321" y="783" on="0"/>
        <pt x="342" y="804" on="0"/>
        <pt x="372" y="804" on="0"/>
        <pt x="394" y="783" on="0"/>
        <pt x="394" y="752" on="0"/>
      </contour>
    </TTGlyph>
    <TTGlyph name="Ugrave" xMin="74" yMin="-7" xMax="495" yMax="873">
      <contour>
        <pt x="423" y="194" on="1"/>
        <pt x="423" y="701" on="1"/>
        <pt x="495" y="701" on="1"/>
        <pt x="495" y="186" on="1"/>
        <pt x="495" y="133" on="0"/>
        <pt x="458" y="55" on="0"/>
        <pt x="395" y="13" on="0"/>
        <pt x="325" y="-7" on="0"/>
        <pt x="245" y="-7" on="0"/>
        <pt x="174" y="13" on="0"/>
        <pt x="111" y="55" on="0"/>
        <pt x="74" y="133" on="0"/>
        <pt x="74" y="186" on="1"/>
        <pt x="74" y="701" on="1"/>
        <pt x="146" y="701" on="1"/>
        <pt x="146" y="194" on="1"/>
        <pt x="146" y="132" on="0"/>
        <pt x="221" y="60" on="0"/>
        <pt x="348" y="60" on="0"/>
        <pt x="423" y="132" on="0"/>
      </contour>
      <contour>
        <pt x="311" y="732" on="1"/>
        <pt x="258" y="732" on="1"/>
        <pt x="195" y="815" on="1"/>
        <pt x="187" y="826" on="0"/>
        <pt x="187" y="834" on="1"/>
        <pt x="187" y="862" on="0"/>
        <pt x="210" y="871" on="1"/>
        <pt x="216" y="873" on="0"/>
        <pt x="224" y="873" on="1"/>
        <pt x="250" y="873" on="0"/>
        <pt x="261" y="847" on="1"/>
      </contour>
    </TTGlyph>
    <TTGlyph name="Uhungarumlaut" xMin="74" yMin="-7" xMax="495" yMax="873">
      <contour>
        <pt x="423" y="194" on="1"/>
        <pt x="423" y="701" on="1"/>
        <pt x="495" y="701" on="1"/>
        <pt x="495" y="186" on="1"/>
        <pt x="495" y="133" on="0"/>
        <pt x="458" y="55" on="0"/>
        <pt x="395" y="13" on="0"/>
        <pt x="325" y="-7" on="0"/>
        <pt x="245" y="-7" on="0"/>
        <pt x="174" y="13" on="0"/>
        <pt x="111" y="55" on="0"/>
        <pt x="74" y="133" on="0"/>
        <pt x="74" y="186" on="1"/>
        <pt x="74" y="701" on="1"/>
        <pt x="146" y="701" on="1"/>
        <pt x="146" y="194" on="1"/>
        <pt x="146" y="132" on="0"/>
        <pt x="221" y="60" on="0"/>
        <pt x="348" y="60" on="0"/>
        <pt x="423" y="132" on="0"/>
      </contour>
      <contour>
        <pt x="367" y="732" on="1"/>
        <pt x="314" y="732" on="1"/>
        <pt x="363" y="847" on="1"/>
        <pt x="375" y="873" on="0"/>
        <pt x="402" y="873" on="1"/>
        <pt x="409" y="873" on="0"/>
        <pt x="415" y="871" on="1"/>
        <pt x="438" y="862" on="0"/>
        <pt x="438" y="837" on="1"/>
        <pt x="438" y="826" on="0"/>
        <pt x="430" y="815" on="1"/>
      </contour>
      <contour>
        <pt x="246" y="732" on="1"/>
        <pt x="193" y="732" on="1"/>
        <pt x="242" y="847" on="1"/>
        <pt x="254" y="873" on="0"/>
        <pt x="281" y="873" on="1"/>
        <pt x="288" y="873" on="0"/>
        <pt x="294" y="871" on="1"/>
        <pt x="317" y="862" on="0"/>
        <pt x="317" y="837" on="1"/>
        <pt x="317" y="826" on="0"/>
        <pt x="309" y="815" on="1"/>
      </contour>
    </TTGlyph>
    <TTGlyph name="Umacron" xMin="74" yMin="-7" xMax="495" yMax="798">
      <contour>
        <pt x="423" y="194" on="1"/>
        <pt x="423" y="701" on="1"/>
        <pt x="495" y="701" on="1"/>
        <pt x="495" y="186" on="1"/>
        <pt x="495" y="133" on="0"/>
        <pt x="458" y="55" on="0"/>
        <pt x="395" y="13" on="0"/>
        <pt x="325" y="-7" on="0"/>
        <pt x="245" y="-7" on="0"/>
        <pt x="174" y="13" on="0"/>
        <pt x="111" y="55" on="0"/>
        <pt x="74" y="133" on="0"/>
        <pt x="74" y="186" on="1"/>
        <pt x="74" y="701" on="1"/>
        <pt x="146" y="701" on="1"/>
        <pt x="146" y="194" on="1"/>
        <pt x="146" y="132" on="0"/>
        <pt x="221" y="60" on="0"/>
        <pt x="348" y="60" on="0"/>
        <pt x="423" y="132" on="0"/>
      </contour>
      <contour>
        <pt x="391" y="730" on="1"/>
        <pt x="174" y="730" on="1"/>
        <pt x="174" y="798" on="1"/>
        <pt x="391" y="798" on="1"/>
      </contour>
    </TTGlyph>
    <TTGlyph name="Uogonek" xMin="74" yMin="-213" xMax="495" yMax="701">
      <contour>
        <pt x="323" y="-121" on="1"/>
        <pt x="364" y="-163" on="1"/>
        <pt x="332" y="-213" on="0"/>
        <pt x="263" y="-213" on="1"/>
        <pt x="233" y="-213" on="0"/>
        <pt x="172" y="-174" on="0"/>
        <pt x="173" y="-127" on="1"/>
        <pt x="173" y="-64" on="0"/>
        <pt x="259" y="-6" on="1"/>
        <pt x="180" y="0" on="0"/>
        <pt x="74" y="92" on="0"/>
        <pt x="74" y="186" on="1"/>
        <pt x="74" y="701" on="1"/>
        <pt x="146" y="701" on="1"/>
        <pt x="146" y="194" on="1"/>
        <pt x="146" y="132" on="0"/>
        <pt x="221" y="60" on="0"/>
        <pt x="348" y="60" on="0"/>
        <pt x="423" y="132" on="0"/>
        <pt x="423" y="194" on="1"/>
        <pt x="423" y="701" on="1"/>
        <pt x="495" y="701" on="1"/>
        <pt x="495" y="186" on="1"/>
        <pt x="495" y="97" on="0"/>
        <pt x="397" y="4" on="0"/>
        <pt x="323" y="-4" on="1"/>
        <pt x="197" y="-108" on="0"/>
        <pt x="238" y="-150" on="1"/>
        <pt x="249" y="-160" on="0"/>
        <pt x="266" y="-160" on="1"/>
        <pt x="301" y="-160" on="0"/>
      </contour>
    </TTGlyph>
    <TTGlyph name="Upsilon" xMin="60" yMin="-11" xMax="504" yMax="700">
      <contour>
        <pt x="386" y="-11" on="1"/>
        <pt x="366" y="40" on="1"/>
        <pt x="395" y="49" on="0"/>
        <pt x="431" y="98" on="0"/>
        <pt x="431" y="156" on="1"/>
        <pt x="431" y="272" on="1"/>
        <pt x="382" y="230" on="0"/>
        <pt x="184" y="230" on="0"/>
        <pt x="60" y="339" on="0"/>
        <pt x="60" y="441" on="1"/>
        <pt x="60" y="700" on="1"/>
        <pt x="133" y="700" on="1"/>
        <pt x="133" y="437" on="1"/>
        <pt x="133" y="370" on="0"/>
        <pt x="217" y="301" on="0"/>
        <pt x="344" y="301" on="0"/>
        <pt x="421" y="344" on="0"/>
        <pt x="431" y="383" on="1"/>
        <pt x="431" y="700" on="1"/>
        <pt x="504" y="700" on="1"/>
        <pt x="504" y="156" on="1"/>
        <pt x="504" y="4" on="0"/>
      </contour>
    </TTGlyph>
    <TTGlyph name="Upsilon_alt" xMin="1" yMin="0" xMax="473" yMax="700">
      <contour>
        <pt x="273" y="0" on="1"/>
        <pt x="201" y="0" on="1"/>
        <pt x="201" y="332" on="1"/>
        <pt x="1" y="700" on="1"/>
        <pt x="80" y="700" on="1"/>
        <pt x="236" y="414" on="1"/>
        <pt x="394" y="700" on="1"/>
        <pt x="473" y="700" on="1"/>
        <pt x="273" y="334" on="1"/>
      </contour>
    </TTGlyph>
    <TTGlyph name="Upsilondieresis" xMin="78" yMin="-11" xMax="522" yMax="804">
      <contour>
        <pt x="404" y="-11" on="1"/>
        <pt x="384" y="40" on="1"/>
        <pt x="413" y="49" on="0"/>
        <pt x="449" y="98" on="0"/>
        <pt x="449" y="156" on="1"/>
        <pt x="449" y="272" on="1"/>
        <pt x="400" y="230" on="0"/>
        <pt x="202" y="230" on="0"/>
        <pt x="78" y="339" on="0"/>
        <pt x="78" y="441" on="1"/>
        <pt x="78" y="700" on="1"/>
        <pt x="151" y="700" on="1"/>
        <pt x="151" y="437" on="1"/>
        <pt x="151" y="370" on="0"/>
        <pt x="235" y="301" on="0"/>
        <pt x="362" y="301" on="0"/>
        <pt x="439" y="344" on="0"/>
        <pt x="449" y="383" on="1"/>
        <pt x="449" y="700" on="1"/>
        <pt x="522" y="700" on="1"/>
        <pt x="522" y="156" on="1"/>
        <pt x="522" y="4" on="0"/>
      </contour>
      <contour>
        <pt x="263" y="782" on="0"/>
        <pt x="263" y="752" on="0"/>
        <pt x="241" y="731" on="0"/>
        <pt x="211" y="731" on="0"/>
        <pt x="190" y="752" on="0"/>
        <pt x="190" y="782" on="0"/>
        <pt x="211" y="804" on="0"/>
        <pt x="241" y="804" on="0"/>
      </contour>
      <contour>
        <pt x="390" y="731" on="0"/>
        <pt x="360" y="731" on="0"/>
        <pt x="339" y="752" on="0"/>
        <pt x="339" y="783" on="0"/>
        <pt x="360" y="804" on="0"/>
        <pt x="390" y="804" on="0"/>
        <pt x="412" y="783" on="0"/>
        <pt x="412" y="752" on="0"/>
      </contour>
    </TTGlyph>
    <TTGlyph name="Upsilondieresis_alt" xMin="3" yMin="0" xMax="475" yMax="802">
      <contour>
        <pt x="195" y="780" on="0"/>
        <pt x="195" y="750" on="0"/>
        <pt x="173" y="729" on="0"/>
        <pt x="143" y="729" on="0"/>
        <pt x="122" y="750" on="0"/>
        <pt x="122" y="780" on="0"/>
        <pt x="143" y="802" on="0"/>
        <pt x="173" y="802" on="0"/>
      </contour>
      <contour>
        <pt x="322" y="729" on="0"/>
        <pt x="292" y="729" on="0"/>
        <pt x="271" y="750" on="0"/>
        <pt x="271" y="781" on="0"/>
        <pt x="292" y="802" on="0"/>
        <pt x="322" y="802" on="0"/>
        <pt x="344" y="781" on="0"/>
        <pt x="344" y="750" on="0"/>
      </contour>
      <contour>
        <pt x="275" y="0" on="1"/>
        <pt x="203" y="0" on="1"/>
        <pt x="203" y="332" on="1"/>
        <pt x="3" y="700" on="1"/>
        <pt x="82" y="700" on="1"/>
        <pt x="238" y="414" on="1"/>
        <pt x="396" y="700" on="1"/>
        <pt x="475" y="700" on="1"/>
        <pt x="275" y="334" on="1"/>
      </contour>
    </TTGlyph>
    <TTGlyph name="Upsilontonos" xMin="78" yMin="-11" xMax="681" yMax="709">
      <contour>
        <pt x="131" y="568" on="1"/>
        <pt x="78" y="568" on="1"/>
        <pt x="127" y="683" on="1"/>
        <pt x="139" y="709" on="0"/>
        <pt x="166" y="709" on="1"/>
        <pt x="173" y="709" on="0"/>
        <pt x="179" y="707" on="1"/>
        <pt x="202" y="698" on="0"/>
        <pt x="202" y="673" on="1"/>
        <pt x="202" y="662" on="0"/>
        <pt x="194" y="651" on="1"/>
      </contour>
      <contour>
        <pt x="563" y="-11" on="1"/>
        <pt x="543" y="40" on="1"/>
        <pt x="572" y="49" on="0"/>
        <pt x="608" y="98" on="0"/>
        <pt x="608" y="156" on="1"/>
        <pt x="608" y="272" on="1"/>
        <pt x="558" y="230" on="0"/>
        <pt x="361" y="230" on="0"/>
        <pt x="237" y="339" on="0"/>
        <pt x="237" y="441" on="1"/>
        <pt x="237" y="700" on="1"/>
        <pt x="310" y="700" on="1"/>
        <pt x="310" y="437" on="1"/>
        <pt x="310" y="370" on="0"/>
        <pt x="394" y="301" on="0"/>
        <pt x="521" y="301" on="0"/>
        <pt x="598" y="344" on="0"/>
        <pt x="608" y="383" on="1"/>
        <pt x="608" y="700" on="1"/>
        <pt x="681" y="700" on="1"/>
        <pt x="681" y="156" on="1"/>
        <pt x="681" y="4" on="0"/>
      </contour>
    </TTGlyph>
    <TTGlyph name="Upsilontonos_alt" xMin="78" yMin="0" xMax="710" yMax="709">
      <contour>
        <pt x="131" y="568" on="1"/>
        <pt x="78" y="568" on="1"/>
        <pt x="127" y="683" on="1"/>
        <pt x="139" y="709" on="0"/>
        <pt x="166" y="709" on="1"/>
        <pt x="173" y="709" on="0"/>
        <pt x="179" y="707" on="1"/>
        <pt x="202" y="698" on="0"/>
        <pt x="202" y="673" on="1"/>
        <pt x="202" y="662" on="0"/>
        <pt x="194" y="651" on="1"/>
      </contour>
      <contour>
        <pt x="510" y="0" on="1"/>
        <pt x="438" y="0" on="1"/>
        <pt x="438" y="332" on="1"/>
        <pt x="238" y="700" on="1"/>
        <pt x="317" y="700" on="1"/>
        <pt x="473" y="414" on="1"/>
        <pt x="631" y="700" on="1"/>
        <pt x="710" y="700" on="1"/>
        <pt x="510" y="334" on="1"/>
      </contour>
    </TTGlyph>
    <TTGlyph name="Uring" xMin="74" yMin="-7" xMax="495" yMax="881">
      <contour>
        <pt x="423" y="194" on="1"/>
        <pt x="423" y="701" on="1"/>
        <pt x="495" y="701" on="1"/>
        <pt x="495" y="186" on="1"/>
        <pt x="495" y="133" on="0"/>
        <pt x="458" y="55" on="0"/>
        <pt x="395" y="13" on="0"/>
        <pt x="325" y="-7" on="0"/>
        <pt x="245" y="-7" on="0"/>
        <pt x="174" y="13" on="0"/>
        <pt x="111" y="55" on="0"/>
        <pt x="74" y="133" on="0"/>
        <pt x="74" y="186" on="1"/>
        <pt x="74" y="701" on="1"/>
        <pt x="146" y="701" on="1"/>
        <pt x="146" y="194" on="1"/>
        <pt x="146" y="132" on="0"/>
        <pt x="221" y="60" on="0"/>
        <pt x="348" y="60" on="0"/>
        <pt x="423" y="132" on="0"/>
      </contour>
      <contour>
        <pt x="260" y="713" on="0"/>
        <pt x="308" y="713" on="0"/>
        <pt x="340" y="746" on="0"/>
        <pt x="340" y="794" on="0"/>
        <pt x="308" y="826" on="0"/>
        <pt x="260" y="826" on="0"/>
        <pt x="227" y="794" on="0"/>
        <pt x="227" y="746" on="0"/>
      </contour>
      <contour>
        <pt x="330" y="659" on="0"/>
        <pt x="238" y="659" on="0"/>
        <pt x="173" y="724" on="0"/>
        <pt x="173" y="816" on="0"/>
        <pt x="238" y="881" on="0"/>
        <pt x="330" y="881" on="0"/>
        <pt x="395" y="816" on="0"/>
        <pt x="395" y="724" on="0"/>
      </contour>
    </TTGlyph>
    <TTGlyph name="Utilde" xMin="74" yMin="-7" xMax="495" yMax="835">
      <contour>
        <pt x="423" y="194" on="1"/>
        <pt x="423" y="701" on="1"/>
        <pt x="495" y="701" on="1"/>
        <pt x="495" y="186" on="1"/>
        <pt x="495" y="133" on="0"/>
        <pt x="458" y="55" on="0"/>
        <pt x="395" y="13" on="0"/>
        <pt x="325" y="-7" on="0"/>
        <pt x="245" y="-7" on="0"/>
        <pt x="174" y="13" on="0"/>
        <pt x="111" y="55" on="0"/>
        <pt x="74" y="133" on="0"/>
        <pt x="74" y="186" on="1"/>
        <pt x="74" y="701" on="1"/>
        <pt x="146" y="701" on="1"/>
        <pt x="146" y="194" on="1"/>
        <pt x="146" y="132" on="0"/>
        <pt x="221" y="60" on="0"/>
        <pt x="348" y="60" on="0"/>
        <pt x="423" y="132" on="0"/>
      </contour>
      <contour>
        <pt x="359" y="794" on="1"/>
        <pt x="398" y="794" on="0"/>
        <pt x="429" y="829" on="1"/>
        <pt x="459" y="782" on="1"/>
        <pt x="414" y="729" on="0"/>
        <pt x="363" y="729" on="1"/>
        <pt x="345" y="729" on="0"/>
        <pt x="300" y="748" on="0"/>
        <pt x="250" y="771" on="0"/>
        <pt x="225" y="771" on="1"/>
        <pt x="183" y="771" on="0"/>
        <pt x="149" y="735" on="1"/>
        <pt x="120" y="782" on="1"/>
        <pt x="167" y="835" on="0"/>
        <pt x="220" y="835" on="1"/>
        <pt x="238" y="835" on="0"/>
        <pt x="283" y="817" on="0"/>
        <pt x="334" y="794" on="0"/>
      </contour>
    </TTGlyph>
    <TTGlyph name="V" xMin="78" yMin="0" xMax="556" yMax="700">
      <contour>
        <pt x="364" y="0" on="1"/>
        <pt x="271" y="0" on="1"/>
        <pt x="78" y="700" on="1"/>
        <pt x="157" y="700" on="1"/>
        <pt x="317" y="113" on="1"/>
        <pt x="476" y="700" on="1"/>
        <pt x="556" y="700" on="1"/>
      </contour>
    </TTGlyph>
    <TTGlyph name="W" xMin="78" yMin="0" xMax="774" yMax="700">
      <contour>
        <pt x="620" y="0" on="1"/>
        <pt x="523" y="0" on="1"/>
        <pt x="427" y="525" on="1"/>
        <pt x="332" y="0" on="1"/>
        <pt x="234" y="0" on="1"/>
        <pt x="78" y="700" on="1"/>
        <pt x="156" y="700" on="1"/>
        <pt x="281" y="124" on="1"/>
        <pt x="388" y="700" on="1"/>
        <pt x="466" y="700" on="1"/>
        <pt x="573" y="124" on="1"/>
        <pt x="694" y="700" on="1"/>
        <pt x="774" y="700" on="1"/>
      </contour>
    </TTGlyph>
    <TTGlyph name="X" xMin="78" yMin="0" xMax="606" yMax="700">
      <contour>
        <pt x="606" y="0" on="1"/>
        <pt x="515" y="0" on="1"/>
        <pt x="341" y="279" on="1"/>
        <pt x="167" y="0" on="1"/>
        <pt x="78" y="0" on="1"/>
        <pt x="298" y="351" on="1"/>
        <pt x="95" y="700" on="1"/>
        <pt x="178" y="700" on="1"/>
        <pt x="342" y="425" on="1"/>
        <pt x="506" y="700" on="1"/>
        <pt x="590" y="700" on="1"/>
        <pt x="386" y="354" on="1"/>
      </contour>
    </TTGlyph>
    <TTGlyph name="Xi" xMin="78" yMin="0" xMax="587" yMax="701">
      <contour>
        <pt x="469" y="343" on="1"/>
        <pt x="205" y="343" on="1"/>
        <pt x="205" y="413" on="1"/>
        <pt x="469" y="413" on="1"/>
      </contour>
      <contour>
        <pt x="527" y="631" on="1"/>
        <pt x="229" y="631" on="1"/>
        <pt x="152" y="631" on="0"/>
        <pt x="131" y="569" on="1"/>
        <pt x="78" y="595" on="1"/>
        <pt x="94" y="651" on="0"/>
        <pt x="164" y="701" on="0"/>
        <pt x="223" y="701" on="1"/>
        <pt x="548" y="701" on="1"/>
      </contour>
      <contour>
        <pt x="442" y="0" on="1"/>
        <pt x="117" y="0" on="1"/>
        <pt x="141" y="67" on="1"/>
        <pt x="430" y="67" on="1"/>
        <pt x="507" y="67" on="0"/>
        <pt x="529" y="132" on="1"/>
        <pt x="587" y="106" on="1"/>
        <pt x="571" y="50" on="0"/>
        <pt x="501" y="0" on="0"/>
      </contour>
    </TTGlyph>
    <TTGlyph name="Y" xMin="56" yMin="-11" xMax="500" yMax="700">
      <contour>
        <pt x="382" y="-11" on="1"/>
        <pt x="362" y="40" on="1"/>
        <pt x="391" y="49" on="0"/>
        <pt x="427" y="98" on="0"/>
        <pt x="427" y="156" on="1"/>
        <pt x="427" y="272" on="1"/>
        <pt x="378" y="230" on="0"/>
        <pt x="180" y="230" on="0"/>
        <pt x="56" y="339" on="0"/>
        <pt x="56" y="441" on="1"/>
        <pt x="56" y="700" on="1"/>
        <pt x="129" y="700" on="1"/>
        <pt x="129" y="437" on="1"/>
        <pt x="129" y="370" on="0"/>
        <pt x="213" y="301" on="0"/>
        <pt x="340" y="301" on="0"/>
        <pt x="417" y="344" on="0"/>
        <pt x="427" y="383" on="1"/>
        <pt x="427" y="700" on="1"/>
        <pt x="500" y="700" on="1"/>
        <pt x="500" y="156" on="1"/>
        <pt x="500" y="4" on="0"/>
      </contour>
    </TTGlyph>
    <TTGlyph name="Y_alt" xMin="1" yMin="0" xMax="473" yMax="700">
      <contour>
        <pt x="273" y="0" on="1"/>
        <pt x="201" y="0" on="1"/>
        <pt x="201" y="332" on="1"/>
        <pt x="1" y="700" on="1"/>
        <pt x="80" y="700" on="1"/>
        <pt x="236" y="414" on="1"/>
        <pt x="394" y="700" on="1"/>
        <pt x="473" y="700" on="1"/>
        <pt x="273" y="334" on="1"/>
      </contour>
    </TTGlyph>
    <TTGlyph name="Yacute" xMin="56" yMin="-11" xMax="500" yMax="872">
      <contour>
        <pt x="382" y="-11" on="1"/>
        <pt x="362" y="40" on="1"/>
        <pt x="391" y="49" on="0"/>
        <pt x="427" y="98" on="0"/>
        <pt x="427" y="156" on="1"/>
        <pt x="427" y="272" on="1"/>
        <pt x="378" y="230" on="0"/>
        <pt x="180" y="230" on="0"/>
        <pt x="56" y="339" on="0"/>
        <pt x="56" y="441" on="1"/>
        <pt x="56" y="700" on="1"/>
        <pt x="129" y="700" on="1"/>
        <pt x="129" y="437" on="1"/>
        <pt x="129" y="370" on="0"/>
        <pt x="213" y="301" on="0"/>
        <pt x="340" y="301" on="0"/>
        <pt x="417" y="344" on="0"/>
        <pt x="427" y="383" on="1"/>
        <pt x="427" y="700" on="1"/>
        <pt x="500" y="700" on="1"/>
        <pt x="500" y="156" on="1"/>
        <pt x="500" y="4" on="0"/>
      </contour>
      <contour>
        <pt x="307" y="731" on="1"/>
        <pt x="254" y="731" on="1"/>
        <pt x="303" y="846" on="1"/>
        <pt x="315" y="872" on="0"/>
        <pt x="342" y="872" on="1"/>
        <pt x="349" y="872" on="0"/>
        <pt x="355" y="870" on="1"/>
        <pt x="378" y="861" on="0"/>
        <pt x="378" y="836" on="1"/>
        <pt x="378" y="825" on="0"/>
        <pt x="370" y="814" on="1"/>
      </contour>
    </TTGlyph>
    <TTGlyph name="Yacute_alt" xMin="1" yMin="0" xMax="473" yMax="872">
      <contour>
        <pt x="264" y="731" on="1"/>
        <pt x="211" y="731" on="1"/>
        <pt x="260" y="846" on="1"/>
        <pt x="272" y="872" on="0"/>
        <pt x="299" y="872" on="1"/>
        <pt x="306" y="872" on="0"/>
        <pt x="312" y="870" on="1"/>
        <pt x="335" y="861" on="0"/>
        <pt x="335" y="836" on="1"/>
        <pt x="335" y="825" on="0"/>
        <pt x="327" y="814" on="1"/>
      </contour>
      <contour>
        <pt x="273" y="0" on="1"/>
        <pt x="201" y="0" on="1"/>
        <pt x="201" y="332" on="1"/>
        <pt x="1" y="700" on="1"/>
        <pt x="80" y="700" on="1"/>
        <pt x="236" y="414" on="1"/>
        <pt x="394" y="700" on="1"/>
        <pt x="473" y="700" on="1"/>
        <pt x="273" y="334" on="1"/>
      </contour>
    </TTGlyph>
    <TTGlyph name="Ydieresis" xMin="56" yMin="-11" xMax="500" yMax="804">
      <contour>
        <pt x="382" y="-11" on="1"/>
        <pt x="362" y="40" on="1"/>
        <pt x="391" y="49" on="0"/>
        <pt x="427" y="98" on="0"/>
        <pt x="427" y="156" on="1"/>
        <pt x="427" y="272" on="1"/>
        <pt x="378" y="230" on="0"/>
        <pt x="180" y="230" on="0"/>
        <pt x="56" y="339" on="0"/>
        <pt x="56" y="441" on="1"/>
        <pt x="56" y="700" on="1"/>
        <pt x="129" y="700" on="1"/>
        <pt x="129" y="437" on="1"/>
        <pt x="129" y="370" on="0"/>
        <pt x="213" y="301" on="0"/>
        <pt x="340" y="301" on="0"/>
        <pt x="417" y="344" on="0"/>
        <pt x="427" y="383" on="1"/>
        <pt x="427" y="700" on="1"/>
        <pt x="500" y="700" on="1"/>
        <pt x="500" y="156" on="1"/>
        <pt x="500" y="4" on="0"/>
      </contour>
      <contour>
        <pt x="240" y="782" on="0"/>
        <pt x="240" y="752" on="0"/>
        <pt x="218" y="731" on="0"/>
        <pt x="188" y="731" on="0"/>
        <pt x="167" y="752" on="0"/>
        <pt x="167" y="782" on="0"/>
        <pt x="188" y="804" on="0"/>
        <pt x="218" y="804" on="0"/>
      </contour>
      <contour>
        <pt x="367" y="731" on="0"/>
        <pt x="337" y="731" on="0"/>
        <pt x="316" y="752" on="0"/>
        <pt x="316" y="783" on="0"/>
        <pt x="337" y="804" on="0"/>
        <pt x="367" y="804" on="0"/>
        <pt x="389" y="783" on="0"/>
        <pt x="389" y="752" on="0"/>
      </contour>
    </TTGlyph>
    <TTGlyph name="Ydieresis_alt" xMin="-6" yMin="0" xMax="466" yMax="804">
      <contour>
        <pt x="266" y="0" on="1"/>
        <pt x="194" y="0" on="1"/>
        <pt x="194" y="332" on="1"/>
        <pt x="-6" y="700" on="1"/>
        <pt x="73" y="700" on="1"/>
        <pt x="229" y="414" on="1"/>
        <pt x="387" y="700" on="1"/>
        <pt x="466" y="700" on="1"/>
        <pt x="266" y="334" on="1"/>
      </contour>
      <contour>
        <pt x="191" y="782" on="0"/>
        <pt x="191" y="752" on="0"/>
        <pt x="169" y="731" on="0"/>
        <pt x="139" y="731" on="0"/>
        <pt x="118" y="752" on="0"/>
        <pt x="118" y="782" on="0"/>
        <pt x="139" y="804" on="0"/>
        <pt x="169" y="804" on="0"/>
      </contour>
      <contour>
        <pt x="318" y="731" on="0"/>
        <pt x="288" y="731" on="0"/>
        <pt x="267" y="752" on="0"/>
        <pt x="267" y="783" on="0"/>
        <pt x="288" y="804" on="0"/>
        <pt x="318" y="804" on="0"/>
        <pt x="340" y="783" on="0"/>
        <pt x="340" y="752" on="0"/>
      </contour>
    </TTGlyph>
    <TTGlyph name="Z" xMin="31" yMin="0" xMax="518" yMax="700">
      <contour>
        <pt x="518" y="0" on="1"/>
        <pt x="31" y="0" on="1"/>
        <pt x="31" y="65" on="1"/>
        <pt x="421" y="631" on="1"/>
        <pt x="44" y="631" on="1"/>
        <pt x="44" y="700" on="1"/>
        <pt x="512" y="700" on="1"/>
        <pt x="512" y="632" on="1"/>
        <pt x="122" y="67" on="1"/>
        <pt x="518" y="67" on="1"/>
      </contour>
    </TTGlyph>
    <TTGlyph name="Zacute" xMin="31" yMin="0" xMax="518" yMax="926">
      <contour>
        <pt x="518" y="0" on="1"/>
        <pt x="31" y="0" on="1"/>
        <pt x="31" y="65" on="1"/>
        <pt x="421" y="631" on="1"/>
        <pt x="44" y="631" on="1"/>
        <pt x="44" y="700" on="1"/>
        <pt x="512" y="700" on="1"/>
        <pt x="512" y="632" on="1"/>
        <pt x="122" y="67" on="1"/>
        <pt x="518" y="67" on="1"/>
      </contour>
      <contour>
        <pt x="257" y="785" on="1"/>
        <pt x="204" y="785" on="1"/>
        <pt x="253" y="900" on="1"/>
        <pt x="265" y="926" on="0"/>
        <pt x="292" y="926" on="1"/>
        <pt x="299" y="926" on="0"/>
        <pt x="305" y="924" on="1"/>
        <pt x="328" y="915" on="0"/>
        <pt x="328" y="890" on="1"/>
        <pt x="328" y="879" on="0"/>
        <pt x="320" y="868" on="1"/>
      </contour>
    </TTGlyph>
    <TTGlyph name="Zcaron" xMin="31" yMin="0" xMax="518" yMax="963">
      <contour>
        <pt x="518" y="0" on="1"/>
        <pt x="31" y="0" on="1"/>
        <pt x="31" y="65" on="1"/>
        <pt x="421" y="631" on="1"/>
        <pt x="44" y="631" on="1"/>
        <pt x="44" y="700" on="1"/>
        <pt x="512" y="700" on="1"/>
        <pt x="512" y="632" on="1"/>
        <pt x="122" y="67" on="1"/>
        <pt x="518" y="67" on="1"/>
      </contour>
      <contour>
        <pt x="444" y="924" on="1"/>
        <pt x="302" y="783" on="1"/>
        <pt x="154" y="924" on="1"/>
        <pt x="200" y="963" on="1"/>
        <pt x="301" y="866" on="1"/>
        <pt x="397" y="963" on="1"/>
      </contour>
    </TTGlyph>
    <TTGlyph name="Zdotaccent" xMin="31" yMin="0" xMax="518" yMax="808">
      <contour>
        <pt x="518" y="0" on="1"/>
        <pt x="31" y="0" on="1"/>
        <pt x="31" y="65" on="1"/>
        <pt x="421" y="631" on="1"/>
        <pt x="44" y="631" on="1"/>
        <pt x="44" y="700" on="1"/>
        <pt x="512" y="700" on="1"/>
        <pt x="512" y="632" on="1"/>
        <pt x="122" y="67" on="1"/>
        <pt x="518" y="67" on="1"/>
      </contour>
      <contour>
        <pt x="304" y="726" on="0"/>
        <pt x="272" y="726" on="0"/>
        <pt x="246" y="752" on="0"/>
        <pt x="246" y="784" on="0"/>
        <pt x="271" y="808" on="0"/>
        <pt x="304" y="808" on="0"/>
        <pt x="328" y="784" on="0"/>
        <pt x="328" y="751" on="0"/>
      </contour>
    </TTGlyph>
    <TTGlyph name="Zeta" xMin="78" yMin="0" xMax="565" yMax="700">
      <contour>
        <pt x="565" y="0" on="1"/>
        <pt x="78" y="0" on="1"/>
        <pt x="78" y="65" on="1"/>
        <pt x="468" y="631" on="1"/>
        <pt x="91" y="631" on="1"/>
        <pt x="91" y="700" on="1"/>
        <pt x="559" y="700" on="1"/>
        <pt x="559" y="632" on="1"/>
        <pt x="169" y="67" on="1"/>
        <pt x="565" y="67" on="1"/>
      </contour>
    </TTGlyph>
    <TTGlyph name="_196" xMin="78" yMin="0" xMax="583" yMax="700">
      <contour>
        <pt x="583" y="0" on="1"/>
        <pt x="78" y="0" on="1"/>
        <pt x="292" y="700" on="1"/>
        <pt x="362" y="700" on="1"/>
      </contour>
      <contour>
        <pt x="485" y="65" on="1"/>
        <pt x="328" y="574" on="1"/>
        <pt x="174" y="65" on="1"/>
      </contour>
    </TTGlyph>
    <TTGlyph name="a" xMin="37" yMin="-10" xMax="422" yMax="509">
      <contour>
        <pt x="37" y="252" on="1"/>
        <pt x="37" y="401" on="0"/>
        <pt x="189" y="401" on="1"/>
        <pt x="210" y="401" on="0"/>
        <pt x="234" y="398" on="1"/>
        <pt x="305" y="386" on="0"/>
        <pt x="350" y="353" on="1"/>
        <pt x="350" y="456" on="0"/>
        <pt x="209" y="456" on="1"/>
        <pt x="214" y="509" on="1"/>
        <pt x="295" y="509" on="0"/>
        <pt x="334" y="490" on="1"/>
        <pt x="355" y="479" on="0"/>
        <pt x="387" y="457" on="0"/>
        <pt x="405" y="421" on="0"/>
        <pt x="417" y="394" on="0"/>
        <pt x="419" y="371" on="1"/>
        <pt x="422" y="336" on="0"/>
        <pt x="422" y="298" on="1"/>
        <pt x="422" y="0" on="1"/>
        <pt x="318" y="-10" on="0"/>
        <pt x="256" y="-10" on="1"/>
        <pt x="37" y="-10" on="0"/>
        <pt x="37" y="169" on="1"/>
      </contour>
      <contour>
        <pt x="350" y="61" on="1"/>
        <pt x="350" y="288" on="1"/>
        <pt x="282" y="323" on="0"/>
        <pt x="203" y="332" on="1"/>
        <pt x="196" y="332" on="0"/>
        <pt x="189" y="332" on="1"/>
        <pt x="157" y="332" on="0"/>
        <pt x="109" y="293" on="0"/>
        <pt x="109" y="246" on="1"/>
        <pt x="109" y="168" on="1"/>
        <pt x="109" y="54" on="0"/>
        <pt x="265" y="54" on="1"/>
        <pt x="303" y="54" on="0"/>
      </contour>
    </TTGlyph>
    <TTGlyph name="aacute" xMin="78" yMin="-10" xMax="463" yMax="679">
      <contour>
        <pt x="78" y="252" on="1"/>
        <pt x="78" y="401" on="0"/>
        <pt x="230" y="401" on="1"/>
        <pt x="251" y="401" on="0"/>
        <pt x="274" y="398" on="1"/>
        <pt x="346" y="386" on="0"/>
        <pt x="391" y="353" on="1"/>
        <pt x="391" y="456" on="0"/>
        <pt x="250" y="456" on="1"/>
        <pt x="255" y="509" on="1"/>
        <pt x="336" y="509" on="0"/>
        <pt x="375" y="490" on="1"/>
        <pt x="396" y="479" on="0"/>
        <pt x="428" y="457" on="0"/>
        <pt x="446" y="421" on="0"/>
        <pt x="458" y="394" on="0"/>
        <pt x="460" y="371" on="1"/>
        <pt x="463" y="336" on="0"/>
        <pt x="463" y="298" on="1"/>
        <pt x="463" y="0" on="1"/>
        <pt x="359" y="-10" on="0"/>
        <pt x="297" y="-10" on="1"/>
        <pt x="78" y="-10" on="0"/>
        <pt x="78" y="169" on="1"/>
      </contour>
      <contour>
        <pt x="391" y="61" on="1"/>
        <pt x="391" y="288" on="1"/>
        <pt x="323" y="323" on="0"/>
        <pt x="244" y="332" on="1"/>
        <pt x="237" y="332" on="0"/>
        <pt x="230" y="332" on="1"/>
        <pt x="198" y="332" on="0"/>
        <pt x="150" y="293" on="0"/>
        <pt x="150" y="246" on="1"/>
        <pt x="150" y="168" on="1"/>
        <pt x="150" y="54" on="0"/>
        <pt x="306" y="54" on="1"/>
        <pt x="344" y="54" on="0"/>
      </contour>
      <contour>
        <pt x="311" y="538" on="1"/>
        <pt x="258" y="538" on="1"/>
        <pt x="307" y="653" on="1"/>
        <pt x="319" y="679" on="0"/>
        <pt x="346" y="679" on="1"/>
        <pt x="353" y="679" on="0"/>
        <pt x="359" y="677" on="1"/>
        <pt x="382" y="668" on="0"/>
        <pt x="382" y="643" on="1"/>
        <pt x="382" y="632" on="0"/>
        <pt x="374" y="621" on="1"/>
      </contour>
    </TTGlyph>
    <TTGlyph name="abreve" xMin="78" yMin="-10" xMax="463" yMax="656">
      <contour>
        <pt x="78" y="252" on="1"/>
        <pt x="78" y="401" on="0"/>
        <pt x="230" y="401" on="1"/>
        <pt x="251" y="401" on="0"/>
        <pt x="274" y="398" on="1"/>
        <pt x="346" y="386" on="0"/>
        <pt x="391" y="353" on="1"/>
        <pt x="391" y="456" on="0"/>
        <pt x="250" y="456" on="1"/>
        <pt x="255" y="509" on="1"/>
        <pt x="336" y="509" on="0"/>
        <pt x="375" y="490" on="1"/>
        <pt x="396" y="479" on="0"/>
        <pt x="428" y="457" on="0"/>
        <pt x="446" y="421" on="0"/>
        <pt x="458" y="394" on="0"/>
        <pt x="460" y="371" on="1"/>
        <pt x="463" y="336" on="0"/>
        <pt x="463" y="298" on="1"/>
        <pt x="463" y="0" on="1"/>
        <pt x="359" y="-10" on="0"/>
        <pt x="297" y="-10" on="1"/>
        <pt x="78" y="-10" on="0"/>
        <pt x="78" y="169" on="1"/>
      </contour>
      <contour>
        <pt x="391" y="61" on="1"/>
        <pt x="391" y="288" on="1"/>
        <pt x="323" y="323" on="0"/>
        <pt x="244" y="332" on="1"/>
        <pt x="237" y="332" on="0"/>
        <pt x="230" y="332" on="1"/>
        <pt x="198" y="332" on="0"/>
        <pt x="150" y="293" on="0"/>
        <pt x="150" y="246" on="1"/>
        <pt x="150" y="168" on="1"/>
        <pt x="150" y="54" on="0"/>
        <pt x="306" y="54" on="1"/>
        <pt x="344" y="54" on="0"/>
      </contour>
      <contour>
        <pt x="422" y="656" on="1"/>
        <pt x="422" y="651" on="1"/>
        <pt x="422" y="604" on="0"/>
        <pt x="356" y="538" on="0"/>
        <pt x="262" y="538" on="0"/>
        <pt x="196" y="604" on="0"/>
        <pt x="196" y="651" on="1"/>
        <pt x="196" y="656" on="1"/>
        <pt x="252" y="656" on="1"/>
        <pt x="252" y="651" on="1"/>
        <pt x="252" y="626" on="0"/>
        <pt x="285" y="593" on="0"/>
        <pt x="333" y="593" on="0"/>
        <pt x="366" y="626" on="0"/>
        <pt x="366" y="651" on="1"/>
        <pt x="366" y="656" on="1"/>
      </contour>
    </TTGlyph>
    <TTGlyph name="acircumflex" xMin="78" yMin="-10" xMax="463" yMax="719">
      <contour>
        <pt x="78" y="252" on="1"/>
        <pt x="78" y="401" on="0"/>
        <pt x="230" y="401" on="1"/>
        <pt x="251" y="401" on="0"/>
        <pt x="274" y="398" on="1"/>
        <pt x="346" y="386" on="0"/>
        <pt x="391" y="353" on="1"/>
        <pt x="391" y="456" on="0"/>
        <pt x="250" y="456" on="1"/>
        <pt x="255" y="509" on="1"/>
        <pt x="336" y="509" on="0"/>
        <pt x="375" y="490" on="1"/>
        <pt x="396" y="479" on="0"/>
        <pt x="428" y="457" on="0"/>
        <pt x="446" y="421" on="0"/>
        <pt x="458" y="394" on="0"/>
        <pt x="460" y="371" on="1"/>
        <pt x="463" y="336" on="0"/>
        <pt x="463" y="298" on="1"/>
        <pt x="463" y="0" on="1"/>
        <pt x="359" y="-10" on="0"/>
        <pt x="297" y="-10" on="1"/>
        <pt x="78" y="-10" on="0"/>
        <pt x="78" y="169" on="1"/>
      </contour>
      <contour>
        <pt x="391" y="61" on="1"/>
        <pt x="391" y="288" on="1"/>
        <pt x="323" y="323" on="0"/>
        <pt x="244" y="332" on="1"/>
        <pt x="237" y="332" on="0"/>
        <pt x="230" y="332" on="1"/>
        <pt x="198" y="332" on="0"/>
        <pt x="150" y="293" on="0"/>
        <pt x="150" y="246" on="1"/>
        <pt x="150" y="168" on="1"/>
        <pt x="150" y="54" on="0"/>
        <pt x="306" y="54" on="1"/>
        <pt x="344" y="54" on="0"/>
      </contour>
      <contour>
        <pt x="425" y="578" on="1"/>
        <pt x="378" y="539" on="1"/>
        <pt x="282" y="637" on="1"/>
        <pt x="181" y="539" on="1"/>
        <pt x="135" y="578" on="1"/>
        <pt x="283" y="719" on="1"/>
      </contour>
    </TTGlyph>
    <TTGlyph name="acute" xMin="46" yMin="588" xMax="170" yMax="729">
      <contour>
        <pt x="99" y="588" on="1"/>
        <pt x="46" y="588" on="1"/>
        <pt x="95" y="703" on="1"/>
        <pt x="107" y="729" on="0"/>
        <pt x="134" y="729" on="1"/>
        <pt x="141" y="729" on="0"/>
        <pt x="147" y="727" on="1"/>
        <pt x="170" y="718" on="0"/>
        <pt x="170" y="693" on="1"/>
        <pt x="170" y="682" on="0"/>
        <pt x="162" y="671" on="1"/>
      </contour>
    </TTGlyph>
    <TTGlyph name="adieresis" xMin="78" yMin="-10" xMax="463" yMax="612">
      <contour>
        <pt x="78" y="252" on="1"/>
        <pt x="78" y="401" on="0"/>
        <pt x="230" y="401" on="1"/>
        <pt x="251" y="401" on="0"/>
        <pt x="274" y="398" on="1"/>
        <pt x="346" y="386" on="0"/>
        <pt x="391" y="353" on="1"/>
        <pt x="391" y="456" on="0"/>
        <pt x="250" y="456" on="1"/>
        <pt x="255" y="509" on="1"/>
        <pt x="336" y="509" on="0"/>
        <pt x="375" y="490" on="1"/>
        <pt x="396" y="479" on="0"/>
        <pt x="428" y="457" on="0"/>
        <pt x="446" y="421" on="0"/>
        <pt x="458" y="394" on="0"/>
        <pt x="460" y="371" on="1"/>
        <pt x="463" y="336" on="0"/>
        <pt x="463" y="298" on="1"/>
        <pt x="463" y="0" on="1"/>
        <pt x="359" y="-10" on="0"/>
        <pt x="297" y="-10" on="1"/>
        <pt x="78" y="-10" on="0"/>
        <pt x="78" y="169" on="1"/>
      </contour>
      <contour>
        <pt x="391" y="61" on="1"/>
        <pt x="391" y="288" on="1"/>
        <pt x="323" y="323" on="0"/>
        <pt x="244" y="332" on="1"/>
        <pt x="237" y="332" on="0"/>
        <pt x="230" y="332" on="1"/>
        <pt x="198" y="332" on="0"/>
        <pt x="150" y="293" on="0"/>
        <pt x="150" y="246" on="1"/>
        <pt x="150" y="168" on="1"/>
        <pt x="150" y="54" on="0"/>
        <pt x="306" y="54" on="1"/>
        <pt x="344" y="54" on="0"/>
      </contour>
      <contour>
        <pt x="243" y="590" on="0"/>
        <pt x="243" y="560" on="0"/>
        <pt x="221" y="539" on="0"/>
        <pt x="191" y="539" on="0"/>
        <pt x="170" y="560" on="0"/>
        <pt x="170" y="590" on="0"/>
        <pt x="191" y="612" on="0"/>
        <pt x="221" y="612" on="0"/>
      </contour>
      <contour>
        <pt x="370" y="539" on="0"/>
        <pt x="340" y="539" on="0"/>
        <pt x="319" y="560" on="0"/>
        <pt x="319" y="591" on="0"/>
        <pt x="340" y="612" on="0"/>
        <pt x="370" y="612" on="0"/>
        <pt x="392" y="591" on="0"/>
        <pt x="392" y="560" on="0"/>
      </contour>
    </TTGlyph>
    <TTGlyph name="ae" xMin="78" yMin="-12" xMax="751" yMax="510">
      <contour>
        <pt x="463" y="131" on="1"/>
        <pt x="468" y="53" on="0"/>
        <pt x="563" y="53" on="1"/>
        <pt x="625" y="53" on="0"/>
        <pt x="699" y="94" on="1"/>
        <pt x="726" y="35" on="1"/>
        <pt x="649" y="-12" on="0"/>
        <pt x="555" y="-12" on="1"/>
        <pt x="503" y="-12" on="0"/>
        <pt x="463" y="5" on="1"/>
        <pt x="463" y="0" on="1"/>
        <pt x="359" y="-10" on="0"/>
        <pt x="297" y="-10" on="1"/>
        <pt x="78" y="-10" on="0"/>
        <pt x="78" y="169" on="1"/>
        <pt x="78" y="252" on="1"/>
        <pt x="78" y="401" on="0"/>
        <pt x="230" y="401" on="1"/>
        <pt x="251" y="401" on="0"/>
        <pt x="274" y="398" on="1"/>
        <pt x="346" y="386" on="0"/>
        <pt x="391" y="353" on="1"/>
        <pt x="391" y="456" on="0"/>
        <pt x="250" y="456" on="1"/>
        <pt x="255" y="509" on="1"/>
        <pt x="382" y="509" on="0"/>
        <pt x="428" y="451" on="1"/>
        <pt x="479" y="510" on="0"/>
        <pt x="658" y="510" on="0"/>
        <pt x="751" y="421" on="0"/>
        <pt x="751" y="342" on="1"/>
        <pt x="751" y="205" on="1"/>
        <pt x="463" y="190" on="1"/>
      </contour>
      <contour>
        <pt x="391" y="61" on="1"/>
        <pt x="391" y="288" on="1"/>
        <pt x="323" y="323" on="0"/>
        <pt x="244" y="332" on="1"/>
        <pt x="237" y="332" on="0"/>
        <pt x="230" y="332" on="1"/>
        <pt x="198" y="332" on="0"/>
        <pt x="150" y="293" on="0"/>
        <pt x="150" y="246" on="1"/>
        <pt x="150" y="168" on="1"/>
        <pt x="150" y="54" on="0"/>
        <pt x="306" y="54" on="1"/>
        <pt x="344" y="54" on="0"/>
      </contour>
      <contour>
        <pt x="678" y="269" on="1"/>
        <pt x="678" y="346" on="1"/>
        <pt x="678" y="399" on="0"/>
        <pt x="612" y="444" on="0"/>
        <pt x="524" y="444" on="0"/>
        <pt x="463" y="390" on="0"/>
        <pt x="463" y="338" on="1"/>
        <pt x="463" y="258" on="1"/>
      </contour>
    </TTGlyph>
    <TTGlyph name="agrave" xMin="78" yMin="-10" xMax="463" yMax="681">
      <contour>
        <pt x="78" y="252" on="1"/>
        <pt x="78" y="401" on="0"/>
        <pt x="230" y="401" on="1"/>
        <pt x="251" y="401" on="0"/>
        <pt x="274" y="398" on="1"/>
        <pt x="346" y="386" on="0"/>
        <pt x="391" y="353" on="1"/>
        <pt x="391" y="456" on="0"/>
        <pt x="250" y="456" on="1"/>
        <pt x="255" y="509" on="1"/>
        <pt x="336" y="509" on="0"/>
        <pt x="375" y="490" on="1"/>
        <pt x="396" y="479" on="0"/>
        <pt x="428" y="457" on="0"/>
        <pt x="446" y="421" on="0"/>
        <pt x="458" y="394" on="0"/>
        <pt x="460" y="371" on="1"/>
        <pt x="463" y="336" on="0"/>
        <pt x="463" y="298" on="1"/>
        <pt x="463" y="0" on="1"/>
        <pt x="359" y="-10" on="0"/>
        <pt x="297" y="-10" on="1"/>
        <pt x="78" y="-10" on="0"/>
        <pt x="78" y="169" on="1"/>
      </contour>
      <contour>
        <pt x="391" y="61" on="1"/>
        <pt x="391" y="288" on="1"/>
        <pt x="323" y="323" on="0"/>
        <pt x="244" y="332" on="1"/>
        <pt x="237" y="332" on="0"/>
        <pt x="230" y="332" on="1"/>
        <pt x="198" y="332" on="0"/>
        <pt x="150" y="293" on="0"/>
        <pt x="150" y="246" on="1"/>
        <pt x="150" y="168" on="1"/>
        <pt x="150" y="54" on="0"/>
        <pt x="306" y="54" on="1"/>
        <pt x="344" y="54" on="0"/>
      </contour>
      <contour>
        <pt x="294" y="540" on="1"/>
        <pt x="241" y="540" on="1"/>
        <pt x="178" y="623" on="1"/>
        <pt x="170" y="634" on="0"/>
        <pt x="170" y="642" on="1"/>
        <pt x="170" y="670" on="0"/>
        <pt x="193" y="679" on="1"/>
        <pt x="199" y="681" on="0"/>
        <pt x="207" y="681" on="1"/>
        <pt x="233" y="681" on="0"/>
        <pt x="244" y="655" on="1"/>
      </contour>
    </TTGlyph>
    <TTGlyph name="alpha" xMin="78" yMin="-12" xMax="473" yMax="509">
      <contour>
        <pt x="223" y="507" on="1"/>
        <pt x="298" y="507" on="0"/>
        <pt x="373" y="473" on="1"/>
        <pt x="389" y="509" on="1"/>
        <pt x="450" y="486" on="1"/>
        <pt x="443" y="421" on="0"/>
        <pt x="443" y="389" on="1"/>
        <pt x="443" y="77" on="1"/>
        <pt x="449" y="49" on="0"/>
        <pt x="473" y="35" on="1"/>
        <pt x="421" y="1" on="1"/>
        <pt x="417" y="1" on="0"/>
        <pt x="394" y="6" on="0"/>
        <pt x="368" y="2" on="1"/>
        <pt x="289" y="-12" on="0"/>
        <pt x="177" y="2" on="0"/>
        <pt x="119" y="36" on="0"/>
        <pt x="78" y="112" on="0"/>
        <pt x="78" y="169" on="1"/>
        <pt x="78" y="354" on="1"/>
        <pt x="78" y="423" on="0"/>
        <pt x="141" y="500" on="0"/>
        <pt x="189" y="505" on="1"/>
        <pt x="206" y="507" on="0"/>
      </contour>
      <contour>
        <pt x="370" y="71" on="1"/>
        <pt x="370" y="406" on="1"/>
        <pt x="286" y="440" on="0"/>
        <pt x="233" y="440" on="1"/>
        <pt x="149" y="440" on="0"/>
        <pt x="149" y="351" on="1"/>
        <pt x="149" y="177" on="1"/>
        <pt x="149" y="98" on="0"/>
        <pt x="202" y="74" on="1"/>
        <pt x="229" y="61" on="0"/>
        <pt x="315" y="61" on="0"/>
      </contour>
    </TTGlyph>
    <TTGlyph name="alphatonos" xMin="78" yMin="-12" xMax="473" yMax="679">
      <contour>
        <pt x="223" y="507" on="1"/>
        <pt x="298" y="507" on="0"/>
        <pt x="373" y="473" on="1"/>
        <pt x="389" y="509" on="1"/>
        <pt x="450" y="486" on="1"/>
        <pt x="443" y="421" on="0"/>
        <pt x="443" y="389" on="1"/>
        <pt x="443" y="77" on="1"/>
        <pt x="449" y="49" on="0"/>
        <pt x="473" y="35" on="1"/>
        <pt x="421" y="1" on="1"/>
        <pt x="417" y="1" on="0"/>
        <pt x="394" y="6" on="0"/>
        <pt x="368" y="2" on="1"/>
        <pt x="289" y="-12" on="0"/>
        <pt x="177" y="2" on="0"/>
        <pt x="119" y="36" on="0"/>
        <pt x="78" y="112" on="0"/>
        <pt x="78" y="169" on="1"/>
        <pt x="78" y="354" on="1"/>
        <pt x="78" y="423" on="0"/>
        <pt x="141" y="500" on="0"/>
        <pt x="189" y="505" on="1"/>
        <pt x="206" y="507" on="0"/>
      </contour>
      <contour>
        <pt x="370" y="71" on="1"/>
        <pt x="370" y="406" on="1"/>
        <pt x="286" y="440" on="0"/>
        <pt x="233" y="440" on="1"/>
        <pt x="149" y="440" on="0"/>
        <pt x="149" y="351" on="1"/>
        <pt x="149" y="177" on="1"/>
        <pt x="149" y="98" on="0"/>
        <pt x="202" y="74" on="1"/>
        <pt x="229" y="61" on="0"/>
        <pt x="315" y="61" on="0"/>
      </contour>
      <contour>
        <pt x="290" y="538" on="1"/>
        <pt x="237" y="538" on="1"/>
        <pt x="286" y="653" on="1"/>
        <pt x="298" y="679" on="0"/>
        <pt x="325" y="679" on="1"/>
        <pt x="332" y="679" on="0"/>
        <pt x="338" y="677" on="1"/>
        <pt x="361" y="668" on="0"/>
        <pt x="361" y="643" on="1"/>
        <pt x="361" y="632" on="0"/>
        <pt x="353" y="621" on="1"/>
      </contour>
    </TTGlyph>
    <TTGlyph name="amacron" xMin="78" yMin="-10" xMax="463" yMax="606">
      <contour>
        <pt x="78" y="252" on="1"/>
        <pt x="78" y="401" on="0"/>
        <pt x="230" y="401" on="1"/>
        <pt x="251" y="401" on="0"/>
        <pt x="274" y="398" on="1"/>
        <pt x="346" y="386" on="0"/>
        <pt x="391" y="353" on="1"/>
        <pt x="391" y="456" on="0"/>
        <pt x="250" y="456" on="1"/>
        <pt x="255" y="509" on="1"/>
        <pt x="336" y="509" on="0"/>
        <pt x="375" y="490" on="1"/>
        <pt x="396" y="479" on="0"/>
        <pt x="428" y="457" on="0"/>
        <pt x="446" y="421" on="0"/>
        <pt x="458" y="394" on="0"/>
        <pt x="460" y="371" on="1"/>
        <pt x="463" y="336" on="0"/>
        <pt x="463" y="298" on="1"/>
        <pt x="463" y="0" on="1"/>
        <pt x="359" y="-10" on="0"/>
        <pt x="297" y="-10" on="1"/>
        <pt x="78" y="-10" on="0"/>
        <pt x="78" y="169" on="1"/>
      </contour>
      <contour>
        <pt x="391" y="61" on="1"/>
        <pt x="391" y="288" on="1"/>
        <pt x="323" y="323" on="0"/>
        <pt x="244" y="332" on="1"/>
        <pt x="237" y="332" on="0"/>
        <pt x="230" y="332" on="1"/>
        <pt x="198" y="332" on="0"/>
        <pt x="150" y="293" on="0"/>
        <pt x="150" y="246" on="1"/>
        <pt x="150" y="168" on="1"/>
        <pt x="150" y="54" on="0"/>
        <pt x="306" y="54" on="1"/>
        <pt x="344" y="54" on="0"/>
      </contour>
      <contour>
        <pt x="386" y="538" on="1"/>
        <pt x="169" y="538" on="1"/>
        <pt x="169" y="606" on="1"/>
        <pt x="386" y="606" on="1"/>
      </contour>
    </TTGlyph>
    <TTGlyph name="ampersand" xMin="35" yMin="-11" xMax="521" yMax="712">
      <contour>
        <pt x="498" y="45" on="1"/>
        <pt x="482" y="-11" on="1"/>
        <pt x="398" y="8" on="0"/>
        <pt x="374" y="73" on="1"/>
        <pt x="323" y="-11" on="0"/>
        <pt x="213" y="-11" on="1"/>
        <pt x="123" y="-11" on="0"/>
        <pt x="76" y="52" on="1"/>
        <pt x="35" y="107" on="0"/>
        <pt x="35" y="179" on="1"/>
        <pt x="35" y="241" on="0"/>
        <pt x="82" y="333" on="0"/>
        <pt x="115" y="359" on="1"/>
        <pt x="168" y="401" on="0"/>
        <pt x="232" y="428" on="1"/>
        <pt x="199" y="436" on="0"/>
        <pt x="175" y="470" on="1"/>
        <pt x="148" y="508" on="0"/>
        <pt x="148" y="597" on="0"/>
        <pt x="165" y="631" on="1"/>
        <pt x="200" y="697" on="0"/>
        <pt x="294" y="710" on="1"/>
        <pt x="305" y="712" on="0"/>
        <pt x="348" y="712" on="0"/>
        <pt x="381" y="699" on="1"/>
        <pt x="340" y="638" on="1"/>
        <pt x="322" y="644" on="0"/>
        <pt x="278" y="644" on="0"/>
        <pt x="256" y="628" on="1"/>
        <pt x="219" y="602" on="0"/>
        <pt x="222" y="507" on="0"/>
        <pt x="260" y="484" on="1"/>
        <pt x="289" y="466" on="0"/>
        <pt x="327" y="466" on="0"/>
        <pt x="337" y="468" on="1"/>
        <pt x="359" y="472" on="1"/>
        <pt x="359" y="605" on="1"/>
        <pt x="432" y="609" on="1"/>
        <pt x="432" y="484" on="1"/>
        <pt x="505" y="500" on="1"/>
        <pt x="521" y="430" on="1"/>
        <pt x="432" y="411" on="1"/>
        <pt x="432" y="154" on="1"/>
        <pt x="432" y="67" on="0"/>
      </contour>
      <contour>
        <pt x="359" y="220" on="1"/>
        <pt x="359" y="395" on="1"/>
        <pt x="234" y="367" on="0"/>
        <pt x="172" y="318" on="1"/>
        <pt x="147" y="298" on="0"/>
        <pt x="128" y="268" on="1"/>
        <pt x="106" y="230" on="0"/>
        <pt x="106" y="132" on="0"/>
        <pt x="161" y="60" on="0"/>
        <pt x="283" y="60" on="0"/>
        <pt x="359" y="158" on="0"/>
      </contour>
    </TTGlyph>
    <TTGlyph name="aogonek" xMin="37" yMin="-213" xMax="456" yMax="509">
      <contour>
        <pt x="37" y="252" on="1"/>
        <pt x="37" y="401" on="0"/>
        <pt x="189" y="401" on="1"/>
        <pt x="210" y="401" on="0"/>
        <pt x="234" y="398" on="1"/>
        <pt x="305" y="386" on="0"/>
        <pt x="350" y="353" on="1"/>
        <pt x="350" y="456" on="0"/>
        <pt x="209" y="456" on="1"/>
        <pt x="214" y="509" on="1"/>
        <pt x="295" y="509" on="0"/>
        <pt x="334" y="490" on="1"/>
        <pt x="355" y="479" on="0"/>
        <pt x="387" y="457" on="0"/>
        <pt x="405" y="421" on="0"/>
        <pt x="417" y="394" on="0"/>
        <pt x="419" y="371" on="1"/>
        <pt x="422" y="336" on="0"/>
        <pt x="422" y="298" on="1"/>
        <pt x="422" y="0" on="1"/>
        <pt x="421" y="0" on="1"/>
        <pt x="322" y="-82" on="0"/>
        <pt x="321" y="-121" on="1"/>
        <pt x="320" y="-139" on="0"/>
        <pt x="341" y="-160" on="0"/>
        <pt x="358" y="-160" on="1"/>
        <pt x="393" y="-160" on="0"/>
        <pt x="415" y="-121" on="1"/>
        <pt x="456" y="-163" on="1"/>
        <pt x="424" y="-213" on="0"/>
        <pt x="355" y="-213" on="1"/>
        <pt x="325" y="-213" on="0"/>
        <pt x="264" y="-174" on="0"/>
        <pt x="265" y="-127" on="1"/>
        <pt x="265" y="-65" on="0"/>
        <pt x="350" y="-7" on="1"/>
        <pt x="314" y="-12" on="0"/>
        <pt x="258" y="-12" on="0"/>
        <pt x="183" y="-6" on="0"/>
        <pt x="93" y="22" on="0"/>
        <pt x="37" y="104" on="0"/>
        <pt x="37" y="169" on="1"/>
      </contour>
      <contour>
        <pt x="350" y="61" on="1"/>
        <pt x="350" y="288" on="1"/>
        <pt x="282" y="323" on="0"/>
        <pt x="203" y="332" on="1"/>
        <pt x="196" y="332" on="0"/>
        <pt x="189" y="332" on="1"/>
        <pt x="157" y="332" on="0"/>
        <pt x="109" y="293" on="0"/>
        <pt x="109" y="246" on="1"/>
        <pt x="109" y="168" on="1"/>
        <pt x="109" y="54" on="0"/>
        <pt x="265" y="54" on="1"/>
        <pt x="303" y="54" on="0"/>
      </contour>
    </TTGlyph>
    <TTGlyph name="aring" xMin="78" yMin="-10" xMax="463" yMax="678">
      <contour>
        <pt x="78" y="252" on="1"/>
        <pt x="78" y="401" on="0"/>
        <pt x="230" y="401" on="1"/>
        <pt x="251" y="401" on="0"/>
        <pt x="274" y="398" on="1"/>
        <pt x="346" y="386" on="0"/>
        <pt x="391" y="353" on="1"/>
        <pt x="391" y="456" on="0"/>
        <pt x="250" y="456" on="1"/>
        <pt x="208" y="461" on="0"/>
        <pt x="150" y="524" on="0"/>
        <pt x="150" y="613" on="0"/>
        <pt x="215" y="678" on="0"/>
        <pt x="307" y="678" on="0"/>
        <pt x="372" y="613" on="0"/>
        <pt x="372" y="528" on="0"/>
        <pt x="348" y="498" on="1"/>
        <pt x="406" y="484" on="0"/>
        <pt x="429" y="450" on="1"/>
        <pt x="441" y="432" on="0"/>
        <pt x="456" y="402" on="0"/>
        <pt x="459" y="378" on="1"/>
        <pt x="463" y="345" on="0"/>
        <pt x="463" y="298" on="1"/>
        <pt x="463" y="0" on="1"/>
        <pt x="359" y="-10" on="0"/>
        <pt x="297" y="-10" on="1"/>
        <pt x="78" y="-10" on="0"/>
        <pt x="78" y="169" on="1"/>
      </contour>
      <contour>
        <pt x="391" y="61" on="1"/>
        <pt x="391" y="288" on="1"/>
        <pt x="323" y="323" on="0"/>
        <pt x="244" y="332" on="1"/>
        <pt x="237" y="332" on="0"/>
        <pt x="230" y="332" on="1"/>
        <pt x="198" y="332" on="0"/>
        <pt x="150" y="293" on="0"/>
        <pt x="150" y="246" on="1"/>
        <pt x="150" y="168" on="1"/>
        <pt x="150" y="54" on="0"/>
        <pt x="306" y="54" on="1"/>
        <pt x="344" y="54" on="0"/>
      </contour>
      <contour>
        <pt x="237" y="510" on="0"/>
        <pt x="285" y="510" on="0"/>
        <pt x="317" y="543" on="0"/>
        <pt x="317" y="591" on="0"/>
        <pt x="285" y="623" on="0"/>
        <pt x="237" y="623" on="0"/>
        <pt x="204" y="591" on="0"/>
        <pt x="204" y="543" on="0"/>
      </contour>
    </TTGlyph>
    <TTGlyph name="asciicircum" xMin="78" yMin="719" xMax="368" yMax="899">
      <contour>
        <pt x="368" y="758" on="1"/>
        <pt x="321" y="719" on="1"/>
        <pt x="225" y="817" on="1"/>
        <pt x="124" y="719" on="1"/>
        <pt x="78" y="758" on="1"/>
        <pt x="226" y="899" on="1"/>
      </contour>
    </TTGlyph>
    <TTGlyph name="asciitilde" xMin="78" yMin="271" xMax="488" yMax="379">
      <contour>
        <pt x="371" y="342" on="1"/>
        <pt x="425" y="342" on="0"/>
        <pt x="456" y="379" on="1"/>
        <pt x="488" y="331" on="1"/>
        <pt x="444" y="274" on="0"/>
        <pt x="374" y="274" on="1"/>
        <pt x="346" y="274" on="0"/>
        <pt x="256" y="302" on="1"/>
        <pt x="228" y="310" on="0"/>
        <pt x="201" y="310" on="1"/>
        <pt x="144" y="310" on="0"/>
        <pt x="109" y="271" on="1"/>
        <pt x="78" y="319" on="1"/>
        <pt x="124" y="376" on="0"/>
        <pt x="195" y="376" on="1"/>
        <pt x="222" y="376" on="0"/>
        <pt x="343" y="342" on="0"/>
      </contour>
    </TTGlyph>
    <TTGlyph name="asterisk" xMin="21" yMin="412" xMax="332" yMax="700">
      <contour>
        <pt x="294" y="454" on="1"/>
        <pt x="234" y="412" on="1"/>
        <pt x="175" y="515" on="1"/>
        <pt x="118" y="412" on="1"/>
        <pt x="57" y="455" on="1"/>
        <pt x="130" y="541" on="1"/>
        <pt x="21" y="571" on="1"/>
        <pt x="45" y="635" on="1"/>
        <pt x="148" y="587" on="1"/>
        <pt x="138" y="700" on="1"/>
        <pt x="211" y="700" on="1"/>
        <pt x="201" y="587" on="1"/>
        <pt x="304" y="636" on="1"/>
        <pt x="332" y="570" on="1"/>
        <pt x="219" y="541" on="1"/>
      </contour>
    </TTGlyph>
    <TTGlyph name="at" xMin="21" yMin="-74" xMax="705" yMax="586">
      <contour>
        <pt x="536" y="91" on="1"/>
        <pt x="395" y="53" on="0"/>
        <pt x="325" y="53" on="1"/>
        <pt x="270" y="53" on="0"/>
        <pt x="220" y="77" on="1"/>
        <pt x="157" y="108" on="0"/>
        <pt x="151" y="204" on="1"/>
        <pt x="151" y="305" on="1"/>
        <pt x="151" y="416" on="0"/>
        <pt x="239" y="449" on="1"/>
        <pt x="274" y="462" on="0"/>
        <pt x="313" y="462" on="1"/>
        <pt x="381" y="462" on="0"/>
        <pt x="462" y="424" on="1"/>
        <pt x="456" y="474" on="0"/>
        <pt x="380" y="521" on="0"/>
        <pt x="279" y="521" on="0"/>
        <pt x="198" y="503" on="0"/>
        <pt x="164" y="483" on="1"/>
        <pt x="90" y="440" on="0"/>
        <pt x="90" y="338" on="1"/>
        <pt x="90" y="190" on="1"/>
        <pt x="90" y="120" on="0"/>
        <pt x="163" y="28" on="0"/>
        <pt x="266" y="-6" on="0"/>
        <pt x="402" y="-6" on="0"/>
        <pt x="520" y="28" on="0"/>
        <pt x="599" y="107" on="0"/>
        <pt x="599" y="162" on="1"/>
        <pt x="599" y="341" on="1"/>
        <pt x="599" y="420" on="0"/>
        <pt x="614" y="446" on="0"/>
        <pt x="623" y="460" on="1"/>
        <pt x="638" y="483" on="0"/>
        <pt x="684" y="496" on="1"/>
        <pt x="705" y="442" on="1"/>
        <pt x="668" y="427" on="0"/>
        <pt x="668" y="370" on="1"/>
        <pt x="669" y="173" on="1"/>
        <pt x="669" y="105" on="0"/>
        <pt x="604" y="4" on="0"/>
        <pt x="551" y="-22" on="1"/>
        <pt x="445" y="-74" on="0"/>
        <pt x="197" y="-74" on="0"/>
        <pt x="21" y="57" on="0"/>
        <pt x="21" y="183" on="1"/>
        <pt x="21" y="342" on="1"/>
        <pt x="21" y="398" on="0"/>
        <pt x="58" y="485" on="0"/>
        <pt x="88" y="512" on="1"/>
        <pt x="145" y="561" on="0"/>
        <pt x="214" y="575" on="1"/>
        <pt x="255" y="586" on="0"/>
        <pt x="310" y="586" on="0"/>
        <pt x="378" y="582" on="0"/>
        <pt x="473" y="552" on="0"/>
        <pt x="536" y="465" on="0"/>
        <pt x="536" y="399" on="1"/>
        <pt x="573" y="383" on="1"/>
        <pt x="573" y="317" on="1"/>
        <pt x="536" y="333" on="1"/>
      </contour>
      <contour>
        <pt x="464" y="356" on="1"/>
        <pt x="390" y="394" on="0"/>
        <pt x="312" y="394" on="1"/>
        <pt x="272" y="394" on="0"/>
        <pt x="221" y="347" on="0"/>
        <pt x="221" y="300" on="1"/>
        <pt x="221" y="215" on="1"/>
        <pt x="221" y="148" on="0"/>
        <pt x="280" y="126" on="1"/>
        <pt x="301" y="119" on="0"/>
        <pt x="384" y="119" on="0"/>
        <pt x="464" y="143" on="1"/>
      </contour>
    </TTGlyph>
    <TTGlyph name="atilde" xMin="78" yMin="-10" xMax="463" yMax="645">
      <contour>
        <pt x="78" y="252" on="1"/>
        <pt x="78" y="401" on="0"/>
        <pt x="230" y="401" on="1"/>
        <pt x="251" y="401" on="0"/>
        <pt x="274" y="398" on="1"/>
        <pt x="346" y="386" on="0"/>
        <pt x="391" y="353" on="1"/>
        <pt x="391" y="456" on="0"/>
        <pt x="250" y="456" on="1"/>
        <pt x="255" y="509" on="1"/>
        <pt x="336" y="509" on="0"/>
        <pt x="375" y="490" on="1"/>
        <pt x="396" y="479" on="0"/>
        <pt x="428" y="457" on="0"/>
        <pt x="446" y="421" on="0"/>
        <pt x="458" y="394" on="0"/>
        <pt x="460" y="371" on="1"/>
        <pt x="463" y="336" on="0"/>
        <pt x="463" y="298" on="1"/>
        <pt x="463" y="0" on="1"/>
        <pt x="359" y="-10" on="0"/>
        <pt x="297" y="-10" on="1"/>
        <pt x="78" y="-10" on="0"/>
        <pt x="78" y="169" on="1"/>
      </contour>
      <contour>
        <pt x="391" y="61" on="1"/>
        <pt x="391" y="288" on="1"/>
        <pt x="323" y="323" on="0"/>
        <pt x="244" y="332" on="1"/>
        <pt x="237" y="332" on="0"/>
        <pt x="230" y="332" on="1"/>
        <pt x="198" y="332" on="0"/>
        <pt x="150" y="293" on="0"/>
        <pt x="150" y="246" on="1"/>
        <pt x="150" y="168" on="1"/>
        <pt x="150" y="54" on="0"/>
        <pt x="306" y="54" on="1"/>
        <pt x="344" y="54" on="0"/>
      </contour>
      <contour>
        <pt x="342" y="604" on="1"/>
        <pt x="381" y="604" on="0"/>
        <pt x="412" y="639" on="1"/>
        <pt x="442" y="592" on="1"/>
        <pt x="397" y="539" on="0"/>
        <pt x="346" y="539" on="1"/>
        <pt x="328" y="539" on="0"/>
        <pt x="283" y="558" on="0"/>
        <pt x="233" y="581" on="0"/>
        <pt x="208" y="581" on="1"/>
        <pt x="166" y="581" on="0"/>
        <pt x="132" y="545" on="1"/>
        <pt x="103" y="592" on="1"/>
        <pt x="150" y="645" on="0"/>
        <pt x="203" y="645" on="1"/>
        <pt x="221" y="645" on="0"/>
        <pt x="266" y="627" on="0"/>
        <pt x="317" y="604" on="0"/>
      </contour>
    </TTGlyph>
    <TTGlyph name="b" xMin="78" yMin="-12" xMax="447" yMax="700">
      <contour>
        <pt x="150" y="482" on="1"/>
        <pt x="197" y="509" on="0"/>
        <pt x="317" y="509" on="0"/>
        <pt x="362" y="490" on="1"/>
        <pt x="447" y="451" on="0"/>
        <pt x="447" y="346" on="1"/>
        <pt x="447" y="157" on="1"/>
        <pt x="447" y="58" on="0"/>
        <pt x="369" y="18" on="1"/>
        <pt x="310" y="-12" on="0"/>
        <pt x="164" y="-12" on="0"/>
        <pt x="78" y="0" on="1"/>
        <pt x="78" y="700" on="1"/>
        <pt x="150" y="700" on="1"/>
      </contour>
      <contour>
        <pt x="376" y="156" on="1"/>
        <pt x="376" y="335" on="1"/>
        <pt x="376" y="383" on="0"/>
        <pt x="350" y="410" on="1"/>
        <pt x="321" y="441" on="0"/>
        <pt x="264" y="441" on="1"/>
        <pt x="214" y="436" on="1"/>
        <pt x="177" y="428" on="0"/>
        <pt x="150" y="412" on="1"/>
        <pt x="150" y="62" on="1"/>
        <pt x="200" y="55" on="0"/>
        <pt x="251" y="55" on="0"/>
        <pt x="254" y="56" on="1"/>
        <pt x="304" y="56" on="0"/>
        <pt x="376" y="108" on="0"/>
      </contour>
    </TTGlyph>
    <TTGlyph name="backslash" xMin="72" yMin="-114" xMax="472" yMax="817">
      <contour>
        <pt x="472" y="-114" on="1"/>
        <pt x="395" y="-114" on="1"/>
        <pt x="72" y="817" on="1"/>
        <pt x="148" y="817" on="1"/>
      </contour>
    </TTGlyph>
    <TTGlyph name="bar" xMin="78" yMin="-114" xMax="150" yMax="817">
      <contour>
        <pt x="150" y="-114" on="1"/>
        <pt x="78" y="-114" on="1"/>
        <pt x="78" y="817" on="1"/>
        <pt x="150" y="817" on="1"/>
      </contour>
    </TTGlyph>
    <TTGlyph name="beta" xMin="78" yMin="-161" xMax="448" yMax="701">
      <contour>
        <pt x="356" y="573" on="1"/>
        <pt x="356" y="523" on="0"/>
        <pt x="323" y="491" on="1"/>
        <pt x="377" y="479" on="0"/>
        <pt x="448" y="396" on="0"/>
        <pt x="448" y="330" on="1"/>
        <pt x="448" y="146" on="1"/>
        <pt x="448" y="-18" on="0"/>
        <pt x="239" y="-18" on="1"/>
        <pt x="198" y="-18" on="0"/>
        <pt x="150" y="-12" on="1"/>
        <pt x="150" y="-161" on="1"/>
        <pt x="78" y="-161" on="1"/>
        <pt x="78" y="537" on="1"/>
        <pt x="78" y="613" on="0"/>
        <pt x="152" y="701" on="0"/>
        <pt x="223" y="701" on="1"/>
        <pt x="267" y="701" on="0"/>
        <pt x="300" y="678" on="1"/>
        <pt x="356" y="638" on="0"/>
      </contour>
      <contour>
        <pt x="150" y="58" on="1"/>
        <pt x="216" y="49" on="0"/>
        <pt x="314" y="49" on="0"/>
        <pt x="377" y="103" on="0"/>
        <pt x="377" y="159" on="1"/>
        <pt x="377" y="318" on="1"/>
        <pt x="377" y="366" on="0"/>
        <pt x="354" y="394" on="1"/>
        <pt x="324" y="429" on="0"/>
        <pt x="208" y="429" on="0"/>
        <pt x="150" y="402" on="1"/>
      </contour>
      <contour>
        <pt x="150" y="536" on="1"/>
        <pt x="150" y="470" on="1"/>
        <pt x="194" y="492" on="0"/>
        <pt x="243" y="507" on="1"/>
        <pt x="284" y="519" on="0"/>
        <pt x="284" y="564" on="1"/>
        <pt x="284" y="585" on="0"/>
        <pt x="254" y="630" on="0"/>
        <pt x="222" y="630" on="1"/>
        <pt x="150" y="630" on="0"/>
      </contour>
    </TTGlyph>
    <TTGlyph name="braceleft" xMin="78" yMin="-116" xMax="290" yMax="822">
      <contour>
        <pt x="290" y="-60" on="1"/>
        <pt x="268" y="-116" on="1"/>
        <pt x="220" y="-93" on="0"/>
        <pt x="173" y="-41" on="0"/>
        <pt x="152" y="50" on="0"/>
        <pt x="152" y="134" on="1"/>
        <pt x="152" y="247" on="1"/>
        <pt x="152" y="266" on="0"/>
        <pt x="120" y="315" on="0"/>
        <pt x="99" y="335" on="0"/>
        <pt x="78" y="354" on="1"/>
        <pt x="102" y="373" on="0"/>
        <pt x="150" y="435" on="0"/>
        <pt x="150" y="462" on="1"/>
        <pt x="150" y="567" on="1"/>
        <pt x="150" y="690" on="0"/>
        <pt x="197" y="792" on="0"/>
        <pt x="267" y="822" on="1"/>
        <pt x="288" y="768" on="1"/>
        <pt x="222" y="733" on="0"/>
        <pt x="222" y="636" on="1"/>
        <pt x="222" y="456" on="1"/>
        <pt x="222" y="413" on="0"/>
        <pt x="164" y="355" on="1"/>
        <pt x="224" y="295" on="0"/>
        <pt x="224" y="253" on="1"/>
        <pt x="224" y="72" on="1"/>
        <pt x="224" y="-28" on="0"/>
      </contour>
    </TTGlyph>
    <TTGlyph name="braceright" xMin="78" yMin="-116" xMax="290" yMax="822">
      <contour>
        <pt x="100" y="-116" on="1"/>
        <pt x="78" y="-60" on="1"/>
        <pt x="144" y="-28" on="0"/>
        <pt x="144" y="72" on="1"/>
        <pt x="144" y="253" on="1"/>
        <pt x="144" y="295" on="0"/>
        <pt x="204" y="355" on="1"/>
        <pt x="146" y="413" on="0"/>
        <pt x="146" y="456" on="1"/>
        <pt x="146" y="636" on="1"/>
        <pt x="146" y="733" on="0"/>
        <pt x="80" y="768" on="1"/>
        <pt x="101" y="822" on="1"/>
        <pt x="171" y="792" on="0"/>
        <pt x="218" y="690" on="0"/>
        <pt x="218" y="567" on="1"/>
        <pt x="218" y="462" on="1"/>
        <pt x="218" y="435" on="0"/>
        <pt x="266" y="373" on="0"/>
        <pt x="290" y="354" on="1"/>
        <pt x="269" y="335" on="0"/>
        <pt x="248" y="315" on="0"/>
        <pt x="216" y="266" on="0"/>
        <pt x="216" y="247" on="1"/>
        <pt x="216" y="134" on="1"/>
        <pt x="216" y="50" on="0"/>
        <pt x="195" y="-41" on="0"/>
        <pt x="148" y="-93" on="0"/>
      </contour>
    </TTGlyph>
    <TTGlyph name="bracketleft" xMin="78" yMin="-114" xMax="239" yMax="817">
      <contour>
        <pt x="239" y="-114" on="1"/>
        <pt x="78" y="-114" on="1"/>
        <pt x="78" y="817" on="1"/>
        <pt x="239" y="817" on="1"/>
        <pt x="239" y="754" on="1"/>
        <pt x="150" y="744" on="1"/>
        <pt x="150" y="-41" on="1"/>
        <pt x="239" y="-51" on="1"/>
      </contour>
    </TTGlyph>
    <TTGlyph name="bracketright" xMin="78" yMin="-114" xMax="239" yMax="817">
      <contour>
        <pt x="239" y="-114" on="1"/>
        <pt x="78" y="-114" on="1"/>
        <pt x="78" y="-51" on="1"/>
        <pt x="167" y="-41" on="1"/>
        <pt x="167" y="744" on="1"/>
        <pt x="78" y="754" on="1"/>
        <pt x="78" y="817" on="1"/>
        <pt x="239" y="817" on="1"/>
      </contour>
    </TTGlyph>
    <TTGlyph name="breve" xMin="46" yMin="582" xMax="272" yMax="700">
      <contour>
        <pt x="272" y="700" on="1"/>
        <pt x="272" y="695" on="1"/>
        <pt x="272" y="648" on="0"/>
        <pt x="206" y="582" on="0"/>
        <pt x="112" y="582" on="0"/>
        <pt x="46" y="648" on="0"/>
        <pt x="46" y="695" on="1"/>
        <pt x="46" y="700" on="1"/>
        <pt x="102" y="700" on="1"/>
        <pt x="102" y="695" on="1"/>
        <pt x="102" y="670" on="0"/>
        <pt x="135" y="637" on="0"/>
        <pt x="183" y="637" on="0"/>
        <pt x="216" y="670" on="0"/>
        <pt x="216" y="695" on="1"/>
        <pt x="216" y="700" on="1"/>
      </contour>
    </TTGlyph>
    <TTGlyph name="bullet" xMin="78" yMin="158" xMax="435" yMax="515">
      <contour>
        <pt x="330" y="158" on="0"/>
        <pt x="182" y="158" on="0"/>
        <pt x="78" y="263" on="0"/>
        <pt x="78" y="411" on="0"/>
        <pt x="182" y="515" on="0"/>
        <pt x="330" y="515" on="0"/>
        <pt x="435" y="411" on="0"/>
        <pt x="435" y="263" on="0"/>
      </contour>
    </TTGlyph>
</ttFont>
